{"glyphs":{"0":{"ha":714,"x_min":64,"x_max":650,"o":"m 358 -17 q 139 72 214 -17 q 64 310 64 161 l 64 808 q 137 1050 64 963 q 358 1138 210 1138 q 577 1049 504 1138 q 650 808 650 961 l 650 310 q 575 72 650 161 q 358 -17 500 -17 m 358 149 q 456 313 456 149 l 456 806 q 436 926 456 879 q 358 972 417 972 q 279 926 299 972 q 260 806 260 881 l 260 313 q 358 149 260 149 z "},"1":{"ha":693,"x_min":124,"x_max":490,"o":"m 297 913 q 196 881 283 903 q 124 858 125 860 l 124 1001 q 245 1055 179 1021 q 342 1125 311 1089 l 490 1125 l 490 0 l 297 0 l 297 913 z "},"2":{"ha":703,"x_min":68,"x_max":656,"o":"m 68 136 l 346 565 l 372 606 q 442 731 419 681 q 465 846 465 782 q 374 976 465 976 q 285 928 310 976 q 260 797 260 879 l 260 750 l 72 750 l 72 800 q 143 1048 72 958 q 368 1138 214 1138 q 583 1061 510 1138 q 656 844 656 985 q 638 724 656 779 q 594 625 619 668 q 517 503 569 582 l 286 154 l 628 154 l 628 0 l 68 0 l 68 136 z "},"3":{"ha":693,"x_min":61,"x_max":649,"o":"m 356 -17 q 61 306 61 -17 l 61 344 l 253 344 l 253 311 q 276 185 254 225 q 357 144 299 144 q 437 188 415 144 q 458 321 458 231 q 428 460 458 413 q 326 511 399 507 l 294 511 l 294 665 l 322 665 q 428 706 397 667 q 458 833 458 744 q 435 947 458 910 q 354 985 413 985 q 276 944 297 985 q 253 825 254 904 l 253 785 l 61 785 l 61 838 q 137 1060 61 982 q 354 1139 213 1139 q 573 1062 497 1139 q 649 842 649 985 q 608 678 649 743 q 500 594 567 614 q 609 505 569 571 q 649 325 649 439 q 578 74 649 164 q 356 -17 507 -17 z "},"4":{"ha":714,"x_min":51,"x_max":681,"o":"m 385 276 l 51 276 l 51 444 l 342 1125 l 564 1125 l 564 431 l 681 431 l 681 276 l 564 276 l 564 0 l 385 0 l 385 276 m 385 431 l 385 917 l 213 431 l 385 431 z "},"5":{"ha":701,"x_min":74,"x_max":650,"o":"m 357 -17 q 135 69 197 -17 q 74 322 74 154 l 261 322 q 282 178 261 226 q 364 129 303 129 q 432 159 410 129 q 460 240 454 189 q 467 381 467 290 q 446 544 467 492 q 360 597 425 597 q 294 571 321 597 q 254 499 267 544 l 89 499 l 100 1125 l 606 1125 l 606 953 l 261 953 l 250 682 q 318 724 274 708 q 415 740 363 740 q 592 649 535 740 q 650 393 650 558 q 626 175 650 264 q 538 35 601 86 q 357 -17 474 -17 z "},"6":{"ha":713,"x_min":72,"x_max":661,"o":"m 367 -15 q 145 86 218 -15 q 72 354 72 188 l 72 749 q 138 1034 72 931 q 367 1138 204 1138 q 577 1067 510 1138 q 647 856 644 996 l 649 838 l 464 838 q 444 953 464 918 q 368 988 425 988 q 290 935 313 988 q 267 756 267 883 l 267 622 q 327 673 286 654 q 424 692 368 692 q 661 368 661 692 q 592 87 661 189 q 367 -15 522 -15 m 368 133 q 447 183 425 133 q 468 332 468 233 q 463 450 468 407 q 435 519 457 493 q 368 546 414 546 q 308 528 335 546 q 267 486 281 510 l 267 310 q 368 133 267 133 z "},"7":{"ha":622,"x_min":67,"x_max":560,"o":"m 371 978 l 67 978 l 67 1125 l 560 1125 l 560 1008 l 332 0 l 146 0 l 371 978 z "},"8":{"ha":703,"x_min":58,"x_max":644,"o":"m 351 -15 q 58 321 58 -15 q 193 593 58 518 q 107 694 139 631 q 75 849 75 757 q 146 1061 75 985 q 351 1138 217 1138 q 557 1061 488 1138 q 626 849 626 985 q 510 593 626 672 q 644 317 644 517 q 351 -15 644 -15 m 351 668 q 443 847 443 669 q 421 953 443 914 q 351 992 399 992 q 281 953 304 992 q 257 849 257 914 q 351 668 257 669 m 351 131 q 436 184 415 131 q 457 325 457 238 q 434 455 457 406 q 351 506 411 504 q 268 452 292 504 q 244 315 244 400 q 267 182 244 233 q 351 131 289 131 z "},"9":{"ha":713,"x_min":61,"x_max":649,"o":"m 354 -15 q 142 56 210 -15 q 72 269 75 128 l 72 286 l 257 286 q 277 171 257 206 q 356 136 297 136 q 431 188 410 136 q 453 368 453 240 l 453 501 q 393 450 433 468 q 297 432 353 432 q 61 763 61 432 q 131 1038 61 939 q 354 1138 201 1138 q 576 1040 504 1138 q 649 775 649 942 l 649 376 q 583 89 649 193 q 354 -15 517 -15 m 356 578 q 453 639 418 578 l 453 814 q 431 943 453 896 q 354 990 410 990 q 277 940 299 990 q 256 792 256 889 q 260 673 256 715 q 287 604 265 631 q 356 578 308 578 z "},"\u0000":{"ha":0,"x_min":0,"x_max":0,"o":""},"\r":{"ha":338,"x_min":0,"x_max":0,"o":""}," ":{"ha":338,"x_min":0,"x_max":0,"o":""},"A":{"ha":725,"x_min":28,"x_max":697,"o":"m 253 1125 l 472 1125 l 697 0 l 507 0 l 463 260 l 267 260 l 221 0 l 28 0 l 253 1125 m 440 390 l 364 863 l 288 390 l 440 390 z "},"Á":{"ha":725,"x_min":28,"x_max":697,"o":"m 253 1125 l 472 1125 l 697 0 l 507 0 l 463 260 l 267 260 l 221 0 l 28 0 l 253 1125 m 440 390 l 364 863 l 288 390 l 440 390 m 390 1481 l 582 1481 l 417 1203 l 307 1203 l 390 1481 z "},"Ă":{"ha":725,"x_min":28,"x_max":697,"o":"m 253 1125 l 472 1125 l 697 0 l 507 0 l 463 260 l 267 260 l 221 0 l 28 0 l 253 1125 m 440 390 l 364 863 l 288 390 l 440 390 m 364 1214 q 215 1268 267 1214 q 164 1417 164 1322 l 271 1417 q 294 1339 272 1364 q 364 1314 315 1314 q 435 1340 414 1314 q 457 1417 457 1365 l 565 1417 q 514 1268 565 1322 q 364 1214 463 1214 z "},"Ắ":{"ha":725,"x_min":28,"x_max":697,"o":"m 253 1125 l 472 1125 l 697 0 l 507 0 l 463 260 l 267 260 l 221 0 l 28 0 l 253 1125 m 440 390 l 364 863 l 288 390 l 440 390 m 376 1624 l 543 1624 l 393 1463 l 282 1463 l 376 1624 m 364 1199 q 215 1253 267 1199 q 164 1401 164 1307 l 271 1401 q 294 1324 272 1349 q 364 1299 315 1299 q 435 1324 414 1299 q 457 1401 457 1350 l 565 1401 q 514 1253 565 1307 q 364 1199 463 1199 z "},"Ặ":{"ha":725,"x_min":28,"x_max":697,"o":"m 253 1125 l 472 1125 l 697 0 l 507 0 l 463 260 l 267 260 l 221 0 l 28 0 l 253 1125 m 440 390 l 364 863 l 288 390 l 440 390 m 276 -93 l 449 -93 l 449 -267 l 276 -267 l 276 -93 m 364 1214 q 215 1268 267 1214 q 164 1417 164 1322 l 271 1417 q 294 1339 272 1364 q 364 1314 315 1314 q 435 1340 414 1314 q 457 1417 457 1365 l 565 1417 q 514 1268 565 1322 q 364 1214 463 1214 z "},"Ằ":{"ha":725,"x_min":28,"x_max":697,"o":"m 253 1125 l 472 1125 l 697 0 l 507 0 l 463 260 l 267 260 l 221 0 l 28 0 l 253 1125 m 440 390 l 364 863 l 288 390 l 440 390 m 183 1624 l 350 1624 l 443 1463 l 333 1463 l 183 1624 m 364 1199 q 215 1253 267 1199 q 164 1401 164 1307 l 271 1401 q 294 1324 272 1349 q 364 1299 315 1299 q 435 1324 414 1299 q 457 1401 457 1350 l 565 1401 q 514 1253 565 1307 q 364 1199 463 1199 z "},"Ẳ":{"ha":725,"x_min":28,"x_max":697,"o":"m 253 1125 l 472 1125 l 697 0 l 507 0 l 463 260 l 267 260 l 221 0 l 28 0 l 253 1125 m 440 390 l 364 863 l 288 390 l 440 390 m 321 1482 q 365 1521 350 1503 q 379 1564 379 1539 q 362 1604 379 1590 q 314 1618 344 1618 q 246 1607 279 1618 l 246 1692 q 354 1710 299 1710 q 464 1676 422 1710 q 506 1581 506 1643 q 471 1486 506 1525 q 376 1419 436 1447 l 321 1482 m 364 1214 q 215 1268 267 1214 q 164 1417 164 1322 l 271 1417 q 294 1339 272 1364 q 364 1314 315 1314 q 435 1340 414 1314 q 457 1417 457 1365 l 565 1417 q 514 1268 565 1322 q 364 1214 463 1214 z "},"Ẵ":{"ha":725,"x_min":28,"x_max":697,"o":"m 253 1125 l 472 1125 l 697 0 l 507 0 l 463 260 l 267 260 l 221 0 l 28 0 l 253 1125 m 440 390 l 364 863 l 288 390 l 440 390 m 363 1214 q 214 1268 265 1214 q 163 1417 163 1322 l 269 1417 q 292 1339 271 1364 q 363 1314 314 1314 q 434 1340 413 1314 q 456 1417 456 1365 l 564 1417 q 513 1268 564 1322 q 363 1214 461 1214 m 472 1489 q 424 1498 446 1489 q 374 1525 401 1507 q 331 1547 349 1539 q 296 1554 314 1554 q 258 1540 269 1554 q 247 1497 247 1525 l 150 1497 q 268 1672 150 1672 q 312 1664 292 1672 q 361 1639 332 1656 q 406 1616 389 1624 q 442 1608 422 1608 q 486 1664 486 1608 l 578 1664 q 556 1537 578 1585 q 472 1489 533 1489 z "},"Â":{"ha":725,"x_min":28,"x_max":697,"o":"m 253 1125 l 472 1125 l 697 0 l 507 0 l 463 260 l 267 260 l 221 0 l 28 0 l 253 1125 m 440 390 l 364 863 l 288 390 l 440 390 m 278 1469 l 447 1469 l 575 1214 l 435 1214 l 363 1381 l 292 1214 l 153 1214 l 278 1469 z "},"Ấ":{"ha":725,"x_min":28,"x_max":769,"o":"m 253 1125 l 472 1125 l 697 0 l 507 0 l 463 260 l 267 260 l 221 0 l 28 0 l 253 1125 m 440 390 l 364 863 l 288 390 l 440 390 m 619 1533 l 769 1533 l 651 1368 l 546 1368 l 619 1533 m 278 1438 l 447 1438 l 575 1214 l 438 1214 l 363 1354 l 289 1214 l 153 1214 l 278 1438 z "},"Ậ":{"ha":725,"x_min":28,"x_max":697,"o":"m 253 1125 l 472 1125 l 697 0 l 507 0 l 463 260 l 267 260 l 221 0 l 28 0 l 253 1125 m 440 390 l 364 863 l 288 390 l 440 390 m 278 1438 l 447 1438 l 575 1214 l 438 1214 l 363 1354 l 289 1214 l 153 1214 l 278 1438 m 276 -93 l 449 -93 l 449 -267 l 276 -267 l 276 -93 z "},"Ầ":{"ha":725,"x_min":28,"x_max":697,"o":"m 253 1125 l 472 1125 l 697 0 l 507 0 l 463 260 l 267 260 l 221 0 l 28 0 l 253 1125 m 440 390 l 364 863 l 288 390 l 440 390 m 467 1533 l 617 1533 l 690 1368 l 583 1368 l 467 1533 m 278 1438 l 447 1438 l 575 1214 l 438 1214 l 363 1354 l 289 1214 l 153 1214 l 278 1438 z "},"Ẩ":{"ha":725,"x_min":28,"x_max":721,"o":"m 253 1125 l 472 1125 l 697 0 l 507 0 l 463 260 l 267 260 l 221 0 l 28 0 l 253 1125 m 440 390 l 364 863 l 288 390 l 440 390 m 536 1397 q 580 1437 565 1418 q 594 1479 594 1456 q 576 1519 594 1506 q 528 1533 558 1533 q 461 1522 492 1533 l 461 1607 q 569 1625 511 1625 q 679 1592 638 1625 q 721 1496 721 1558 q 687 1401 721 1438 q 592 1335 653 1364 l 536 1397 m 278 1438 l 447 1438 l 575 1214 l 438 1214 l 363 1354 l 289 1214 l 153 1214 l 278 1438 z "},"Ẫ":{"ha":725,"x_min":28,"x_max":697,"o":"m 253 1125 l 472 1125 l 697 0 l 507 0 l 463 260 l 267 260 l 221 0 l 28 0 l 253 1125 m 440 390 l 364 863 l 288 390 l 440 390 m 278 1438 l 447 1438 l 575 1214 l 438 1214 l 363 1354 l 289 1214 l 153 1214 l 278 1438 m 472 1506 q 424 1515 446 1506 q 374 1542 401 1524 q 331 1563 349 1556 q 296 1571 314 1571 q 258 1556 269 1571 q 247 1514 247 1542 l 150 1514 q 268 1689 150 1689 q 312 1681 292 1689 q 361 1656 332 1672 q 406 1633 389 1640 q 442 1625 422 1625 q 486 1681 486 1625 l 578 1681 q 556 1553 578 1601 q 472 1506 533 1506 z "},"Ȁ":{"ha":725,"x_min":28,"x_max":697,"o":"m 253 1125 l 472 1125 l 697 0 l 507 0 l 463 260 l 267 260 l 221 0 l 28 0 l 253 1125 m 440 390 l 364 863 l 288 390 l 440 390 m 71 1472 l 233 1472 l 318 1210 l 218 1210 l 71 1472 m 315 1472 l 458 1472 l 528 1210 l 429 1210 l 315 1472 z "},"Ä":{"ha":725,"x_min":28,"x_max":697,"o":"m 253 1125 l 472 1125 l 697 0 l 507 0 l 463 260 l 267 260 l 221 0 l 28 0 l 253 1125 m 440 390 l 364 863 l 288 390 l 440 390 m 144 1447 l 311 1447 l 311 1267 l 144 1267 l 144 1447 m 417 1447 l 583 1447 l 583 1267 l 417 1267 l 417 1447 z "},"Ạ":{"ha":725,"x_min":28,"x_max":697,"o":"m 253 1125 l 472 1125 l 697 0 l 507 0 l 463 260 l 267 260 l 221 0 l 28 0 l 253 1125 m 440 390 l 364 863 l 288 390 l 440 390 m 276 -93 l 449 -93 l 449 -267 l 276 -267 l 276 -93 z "},"À":{"ha":725,"x_min":28,"x_max":697,"o":"m 253 1125 l 472 1125 l 697 0 l 507 0 l 463 260 l 267 260 l 221 0 l 28 0 l 253 1125 m 440 390 l 364 863 l 288 390 l 440 390 m 147 1481 l 339 1481 l 421 1203 l 313 1203 l 147 1481 z "},"Ả":{"ha":725,"x_min":28,"x_max":697,"o":"m 253 1125 l 472 1125 l 697 0 l 507 0 l 463 260 l 267 260 l 221 0 l 28 0 l 253 1125 m 440 390 l 364 863 l 288 390 l 440 390 m 303 1264 q 374 1303 351 1285 q 397 1347 397 1321 q 315 1400 397 1400 q 238 1389 274 1400 l 238 1475 q 365 1492 300 1492 q 481 1459 435 1492 q 526 1361 526 1426 q 485 1263 526 1300 q 365 1199 443 1226 l 303 1264 z "},"Ȃ":{"ha":725,"x_min":28,"x_max":697,"o":"m 253 1125 l 472 1125 l 697 0 l 507 0 l 463 260 l 267 260 l 221 0 l 28 0 l 253 1125 m 440 390 l 364 863 l 288 390 l 440 390 m 163 1232 q 364 1446 165 1446 q 516 1390 467 1446 q 565 1232 565 1333 l 457 1232 q 435 1319 457 1293 q 364 1346 414 1346 q 293 1319 314 1346 q 271 1232 272 1293 l 163 1232 z "},"Ā":{"ha":725,"x_min":28,"x_max":697,"o":"m 253 1125 l 472 1125 l 697 0 l 507 0 l 463 260 l 267 260 l 221 0 l 28 0 l 253 1125 m 440 390 l 364 863 l 288 390 l 440 390 m 200 1358 l 528 1358 l 528 1260 l 200 1260 l 200 1358 z "},"Ą":{"ha":725,"x_min":28,"x_max":719,"o":"m 253 1125 l 472 1125 l 697 0 l 507 0 l 463 260 l 267 260 l 221 0 l 28 0 l 253 1125 m 440 390 l 364 863 l 288 390 l 440 390 m 647 -342 q 498 -314 556 -342 q 440 -207 440 -286 q 480 -89 440 -149 q 571 0 519 -29 l 660 0 q 576 -174 576 -101 q 676 -249 576 -249 q 719 -246 694 -249 l 696 -337 q 647 -342 675 -342 z "},"Å":{"ha":725,"x_min":28,"x_max":697,"o":"m 253 1125 l 472 1125 l 697 0 l 507 0 l 463 260 l 267 260 l 221 0 l 28 0 l 253 1125 m 440 390 l 364 863 l 288 390 l 440 390 m 364 1168 q 250 1210 294 1168 q 206 1322 206 1251 q 250 1434 206 1393 q 364 1475 294 1475 q 478 1434 433 1475 q 522 1322 522 1393 q 478 1210 522 1251 q 364 1168 433 1168 m 364 1246 q 417 1267 397 1246 q 438 1322 438 1289 q 418 1378 438 1357 q 364 1399 399 1399 q 309 1378 329 1399 q 289 1322 289 1357 q 309 1267 289 1289 q 364 1246 329 1246 z "},"Ǻ":{"ha":725,"x_min":28,"x_max":697,"o":"m 253 1125 l 472 1125 l 697 0 l 507 0 l 463 260 l 267 260 l 221 0 l 28 0 l 253 1125 m 440 390 l 364 863 l 288 390 l 440 390 m 364 1168 q 250 1210 294 1168 q 206 1322 206 1251 q 250 1434 206 1393 q 364 1475 294 1475 q 478 1434 433 1475 q 522 1322 522 1393 q 478 1210 522 1251 q 364 1168 433 1168 m 364 1246 q 417 1267 397 1246 q 438 1322 438 1289 q 418 1378 438 1357 q 364 1399 399 1399 q 309 1378 329 1399 q 289 1322 289 1357 q 309 1267 289 1289 q 364 1246 329 1246 m 390 1817 l 582 1817 l 417 1539 l 307 1539 l 390 1817 z "},"Ã":{"ha":725,"x_min":28,"x_max":697,"o":"m 253 1125 l 472 1125 l 697 0 l 507 0 l 463 260 l 267 260 l 221 0 l 28 0 l 253 1125 m 440 390 l 364 863 l 288 390 l 440 390 m 472 1272 q 424 1281 446 1272 q 374 1308 401 1290 q 331 1330 349 1322 q 296 1338 314 1338 q 258 1323 269 1338 q 247 1281 247 1308 l 150 1281 q 268 1456 150 1456 q 312 1447 292 1456 q 361 1422 332 1439 q 406 1399 389 1407 q 442 1392 422 1392 q 486 1447 486 1392 l 578 1447 q 556 1320 578 1368 q 472 1272 533 1272 z "},"Æ":{"ha":935,"x_min":-43,"x_max":900,"o":"m 439 1117 l 900 1117 l 900 974 l 640 974 l 640 654 l 826 654 l 826 510 l 640 510 l 640 142 l 900 142 l 900 0 l 458 0 l 458 260 l 265 260 l 157 0 l -43 0 l 439 1117 m 458 394 l 458 789 l 311 394 l 458 394 z "},"Ǽ":{"ha":935,"x_min":-43,"x_max":900,"o":"m 439 1117 l 900 1117 l 900 974 l 640 974 l 640 654 l 826 654 l 826 510 l 640 510 l 640 142 l 900 142 l 900 0 l 458 0 l 458 260 l 265 260 l 157 0 l -43 0 l 439 1117 m 458 394 l 458 789 l 311 394 l 458 394 m 576 1481 l 768 1481 l 603 1203 l 493 1203 l 576 1481 z "},"B":{"ha":774,"x_min":85,"x_max":725,"o":"m 85 1125 l 363 1125 q 606 1061 521 1125 q 692 843 692 997 q 529 606 692 631 q 724 328 724 568 q 646 83 725 167 q 410 0 567 0 l 85 0 l 85 1125 m 360 665 q 481 705 449 665 q 514 833 514 744 q 472 951 514 919 q 331 982 429 982 l 289 982 l 289 665 l 360 665 m 368 144 q 493 188 458 144 q 528 329 528 231 q 490 477 528 431 q 361 524 451 524 l 289 524 l 289 144 l 368 144 z "},"Ḃ":{"ha":774,"x_min":85,"x_max":724,"o":"m 85 1125 l 363 1125 q 606 1061 521 1125 q 692 843 692 997 q 529 606 692 631 q 724 328 724 568 q 646 83 725 167 q 410 0 567 0 l 85 0 l 85 1125 m 360 665 q 481 705 449 665 q 514 833 514 744 q 472 951 514 919 q 331 982 429 982 l 289 982 l 289 665 l 360 665 m 368 144 q 493 188 458 144 q 528 329 528 231 q 490 477 528 431 q 361 524 451 524 l 289 524 l 289 144 l 368 144 m 296 1431 l 479 1431 l 479 1240 l 296 1240 l 296 1431 z "},"C":{"ha":750,"x_min":67,"x_max":692,"o":"m 388 -15 q 140 83 213 -15 q 67 360 67 181 l 67 761 q 139 1042 67 946 q 388 1138 211 1138 q 622 1054 553 1138 q 692 814 692 971 l 692 719 l 494 719 l 494 817 q 489 910 494 876 q 460 966 483 944 q 389 988 438 988 q 314 965 339 988 q 281 903 289 942 q 274 804 274 865 l 274 317 q 299 178 274 221 q 389 136 324 136 q 459 158 436 136 q 488 217 482 181 q 494 315 494 254 l 494 417 l 692 417 l 692 326 q 624 74 692 164 q 388 -15 556 -15 z "},"Ć":{"ha":750,"x_min":67,"x_max":692,"o":"m 388 -15 q 140 83 213 -15 q 67 360 67 181 l 67 761 q 139 1042 67 946 q 388 1138 211 1138 q 622 1054 553 1138 q 692 814 692 971 l 692 719 l 494 719 l 494 817 q 489 910 494 876 q 460 966 483 944 q 389 988 438 988 q 314 965 339 988 q 281 903 289 942 q 274 804 274 865 l 274 317 q 299 178 274 221 q 389 136 324 136 q 459 158 436 136 q 488 217 482 181 q 494 315 494 254 l 494 417 l 692 417 l 692 326 q 624 74 692 164 q 388 -15 556 -15 m 407 1481 l 599 1481 l 433 1203 l 324 1203 l 407 1481 z "},"Č":{"ha":750,"x_min":67,"x_max":692,"o":"m 388 -15 q 140 83 213 -15 q 67 360 67 181 l 67 761 q 139 1042 67 946 q 388 1138 211 1138 q 622 1054 553 1138 q 692 814 692 971 l 692 719 l 494 719 l 494 817 q 489 910 494 876 q 460 966 483 944 q 389 988 438 988 q 314 965 339 988 q 281 903 289 942 q 274 804 274 865 l 274 317 q 299 178 274 221 q 389 136 324 136 q 459 158 436 136 q 488 217 482 181 q 494 315 494 254 l 494 417 l 692 417 l 692 326 q 624 74 692 164 q 388 -15 556 -15 m 167 1458 l 306 1458 l 381 1301 l 456 1458 l 594 1458 l 472 1208 l 288 1208 l 167 1458 z "},"Ç":{"ha":750,"x_min":67,"x_max":692,"o":"m 494 719 l 494 817 q 489 910 494 876 q 460 966 483 944 q 389 988 438 988 q 314 965 339 988 q 281 903 289 942 q 274 804 274 865 l 274 317 q 299 178 274 221 q 389 136 324 136 q 459 158 436 136 q 488 217 482 181 q 494 315 494 254 l 494 417 l 692 417 l 692 326 q 629 82 692 171 q 415 -15 567 -7 l 415 -85 q 541 -119 494 -85 q 588 -217 588 -153 q 534 -322 588 -286 q 399 -357 481 -357 q 299 -342 351 -357 l 299 -254 q 374 -265 332 -265 q 458 -214 458 -265 q 336 -139 458 -151 l 336 -12 q 128 99 190 3 q 67 360 67 196 l 67 761 q 139 1042 67 946 q 388 1138 211 1138 q 622 1054 553 1138 q 692 814 692 971 l 692 719 l 494 719 z "},"Ĉ":{"ha":750,"x_min":67,"x_max":692,"o":"m 388 -15 q 140 83 213 -15 q 67 360 67 181 l 67 761 q 139 1042 67 946 q 388 1138 211 1138 q 622 1054 553 1138 q 692 814 692 971 l 692 719 l 494 719 l 494 817 q 489 910 494 876 q 460 966 483 944 q 389 988 438 988 q 314 965 339 988 q 281 903 289 942 q 274 804 274 865 l 274 317 q 299 178 274 221 q 389 136 324 136 q 459 158 436 136 q 488 217 482 181 q 494 315 494 254 l 494 417 l 692 417 l 692 326 q 624 74 692 164 q 388 -15 556 -15 m 294 1469 l 464 1469 l 592 1214 l 451 1214 l 379 1381 l 308 1214 l 169 1214 l 294 1469 z "},"Ċ":{"ha":750,"x_min":67,"x_max":692,"o":"m 388 -15 q 140 83 213 -15 q 67 360 67 181 l 67 761 q 139 1042 67 946 q 388 1138 211 1138 q 622 1054 553 1138 q 692 814 692 971 l 692 719 l 494 719 l 494 817 q 489 910 494 876 q 460 966 483 944 q 389 988 438 988 q 314 965 339 988 q 281 903 289 942 q 274 804 274 865 l 274 317 q 299 178 274 221 q 389 136 324 136 q 459 158 436 136 q 488 217 482 181 q 494 315 494 254 l 494 417 l 692 417 l 692 326 q 624 74 692 164 q 388 -15 556 -15 m 289 1431 l 472 1431 l 472 1240 l 289 1240 l 289 1431 z "},"D":{"ha":774,"x_min":85,"x_max":707,"o":"m 85 1125 l 350 1125 q 564 1088 486 1125 q 674 976 642 1051 q 707 775 707 900 l 707 365 q 674 158 707 238 q 565 40 642 79 q 358 0 489 0 l 85 0 l 85 1125 m 353 143 q 451 167 421 143 q 490 233 482 190 q 499 358 499 275 l 499 789 q 489 903 499 864 q 448 960 479 942 q 350 979 417 979 l 289 979 l 289 143 l 353 143 z "},"Ǳ":{"ha":1364,"x_min":85,"x_max":1331,"o":"m 85 1125 l 350 1125 q 564 1088 486 1125 q 674 976 642 1051 q 707 775 707 900 l 707 365 q 674 158 707 238 q 565 40 642 79 q 358 0 489 0 l 85 0 l 85 1125 m 353 143 q 451 167 421 143 q 490 233 482 190 q 499 358 499 275 l 499 789 q 489 903 499 864 q 448 960 479 942 q 350 979 417 979 l 289 979 l 289 143 l 353 143 m 821 132 l 1122 983 l 836 983 l 836 1125 l 1329 1125 l 1329 1019 l 1015 140 l 1331 140 l 1331 0 l 821 0 l 821 132 z "},"Ǆ":{"ha":1364,"x_min":85,"x_max":1331,"o":"m 85 1125 l 350 1125 q 564 1088 486 1125 q 674 976 642 1051 q 707 775 707 900 l 707 365 q 674 158 707 238 q 565 40 642 79 q 358 0 489 0 l 85 0 l 85 1125 m 353 143 q 451 167 421 143 q 490 233 482 190 q 499 358 499 275 l 499 789 q 489 903 499 864 q 448 960 479 942 q 350 979 417 979 l 289 979 l 289 143 l 353 143 m 821 132 l 1122 983 l 836 983 l 836 1125 l 1329 1125 l 1329 1019 l 1015 140 l 1331 140 l 1331 0 l 821 0 l 821 132 m 856 1458 l 994 1458 l 1069 1301 l 1144 1458 l 1283 1458 l 1161 1208 l 976 1208 l 856 1458 z "},"Ð":{"ha":751,"x_min":14,"x_max":701,"o":"m 79 526 l 14 526 l 14 633 l 79 633 l 79 1125 l 344 1125 q 558 1088 481 1125 q 669 976 636 1051 q 701 775 701 900 l 701 365 q 669 158 701 238 q 560 40 636 79 q 353 0 483 0 l 79 0 l 79 526 m 347 143 q 446 167 415 143 q 485 233 476 190 q 493 358 493 275 l 493 789 q 483 903 493 864 q 442 960 474 942 q 344 979 411 979 l 283 979 l 283 633 l 354 633 l 354 526 l 283 526 l 283 143 l 347 143 z "},"Ď":{"ha":774,"x_min":85,"x_max":707,"o":"m 85 1125 l 350 1125 q 564 1088 486 1125 q 674 976 642 1051 q 707 775 707 900 l 707 365 q 674 158 707 238 q 565 40 642 79 q 358 0 489 0 l 85 0 l 85 1125 m 353 143 q 451 167 421 143 q 490 233 482 190 q 499 358 499 275 l 499 789 q 489 903 499 864 q 448 960 479 942 q 350 979 417 979 l 289 979 l 289 143 l 353 143 m 174 1458 l 313 1458 l 388 1301 l 463 1458 l 601 1458 l 479 1208 l 294 1208 l 174 1458 z "},"Đ":{"ha":778,"x_min":21,"x_max":711,"o":"m 90 529 l 21 529 l 21 632 l 90 632 l 90 1125 l 356 1125 q 569 1088 492 1125 q 678 976 646 1051 q 711 775 711 900 l 711 365 q 678 158 711 238 q 569 40 646 79 q 363 0 493 0 l 90 0 l 90 529 m 360 143 q 459 167 428 143 q 498 233 490 190 q 506 358 506 275 l 506 789 q 496 903 506 864 q 455 960 486 942 q 357 979 424 979 l 292 979 l 292 632 l 367 632 l 367 529 l 292 529 l 292 143 l 360 143 z "},"Ḋ":{"ha":774,"x_min":85,"x_max":707,"o":"m 85 1125 l 350 1125 q 564 1088 486 1125 q 674 976 642 1051 q 707 775 707 900 l 707 365 q 674 158 707 238 q 565 40 642 79 q 358 0 489 0 l 85 0 l 85 1125 m 353 143 q 451 167 421 143 q 490 233 482 190 q 499 358 499 275 l 499 789 q 489 903 499 864 q 448 960 479 942 q 350 979 417 979 l 289 979 l 289 143 l 353 143 m 296 1431 l 479 1431 l 479 1240 l 296 1240 l 296 1431 z "},"ǲ":{"ha":1288,"x_min":85,"x_max":1251,"o":"m 85 1125 l 350 1125 q 564 1088 486 1125 q 674 976 642 1051 q 707 775 707 900 l 707 365 q 674 158 707 238 q 565 40 642 79 q 358 0 489 0 l 85 0 l 85 1125 m 353 143 q 451 167 421 143 q 490 233 482 190 q 499 358 499 275 l 499 789 q 489 903 499 864 q 448 960 479 942 q 350 979 417 979 l 289 979 l 289 143 l 353 143 m 821 124 l 1053 664 l 840 664 l 840 803 l 1251 803 l 1251 693 l 1018 140 l 1251 140 l 1251 0 l 821 0 l 821 124 z "},"ǅ":{"ha":1288,"x_min":85,"x_max":1251,"o":"m 85 1125 l 350 1125 q 564 1088 486 1125 q 674 976 642 1051 q 707 775 707 900 l 707 365 q 674 158 707 238 q 565 40 642 79 q 358 0 489 0 l 85 0 l 85 1125 m 353 143 q 451 167 421 143 q 490 233 482 190 q 499 358 499 275 l 499 789 q 489 903 499 864 q 448 960 479 942 q 350 979 417 979 l 289 979 l 289 143 l 353 143 m 821 124 l 1053 664 l 840 664 l 840 803 l 1251 803 l 1251 693 l 1018 140 l 1251 140 l 1251 0 l 821 0 l 821 124 m 818 1136 l 957 1136 l 1032 979 l 1107 1136 l 1246 1136 l 1124 886 l 939 886 l 818 1136 z "},"E":{"ha":594,"x_min":85,"x_max":560,"o":"m 85 1125 l 557 1125 l 557 981 l 289 981 l 289 657 l 500 657 l 500 514 l 289 514 l 289 140 l 560 140 l 560 0 l 85 0 l 85 1125 z "},"É":{"ha":594,"x_min":85,"x_max":560,"o":"m 85 1125 l 557 1125 l 557 981 l 289 981 l 289 657 l 500 657 l 500 514 l 289 514 l 289 140 l 560 140 l 560 0 l 85 0 l 85 1125 m 351 1481 l 543 1481 l 378 1203 l 268 1203 l 351 1481 z "},"Ĕ":{"ha":594,"x_min":85,"x_max":560,"o":"m 85 1125 l 557 1125 l 557 981 l 289 981 l 289 657 l 500 657 l 500 514 l 289 514 l 289 140 l 560 140 l 560 0 l 85 0 l 85 1125 m 325 1214 q 176 1268 228 1214 q 125 1417 125 1322 l 232 1417 q 255 1339 233 1364 q 325 1314 276 1314 q 397 1340 375 1314 q 418 1417 418 1365 l 526 1417 q 475 1268 526 1322 q 325 1214 424 1214 z "},"Ě":{"ha":594,"x_min":85,"x_max":560,"o":"m 85 1125 l 557 1125 l 557 981 l 289 981 l 289 657 l 500 657 l 500 514 l 289 514 l 289 140 l 560 140 l 560 0 l 85 0 l 85 1125 m 111 1458 l 250 1458 l 325 1301 l 400 1458 l 539 1458 l 417 1208 l 232 1208 l 111 1458 z "},"Ê":{"ha":594,"x_min":85,"x_max":560,"o":"m 85 1125 l 557 1125 l 557 981 l 289 981 l 289 657 l 500 657 l 500 514 l 289 514 l 289 140 l 560 140 l 560 0 l 85 0 l 85 1125 m 239 1469 l 408 1469 l 536 1214 l 396 1214 l 324 1381 l 253 1214 l 114 1214 l 239 1469 z "},"Ế":{"ha":594,"x_min":85,"x_max":731,"o":"m 85 1125 l 557 1125 l 557 981 l 289 981 l 289 657 l 500 657 l 500 514 l 289 514 l 289 140 l 560 140 l 560 0 l 85 0 l 85 1125 m 581 1533 l 731 1533 l 613 1368 l 507 1368 l 581 1533 m 239 1438 l 408 1438 l 536 1214 l 399 1214 l 324 1354 l 250 1214 l 114 1214 l 239 1438 z "},"Ệ":{"ha":594,"x_min":85,"x_max":560,"o":"m 85 1125 l 557 1125 l 557 981 l 289 981 l 289 657 l 500 657 l 500 514 l 289 514 l 289 140 l 560 140 l 560 0 l 85 0 l 85 1125 m 239 1438 l 408 1438 l 536 1214 l 399 1214 l 324 1354 l 250 1214 l 114 1214 l 239 1438 m 211 -93 l 383 -93 l 383 -267 l 211 -267 l 211 -93 z "},"Ề":{"ha":594,"x_min":85,"x_max":651,"o":"m 85 1125 l 557 1125 l 557 981 l 289 981 l 289 657 l 500 657 l 500 514 l 289 514 l 289 140 l 560 140 l 560 0 l 85 0 l 85 1125 m 428 1533 l 578 1533 l 651 1368 l 544 1368 l 428 1533 m 239 1438 l 408 1438 l 536 1214 l 399 1214 l 324 1354 l 250 1214 l 114 1214 l 239 1438 z "},"Ể":{"ha":594,"x_min":85,"x_max":682,"o":"m 85 1125 l 557 1125 l 557 981 l 289 981 l 289 657 l 500 657 l 500 514 l 289 514 l 289 140 l 560 140 l 560 0 l 85 0 l 85 1125 m 497 1397 q 541 1437 526 1418 q 556 1479 556 1456 q 538 1519 556 1506 q 489 1533 519 1533 q 422 1522 453 1533 l 422 1607 q 531 1625 472 1625 q 640 1592 599 1625 q 682 1496 682 1558 q 648 1401 682 1438 q 553 1335 614 1364 l 497 1397 m 239 1438 l 408 1438 l 536 1214 l 399 1214 l 324 1354 l 250 1214 l 114 1214 l 239 1438 z "},"Ễ":{"ha":594,"x_min":85,"x_max":560,"o":"m 85 1125 l 557 1125 l 557 981 l 289 981 l 289 657 l 500 657 l 500 514 l 289 514 l 289 140 l 560 140 l 560 0 l 85 0 l 85 1125 m 239 1438 l 408 1438 l 536 1214 l 399 1214 l 324 1354 l 250 1214 l 114 1214 l 239 1438 m 433 1506 q 385 1515 407 1506 q 335 1542 363 1524 q 292 1563 310 1556 q 257 1571 275 1571 q 219 1556 231 1571 q 208 1514 208 1542 l 111 1514 q 229 1689 111 1689 q 273 1681 253 1689 q 322 1656 293 1672 q 367 1633 350 1640 q 403 1625 383 1625 q 447 1681 447 1625 l 539 1681 q 517 1553 539 1601 q 433 1506 494 1506 z "},"Ȅ":{"ha":594,"x_min":32,"x_max":560,"o":"m 85 1125 l 557 1125 l 557 981 l 289 981 l 289 657 l 500 657 l 500 514 l 289 514 l 289 140 l 560 140 l 560 0 l 85 0 l 85 1125 m 32 1472 l 194 1472 l 279 1210 l 179 1210 l 32 1472 m 276 1472 l 419 1472 l 489 1210 l 390 1210 l 276 1472 z "},"Ë":{"ha":594,"x_min":85,"x_max":560,"o":"m 85 1125 l 557 1125 l 557 981 l 289 981 l 289 657 l 500 657 l 500 514 l 289 514 l 289 140 l 560 140 l 560 0 l 85 0 l 85 1125 m 106 1447 l 272 1447 l 272 1267 l 106 1267 l 106 1447 m 378 1447 l 544 1447 l 544 1267 l 378 1267 l 378 1447 z "},"Ė":{"ha":594,"x_min":85,"x_max":560,"o":"m 85 1125 l 557 1125 l 557 981 l 289 981 l 289 657 l 500 657 l 500 514 l 289 514 l 289 140 l 560 140 l 560 0 l 85 0 l 85 1125 m 233 1431 l 417 1431 l 417 1240 l 233 1240 l 233 1431 z "},"Ẹ":{"ha":594,"x_min":85,"x_max":560,"o":"m 85 1125 l 557 1125 l 557 981 l 289 981 l 289 657 l 500 657 l 500 514 l 289 514 l 289 140 l 560 140 l 560 0 l 85 0 l 85 1125 m 211 -93 l 383 -93 l 383 -267 l 211 -267 l 211 -93 z "},"È":{"ha":594,"x_min":85,"x_max":560,"o":"m 85 1125 l 557 1125 l 557 981 l 289 981 l 289 657 l 500 657 l 500 514 l 289 514 l 289 140 l 560 140 l 560 0 l 85 0 l 85 1125 m 108 1481 l 300 1481 l 382 1203 l 274 1203 l 108 1481 z "},"Ẻ":{"ha":594,"x_min":85,"x_max":560,"o":"m 85 1125 l 557 1125 l 557 981 l 289 981 l 289 657 l 500 657 l 500 514 l 289 514 l 289 140 l 560 140 l 560 0 l 85 0 l 85 1125 m 264 1264 q 335 1303 313 1285 q 358 1347 358 1321 q 276 1400 358 1400 q 199 1389 235 1400 l 199 1475 q 326 1492 261 1492 q 442 1459 396 1492 q 488 1361 488 1426 q 446 1263 488 1300 q 326 1199 404 1226 l 264 1264 z "},"Ȇ":{"ha":594,"x_min":85,"x_max":560,"o":"m 85 1125 l 557 1125 l 557 981 l 289 981 l 289 657 l 500 657 l 500 514 l 289 514 l 289 140 l 560 140 l 560 0 l 85 0 l 85 1125 m 124 1232 q 325 1446 126 1446 q 477 1390 428 1446 q 526 1232 526 1333 l 418 1232 q 397 1319 418 1293 q 325 1346 375 1346 q 254 1319 275 1346 q 232 1232 233 1293 l 124 1232 z "},"Ē":{"ha":594,"x_min":85,"x_max":560,"o":"m 85 1125 l 557 1125 l 557 981 l 289 981 l 289 657 l 500 657 l 500 514 l 289 514 l 289 140 l 560 140 l 560 0 l 85 0 l 85 1125 m 161 1358 l 489 1358 l 489 1260 l 161 1260 l 161 1358 z "},"Ę":{"ha":594,"x_min":85,"x_max":560,"o":"m 85 1125 l 557 1125 l 557 981 l 289 981 l 289 657 l 500 657 l 500 514 l 289 514 l 289 140 l 560 140 l 560 0 l 85 0 l 85 1125 m 471 -342 q 322 -314 379 -342 q 264 -207 264 -286 q 303 -89 264 -149 q 394 0 343 -29 l 483 0 q 400 -174 400 -101 q 500 -249 400 -249 q 543 -246 518 -249 l 519 -337 q 471 -342 499 -342 z "},"Ẽ":{"ha":594,"x_min":85,"x_max":560,"o":"m 85 1125 l 557 1125 l 557 981 l 289 981 l 289 657 l 500 657 l 500 514 l 289 514 l 289 140 l 560 140 l 560 0 l 85 0 l 85 1125 m 433 1272 q 385 1281 407 1272 q 335 1308 363 1290 q 292 1330 310 1322 q 257 1338 275 1338 q 219 1323 231 1338 q 208 1281 208 1308 l 111 1281 q 229 1456 111 1456 q 273 1447 253 1456 q 322 1422 293 1439 q 367 1399 350 1407 q 403 1392 383 1392 q 447 1447 447 1392 l 539 1447 q 517 1320 539 1368 q 433 1272 494 1272 z "},"F":{"ha":574,"x_min":85,"x_max":547,"o":"m 85 1125 l 547 1125 l 547 983 l 289 983 l 289 656 l 500 656 l 500 513 l 289 513 l 289 0 l 85 0 l 85 1125 z "},"Ḟ":{"ha":574,"x_min":85,"x_max":547,"o":"m 85 1125 l 547 1125 l 547 983 l 289 983 l 289 656 l 500 656 l 500 513 l 289 513 l 289 0 l 85 0 l 85 1125 m 196 1431 l 379 1431 l 379 1240 l 196 1240 l 196 1431 z "},"G":{"ha":776,"x_min":67,"x_max":704,"o":"m 367 -15 q 137 84 207 -15 q 67 371 67 183 l 67 749 q 139 1040 67 942 q 388 1138 211 1138 q 626 1055 554 1138 q 699 810 699 972 l 699 751 l 503 751 l 503 815 q 495 913 503 876 q 463 968 488 949 q 390 988 439 988 q 314 963 339 988 q 281 899 289 938 q 274 797 274 860 l 274 326 q 299 183 274 231 q 396 136 325 136 q 492 186 465 136 q 519 336 519 236 l 519 442 l 399 442 l 399 571 l 704 571 l 704 0 l 571 0 l 557 110 q 367 -15 504 -15 z "},"Ǵ":{"ha":776,"x_min":67,"x_max":704,"o":"m 367 -15 q 137 84 207 -15 q 67 371 67 183 l 67 749 q 139 1040 67 942 q 388 1138 211 1138 q 626 1055 554 1138 q 699 810 699 972 l 699 751 l 503 751 l 503 815 q 495 913 503 876 q 463 968 488 949 q 390 988 439 988 q 314 963 339 988 q 281 899 289 938 q 274 797 274 860 l 274 326 q 299 183 274 231 q 396 136 325 136 q 492 186 465 136 q 519 336 519 236 l 519 442 l 399 442 l 399 571 l 704 571 l 704 0 l 571 0 l 557 110 q 367 -15 504 -15 m 415 1481 l 607 1481 l 442 1203 l 332 1203 l 415 1481 z "},"Ğ":{"ha":776,"x_min":67,"x_max":704,"o":"m 367 -15 q 137 84 207 -15 q 67 371 67 183 l 67 749 q 139 1040 67 942 q 388 1138 211 1138 q 626 1055 554 1138 q 699 810 699 972 l 699 751 l 503 751 l 503 815 q 495 913 503 876 q 463 968 488 949 q 390 988 439 988 q 314 963 339 988 q 281 899 289 938 q 274 797 274 860 l 274 326 q 299 183 274 231 q 396 136 325 136 q 492 186 465 136 q 519 336 519 236 l 519 442 l 399 442 l 399 571 l 704 571 l 704 0 l 571 0 l 557 110 q 367 -15 504 -15 m 389 1214 q 240 1268 292 1214 q 189 1417 189 1322 l 296 1417 q 319 1339 297 1364 q 389 1314 340 1314 q 460 1340 439 1314 q 482 1417 482 1365 l 590 1417 q 539 1268 590 1322 q 389 1214 488 1214 z "},"Ǧ":{"ha":776,"x_min":67,"x_max":704,"o":"m 367 -15 q 137 84 207 -15 q 67 371 67 183 l 67 749 q 139 1040 67 942 q 388 1138 211 1138 q 626 1055 554 1138 q 699 810 699 972 l 699 751 l 503 751 l 503 815 q 495 913 503 876 q 463 968 488 949 q 390 988 439 988 q 314 963 339 988 q 281 899 289 938 q 274 797 274 860 l 274 326 q 299 183 274 231 q 396 136 325 136 q 492 186 465 136 q 519 336 519 236 l 519 442 l 399 442 l 399 571 l 704 571 l 704 0 l 571 0 l 557 110 q 367 -15 504 -15 m 175 1458 l 314 1458 l 389 1301 l 464 1458 l 603 1458 l 481 1208 l 296 1208 l 175 1458 z "},"Ĝ":{"ha":776,"x_min":67,"x_max":704,"o":"m 367 -15 q 137 84 207 -15 q 67 371 67 183 l 67 749 q 139 1040 67 942 q 388 1138 211 1138 q 626 1055 554 1138 q 699 810 699 972 l 699 751 l 503 751 l 503 815 q 495 913 503 876 q 463 968 488 949 q 390 988 439 988 q 314 963 339 988 q 281 899 289 938 q 274 797 274 860 l 274 326 q 299 183 274 231 q 396 136 325 136 q 492 186 465 136 q 519 336 519 236 l 519 442 l 399 442 l 399 571 l 704 571 l 704 0 l 571 0 l 557 110 q 367 -15 504 -15 m 303 1469 l 472 1469 l 600 1214 l 460 1214 l 388 1381 l 317 1214 l 178 1214 l 303 1469 z "},"Ģ":{"ha":776,"x_min":67,"x_max":704,"o":"m 367 -15 q 137 84 207 -15 q 67 371 67 183 l 67 749 q 139 1040 67 942 q 388 1138 211 1138 q 626 1055 554 1138 q 699 810 699 972 l 699 751 l 503 751 l 503 815 q 495 913 503 876 q 463 968 488 949 q 390 988 439 988 q 314 963 339 988 q 281 899 289 938 q 274 797 274 860 l 274 326 q 299 183 274 231 q 396 136 325 136 q 492 186 465 136 q 519 336 519 236 l 519 442 l 399 442 l 399 571 l 704 571 l 704 0 l 571 0 l 557 110 q 367 -15 504 -15 m 307 -375 q 373 -346 350 -369 q 396 -275 396 -322 l 297 -275 l 297 -93 l 481 -93 l 481 -256 q 446 -398 479 -349 q 333 -449 413 -447 l 307 -375 z "},"Ġ":{"ha":776,"x_min":67,"x_max":704,"o":"m 367 -15 q 137 84 207 -15 q 67 371 67 183 l 67 749 q 139 1040 67 942 q 388 1138 211 1138 q 626 1055 554 1138 q 699 810 699 972 l 699 751 l 503 751 l 503 815 q 495 913 503 876 q 463 968 488 949 q 390 988 439 988 q 314 963 339 988 q 281 899 289 938 q 274 797 274 860 l 274 326 q 299 183 274 231 q 396 136 325 136 q 492 186 465 136 q 519 336 519 236 l 519 442 l 399 442 l 399 571 l 704 571 l 704 0 l 571 0 l 557 110 q 367 -15 504 -15 m 297 1431 l 481 1431 l 481 1240 l 297 1240 l 297 1431 z "},"H":{"ha":814,"x_min":88,"x_max":726,"o":"m 88 1125 l 292 1125 l 292 656 l 521 656 l 521 1125 l 726 1125 l 726 0 l 521 0 l 521 508 l 292 508 l 292 0 l 88 0 l 88 1125 z "},"Ħ":{"ha":764,"x_min":1,"x_max":761,"o":"m 69 857 l 1 857 l 1 936 l 69 936 l 69 1125 l 274 1125 l 274 936 l 497 936 l 497 1125 l 703 1125 l 703 936 l 761 936 l 761 857 l 703 857 l 703 0 l 497 0 l 497 508 l 274 508 l 274 0 l 69 0 l 69 857 m 497 656 l 497 857 l 274 857 l 274 656 l 497 656 z "},"Ĥ":{"ha":814,"x_min":88,"x_max":726,"o":"m 88 1125 l 292 1125 l 292 656 l 521 656 l 521 1125 l 726 1125 l 726 0 l 521 0 l 521 508 l 292 508 l 292 0 l 88 0 l 88 1125 m 321 1469 l 490 1469 l 618 1214 l 478 1214 l 406 1381 l 335 1214 l 196 1214 l 321 1469 z "},"I":{"ha":382,"x_min":90,"x_max":293,"o":"m 90 1125 l 293 1125 l 293 0 l 90 0 l 90 1125 z "},"Ĳ":{"ha":835,"x_min":90,"x_max":749,"o":"m 90 1125 l 293 1125 l 293 0 l 90 0 l 90 1125 m 396 117 q 488 126 457 115 q 532 167 519 138 q 544 257 544 197 l 544 1125 l 749 1125 l 749 251 q 725 92 747 153 q 648 2 703 32 q 494 -28 593 -28 l 396 -28 l 396 117 z "},"Í":{"ha":382,"x_min":90,"x_max":410,"o":"m 90 1125 l 293 1125 l 293 0 l 90 0 l 90 1125 m 218 1481 l 410 1481 l 244 1203 l 135 1203 l 218 1481 z "},"Ĭ":{"ha":382,"x_min":-8,"x_max":393,"o":"m 90 1125 l 293 1125 l 293 0 l 90 0 l 90 1125 m 192 1214 q 43 1268 94 1214 q -8 1417 -8 1322 l 99 1417 q 122 1339 100 1364 q 192 1314 143 1314 q 263 1340 242 1314 q 285 1417 285 1365 l 393 1417 q 342 1268 393 1322 q 192 1214 290 1214 z "},"Î":{"ha":382,"x_min":-19,"x_max":403,"o":"m 90 1125 l 293 1125 l 293 0 l 90 0 l 90 1125 m 106 1469 l 275 1469 l 403 1214 l 263 1214 l 190 1381 l 119 1214 l -19 1214 l 106 1469 z "},"Ȉ":{"ha":382,"x_min":-101,"x_max":356,"o":"m 90 1125 l 293 1125 l 293 0 l 90 0 l 90 1125 m -101 1472 l 61 1472 l 146 1210 l 46 1210 l -101 1472 m 143 1472 l 286 1472 l 356 1210 l 257 1210 l 143 1472 z "},"Ï":{"ha":382,"x_min":-28,"x_max":411,"o":"m 90 1125 l 293 1125 l 293 0 l 90 0 l 90 1125 m -28 1447 l 139 1447 l 139 1267 l -28 1267 l -28 1447 m 244 1447 l 411 1447 l 411 1267 l 244 1267 l 244 1447 z "},"İ":{"ha":382,"x_min":90,"x_max":293,"o":"m 90 1125 l 293 1125 l 293 0 l 90 0 l 90 1125 m 100 1431 l 283 1431 l 283 1240 l 100 1240 l 100 1431 z "},"Ị":{"ha":382,"x_min":90,"x_max":293,"o":"m 90 1125 l 293 1125 l 293 0 l 90 0 l 90 1125 m 106 -93 l 278 -93 l 278 -267 l 106 -267 l 106 -93 z "},"Ì":{"ha":382,"x_min":-25,"x_max":293,"o":"m 90 1125 l 293 1125 l 293 0 l 90 0 l 90 1125 m -25 1481 l 167 1481 l 249 1203 l 140 1203 l -25 1481 z "},"Ỉ":{"ha":382,"x_min":65,"x_max":354,"o":"m 90 1125 l 293 1125 l 293 0 l 90 0 l 90 1125 m 131 1264 q 202 1303 179 1285 q 225 1347 225 1321 q 143 1400 225 1400 q 65 1389 101 1400 l 65 1475 q 193 1492 128 1492 q 308 1459 263 1492 q 354 1361 354 1426 q 313 1263 354 1300 q 193 1199 271 1226 l 131 1264 z "},"Ȋ":{"ha":382,"x_min":-10,"x_max":393,"o":"m 90 1125 l 293 1125 l 293 0 l 90 0 l 90 1125 m -10 1232 q 192 1446 -7 1446 q 344 1390 294 1446 q 393 1232 393 1333 l 285 1232 q 263 1319 285 1293 q 192 1346 242 1346 q 121 1319 142 1346 q 99 1232 100 1293 l -10 1232 z "},"Ī":{"ha":382,"x_min":28,"x_max":356,"o":"m 90 1125 l 293 1125 l 293 0 l 90 0 l 90 1125 m 28 1358 l 356 1358 l 356 1260 l 28 1260 l 28 1358 z "},"Į":{"ha":382,"x_min":18,"x_max":297,"o":"m 90 1125 l 293 1125 l 293 0 l 90 0 l 90 1125 m 225 -342 q 76 -314 133 -342 q 18 -207 18 -286 q 58 -89 18 -149 q 149 0 97 -29 l 238 0 q 154 -174 154 -101 q 254 -249 154 -249 q 297 -246 272 -249 l 274 -337 q 225 -342 253 -342 z "},"Ĩ":{"ha":382,"x_min":-22,"x_max":406,"o":"m 90 1125 l 293 1125 l 293 0 l 90 0 l 90 1125 m 300 1272 q 251 1281 274 1272 q 201 1308 229 1290 q 159 1330 176 1322 q 124 1338 142 1338 q 86 1323 97 1338 q 75 1281 75 1308 l -22 1281 q 96 1456 -22 1456 q 140 1447 119 1456 q 189 1422 160 1439 q 233 1399 217 1407 q 269 1392 250 1392 q 314 1447 314 1392 l 406 1447 q 383 1320 406 1368 q 300 1272 361 1272 z "},"J":{"ha":453,"x_min":14,"x_max":367,"o":"m 14 117 q 106 126 75 115 q 150 167 138 138 q 163 257 163 197 l 163 1125 l 367 1125 l 367 251 q 343 92 365 153 q 266 2 321 32 q 113 -28 211 -28 l 14 -28 l 14 117 z "},"Ĵ":{"ha":453,"x_min":14,"x_max":476,"o":"m 14 117 q 106 126 75 115 q 150 167 138 138 q 163 257 163 197 l 163 1125 l 367 1125 l 367 251 q 343 92 365 153 q 266 2 321 32 q 113 -28 211 -28 l 14 -28 l 14 117 m 179 1469 l 349 1469 l 476 1214 l 336 1214 l 264 1381 l 193 1214 l 54 1214 l 179 1469 z "},"K":{"ha":739,"x_min":85,"x_max":731,"o":"m 85 1125 l 289 1125 l 289 631 l 513 1125 l 708 1125 l 493 624 l 731 0 l 526 0 l 339 511 l 289 426 l 289 0 l 85 0 l 85 1125 z "},"Ķ":{"ha":739,"x_min":85,"x_max":731,"o":"m 85 1125 l 289 1125 l 289 631 l 513 1125 l 708 1125 l 493 624 l 731 0 l 526 0 l 339 511 l 289 426 l 289 0 l 85 0 l 85 1125 m 288 -375 q 353 -346 331 -369 q 376 -275 376 -322 l 278 -275 l 278 -93 l 461 -93 l 461 -256 q 426 -398 460 -349 q 314 -449 393 -447 l 288 -375 z "},"L":{"ha":585,"x_min":85,"x_max":563,"o":"m 85 1125 l 289 1125 l 289 140 l 563 140 l 563 0 l 85 0 l 85 1125 z "},"Ǉ":{"ha":1038,"x_min":85,"x_max":951,"o":"m 85 1125 l 289 1125 l 289 140 l 563 140 l 563 0 l 85 0 l 85 1125 m 599 117 q 691 126 660 115 q 735 167 722 138 q 747 257 747 197 l 747 1125 l 951 1125 l 951 251 q 928 92 950 153 q 851 2 906 32 q 697 -28 796 -28 l 599 -28 l 599 117 z "},"Ĺ":{"ha":585,"x_min":85,"x_max":563,"o":"m 85 1125 l 289 1125 l 289 140 l 563 140 l 563 0 l 85 0 l 85 1125 m 214 1481 l 406 1481 l 240 1203 l 131 1203 l 214 1481 z "},"Ľ":{"ha":585,"x_min":85,"x_max":583,"o":"m 85 1125 l 289 1125 l 289 140 l 563 140 l 563 0 l 85 0 l 85 1125 m 408 818 q 474 859 449 829 q 499 938 499 889 l 399 938 l 399 1125 l 583 1125 l 583 954 q 544 815 583 865 q 426 750 506 765 l 408 818 z "},"Ļ":{"ha":585,"x_min":85,"x_max":563,"o":"m 85 1125 l 289 1125 l 289 140 l 563 140 l 563 0 l 85 0 l 85 1125 m 242 -375 q 308 -346 285 -369 q 331 -275 331 -322 l 232 -275 l 232 -93 l 415 -93 l 415 -256 q 381 -398 414 -349 q 268 -449 347 -447 l 242 -375 z "},"Ŀ":{"ha":585,"x_min":85,"x_max":563,"o":"m 85 1125 l 289 1125 l 289 140 l 563 140 l 563 0 l 85 0 l 85 1125 m 414 710 l 546 710 l 546 528 l 414 528 l 414 710 z "},"ǈ":{"ha":938,"x_min":85,"x_max":867,"o":"m 85 1125 l 289 1125 l 289 140 l 563 140 l 563 0 l 85 0 l 85 1125 m 676 1088 l 867 1088 l 867 931 l 676 931 l 676 1088 m 665 -228 q 565 -212 606 -228 l 565 -78 q 606 -82 599 -82 q 678 0 678 -82 l 678 803 l 865 803 l 865 -22 q 813 -173 865 -118 q 665 -228 761 -228 z "},"Ł":{"ha":590,"x_min":1,"x_max":568,"o":"m 90 510 l 1 464 l 1 593 l 90 639 l 90 1125 l 294 1125 l 294 742 l 436 814 l 436 686 l 294 613 l 294 140 l 568 140 l 568 0 l 90 0 l 90 510 z "},"M":{"ha":949,"x_min":82,"x_max":867,"o":"m 101 1125 l 314 1125 l 474 346 l 639 1125 l 846 1125 l 867 0 l 714 0 l 697 782 l 538 0 l 414 0 l 251 785 l 236 0 l 82 0 l 101 1125 z "},"Ṁ":{"ha":949,"x_min":82,"x_max":867,"o":"m 101 1125 l 314 1125 l 474 346 l 639 1125 l 846 1125 l 867 0 l 714 0 l 697 782 l 538 0 l 414 0 l 251 785 l 236 0 l 82 0 l 101 1125 m 383 1431 l 567 1431 l 567 1240 l 383 1240 l 383 1431 z "},"N":{"ha":757,"x_min":85,"x_max":671,"o":"m 85 1125 l 228 1125 l 501 483 l 501 1125 l 671 1125 l 671 0 l 535 0 l 260 672 l 260 0 l 85 0 l 85 1125 z "},"Ǌ":{"ha":1210,"x_min":85,"x_max":1124,"o":"m 85 1125 l 228 1125 l 501 483 l 501 1125 l 671 1125 l 671 0 l 535 0 l 260 672 l 260 0 l 85 0 l 85 1125 m 771 117 q 863 126 832 115 q 907 167 894 138 q 919 257 919 197 l 919 1125 l 1124 1125 l 1124 251 q 1100 92 1122 153 q 1023 2 1078 32 q 869 -28 968 -28 l 771 -28 l 771 117 z "},"Ń":{"ha":757,"x_min":85,"x_max":671,"o":"m 85 1125 l 228 1125 l 501 483 l 501 1125 l 671 1125 l 671 0 l 535 0 l 260 672 l 260 0 l 85 0 l 85 1125 m 404 1481 l 596 1481 l 431 1203 l 321 1203 l 404 1481 z "},"Ň":{"ha":757,"x_min":85,"x_max":671,"o":"m 85 1125 l 228 1125 l 501 483 l 501 1125 l 671 1125 l 671 0 l 535 0 l 260 672 l 260 0 l 85 0 l 85 1125 m 164 1458 l 303 1458 l 378 1301 l 453 1458 l 592 1458 l 469 1208 l 285 1208 l 164 1458 z "},"Ņ":{"ha":757,"x_min":85,"x_max":671,"o":"m 85 1125 l 228 1125 l 501 483 l 501 1125 l 671 1125 l 671 0 l 535 0 l 260 672 l 260 0 l 85 0 l 85 1125 m 296 -375 q 362 -346 339 -369 q 385 -275 385 -322 l 286 -275 l 286 -93 l 469 -93 l 469 -256 q 435 -398 468 -349 q 322 -449 401 -447 l 296 -375 z "},"Ŋ":{"ha":764,"x_min":88,"x_max":674,"o":"m 356 -144 q 456 -133 422 -146 q 501 -90 489 -119 q 514 -4 514 -61 l 514 83 l 257 672 l 257 0 l 88 0 l 88 1125 l 231 1125 l 508 483 l 508 1125 l 674 1125 l 674 0 q 653 -154 674 -96 q 581 -242 633 -212 q 433 -272 528 -272 l 356 -272 l 356 -144 z "},"ǋ":{"ha":1110,"x_min":85,"x_max":1039,"o":"m 85 1125 l 228 1125 l 501 483 l 501 1125 l 671 1125 l 671 0 l 535 0 l 260 672 l 260 0 l 85 0 l 85 1125 m 849 1088 l 1039 1088 l 1039 931 l 849 931 l 849 1088 m 838 -228 q 738 -212 778 -228 l 738 -78 q 778 -82 771 -82 q 850 0 850 -82 l 850 803 l 1038 803 l 1038 -22 q 985 -173 1038 -118 q 838 -228 933 -228 z "},"Ñ":{"ha":757,"x_min":85,"x_max":671,"o":"m 85 1125 l 228 1125 l 501 483 l 501 1125 l 671 1125 l 671 0 l 535 0 l 260 672 l 260 0 l 85 0 l 85 1125 m 486 1272 q 438 1281 460 1272 q 388 1308 415 1290 q 345 1330 363 1322 q 310 1338 328 1338 q 272 1323 283 1338 q 261 1281 261 1308 l 164 1281 q 282 1456 164 1456 q 326 1447 306 1456 q 375 1422 346 1439 q 419 1399 403 1407 q 456 1392 436 1392 q 500 1447 500 1392 l 592 1447 q 569 1320 592 1368 q 486 1272 547 1272 z "},"O":{"ha":782,"x_min":67,"x_max":715,"o":"m 392 -15 q 142 78 217 -15 q 67 353 67 172 l 67 775 q 142 1046 67 954 q 392 1138 217 1138 q 640 1046 565 1138 q 715 775 715 954 l 715 353 q 640 79 715 174 q 392 -15 564 -15 m 392 136 q 483 179 460 136 q 507 304 507 222 l 507 822 q 484 946 507 904 q 392 988 461 988 q 299 945 322 988 q 275 822 275 903 l 275 304 q 299 179 275 222 q 392 136 322 136 z "},"Ó":{"ha":782,"x_min":67,"x_max":715,"o":"m 392 -15 q 142 78 217 -15 q 67 353 67 172 l 67 775 q 142 1046 67 954 q 392 1138 217 1138 q 640 1046 565 1138 q 715 775 715 954 l 715 353 q 640 79 715 174 q 392 -15 564 -15 m 392 136 q 483 179 460 136 q 507 304 507 222 l 507 822 q 484 946 507 904 q 392 988 461 988 q 299 945 322 988 q 275 822 275 903 l 275 304 q 299 179 275 222 q 392 136 322 136 m 418 1481 l 610 1481 l 444 1203 l 335 1203 l 418 1481 z "},"Ŏ":{"ha":782,"x_min":67,"x_max":715,"o":"m 392 -15 q 142 78 217 -15 q 67 353 67 172 l 67 775 q 142 1046 67 954 q 392 1138 217 1138 q 640 1046 565 1138 q 715 775 715 954 l 715 353 q 640 79 715 174 q 392 -15 564 -15 m 392 136 q 483 179 460 136 q 507 304 507 222 l 507 822 q 484 946 507 904 q 392 988 461 988 q 299 945 322 988 q 275 822 275 903 l 275 304 q 299 179 275 222 q 392 136 322 136 m 392 1214 q 243 1268 294 1214 q 192 1417 192 1322 l 299 1417 q 322 1339 300 1364 q 392 1314 343 1314 q 463 1340 442 1314 q 485 1417 485 1365 l 593 1417 q 542 1268 593 1322 q 392 1214 490 1214 z "},"Ô":{"ha":782,"x_min":67,"x_max":715,"o":"m 392 -15 q 142 78 217 -15 q 67 353 67 172 l 67 775 q 142 1046 67 954 q 392 1138 217 1138 q 640 1046 565 1138 q 715 775 715 954 l 715 353 q 640 79 715 174 q 392 -15 564 -15 m 392 136 q 483 179 460 136 q 507 304 507 222 l 507 822 q 484 946 507 904 q 392 988 461 988 q 299 945 322 988 q 275 822 275 903 l 275 304 q 299 179 275 222 q 392 136 322 136 m 306 1469 l 475 1469 l 603 1214 l 463 1214 l 390 1381 l 319 1214 l 181 1214 l 306 1469 z "},"Ố":{"ha":782,"x_min":67,"x_max":797,"o":"m 392 -15 q 142 78 217 -15 q 67 353 67 172 l 67 775 q 142 1046 67 954 q 392 1138 217 1138 q 640 1046 565 1138 q 715 775 715 954 l 715 353 q 640 79 715 174 q 392 -15 564 -15 m 392 136 q 483 179 460 136 q 507 304 507 222 l 507 822 q 484 946 507 904 q 392 988 461 988 q 299 945 322 988 q 275 822 275 903 l 275 304 q 299 179 275 222 q 392 136 322 136 m 647 1533 l 797 1533 l 679 1368 l 574 1368 l 647 1533 m 306 1438 l 475 1438 l 603 1214 l 465 1214 l 390 1354 l 317 1214 l 181 1214 l 306 1438 z "},"Ộ":{"ha":782,"x_min":67,"x_max":715,"o":"m 392 -15 q 142 78 217 -15 q 67 353 67 172 l 67 775 q 142 1046 67 954 q 392 1138 217 1138 q 640 1046 565 1138 q 715 775 715 954 l 715 353 q 640 79 715 174 q 392 -15 564 -15 m 392 136 q 483 179 460 136 q 507 304 507 222 l 507 822 q 484 946 507 904 q 392 988 461 988 q 299 945 322 988 q 275 822 275 903 l 275 304 q 299 179 275 222 q 392 136 322 136 m 306 1438 l 475 1438 l 603 1214 l 465 1214 l 390 1354 l 317 1214 l 181 1214 l 306 1438 m 306 -93 l 478 -93 l 478 -267 l 306 -267 l 306 -93 z "},"Ồ":{"ha":782,"x_min":67,"x_max":718,"o":"m 392 -15 q 142 78 217 -15 q 67 353 67 172 l 67 775 q 142 1046 67 954 q 392 1138 217 1138 q 640 1046 565 1138 q 715 775 715 954 l 715 353 q 640 79 715 174 q 392 -15 564 -15 m 392 136 q 483 179 460 136 q 507 304 507 222 l 507 822 q 484 946 507 904 q 392 988 461 988 q 299 945 322 988 q 275 822 275 903 l 275 304 q 299 179 275 222 q 392 136 322 136 m 494 1533 l 644 1533 l 718 1368 l 611 1368 l 494 1533 m 306 1438 l 475 1438 l 603 1214 l 465 1214 l 390 1354 l 317 1214 l 181 1214 l 306 1438 z "},"Ổ":{"ha":782,"x_min":67,"x_max":749,"o":"m 392 -15 q 142 78 217 -15 q 67 353 67 172 l 67 775 q 142 1046 67 954 q 392 1138 217 1138 q 640 1046 565 1138 q 715 775 715 954 l 715 353 q 640 79 715 174 q 392 -15 564 -15 m 392 136 q 483 179 460 136 q 507 304 507 222 l 507 822 q 484 946 507 904 q 392 988 461 988 q 299 945 322 988 q 275 822 275 903 l 275 304 q 299 179 275 222 q 392 136 322 136 m 564 1397 q 608 1437 593 1418 q 622 1479 622 1456 q 604 1519 622 1506 q 556 1533 586 1533 q 489 1522 519 1533 l 489 1607 q 597 1625 539 1625 q 707 1592 665 1625 q 749 1496 749 1558 q 715 1401 749 1438 q 619 1335 681 1364 l 564 1397 m 306 1438 l 475 1438 l 603 1214 l 465 1214 l 390 1354 l 317 1214 l 181 1214 l 306 1438 z "},"Ỗ":{"ha":782,"x_min":67,"x_max":715,"o":"m 392 -15 q 142 78 217 -15 q 67 353 67 172 l 67 775 q 142 1046 67 954 q 392 1138 217 1138 q 640 1046 565 1138 q 715 775 715 954 l 715 353 q 640 79 715 174 q 392 -15 564 -15 m 392 136 q 483 179 460 136 q 507 304 507 222 l 507 822 q 484 946 507 904 q 392 988 461 988 q 299 945 322 988 q 275 822 275 903 l 275 304 q 299 179 275 222 q 392 136 322 136 m 306 1438 l 475 1438 l 603 1214 l 465 1214 l 390 1354 l 317 1214 l 181 1214 l 306 1438 m 500 1506 q 451 1515 474 1506 q 401 1542 429 1524 q 359 1563 376 1556 q 324 1571 342 1571 q 286 1556 297 1571 q 275 1514 275 1542 l 178 1514 q 296 1689 178 1689 q 340 1681 319 1689 q 389 1656 360 1672 q 433 1633 417 1640 q 469 1625 450 1625 q 514 1681 514 1625 l 606 1681 q 583 1553 606 1601 q 500 1506 561 1506 z "},"Ȍ":{"ha":782,"x_min":67,"x_max":715,"o":"m 392 -15 q 142 78 217 -15 q 67 353 67 172 l 67 775 q 142 1046 67 954 q 392 1138 217 1138 q 640 1046 565 1138 q 715 775 715 954 l 715 353 q 640 79 715 174 q 392 -15 564 -15 m 392 136 q 483 179 460 136 q 507 304 507 222 l 507 822 q 484 946 507 904 q 392 988 461 988 q 299 945 322 988 q 275 822 275 903 l 275 304 q 299 179 275 222 q 392 136 322 136 m 99 1472 l 261 1472 l 346 1210 l 246 1210 l 99 1472 m 343 1472 l 486 1472 l 556 1210 l 457 1210 l 343 1472 z "},"Ö":{"ha":782,"x_min":67,"x_max":715,"o":"m 392 -15 q 142 78 217 -15 q 67 353 67 172 l 67 775 q 142 1046 67 954 q 392 1138 217 1138 q 640 1046 565 1138 q 715 775 715 954 l 715 353 q 640 79 715 174 q 392 -15 564 -15 m 392 136 q 483 179 460 136 q 507 304 507 222 l 507 822 q 484 946 507 904 q 392 988 461 988 q 299 945 322 988 q 275 822 275 903 l 275 304 q 299 179 275 222 q 392 136 322 136 m 172 1447 l 339 1447 l 339 1267 l 172 1267 l 172 1447 m 444 1447 l 611 1447 l 611 1267 l 444 1267 l 444 1447 z "},"Ȫ":{"ha":782,"x_min":67,"x_max":715,"o":"m 392 -15 q 142 78 217 -15 q 67 353 67 172 l 67 775 q 142 1046 67 954 q 392 1138 217 1138 q 640 1046 565 1138 q 715 775 715 954 l 715 353 q 640 79 715 174 q 392 -15 564 -15 m 392 136 q 483 179 460 136 q 507 304 507 222 l 507 822 q 484 946 507 904 q 392 988 461 988 q 299 945 322 988 q 275 822 275 903 l 275 304 q 299 179 275 222 q 392 136 322 136 m 172 1447 l 339 1447 l 339 1267 l 172 1267 l 172 1447 m 444 1447 l 611 1447 l 611 1267 l 444 1267 l 444 1447 m 228 1681 l 556 1681 l 556 1582 l 228 1582 l 228 1681 z "},"Ȱ":{"ha":782,"x_min":67,"x_max":715,"o":"m 392 -15 q 142 78 217 -15 q 67 353 67 172 l 67 775 q 142 1046 67 954 q 392 1138 217 1138 q 640 1046 565 1138 q 715 775 715 954 l 715 353 q 640 79 715 174 q 392 -15 564 -15 m 392 136 q 483 179 460 136 q 507 304 507 222 l 507 822 q 484 946 507 904 q 392 988 461 988 q 299 945 322 988 q 275 822 275 903 l 275 304 q 299 179 275 222 q 392 136 322 136 m 300 1431 l 483 1431 l 483 1240 l 300 1240 l 300 1431 m 228 1664 l 556 1664 l 556 1565 l 228 1565 l 228 1664 z "},"Ọ":{"ha":782,"x_min":67,"x_max":715,"o":"m 392 -15 q 142 78 217 -15 q 67 353 67 172 l 67 775 q 142 1046 67 954 q 392 1138 217 1138 q 640 1046 565 1138 q 715 775 715 954 l 715 353 q 640 79 715 174 q 392 -15 564 -15 m 392 136 q 483 179 460 136 q 507 304 507 222 l 507 822 q 484 946 507 904 q 392 988 461 988 q 299 945 322 988 q 275 822 275 903 l 275 304 q 299 179 275 222 q 392 136 322 136 m 306 -93 l 478 -93 l 478 -267 l 306 -267 l 306 -93 z "},"Ò":{"ha":782,"x_min":67,"x_max":715,"o":"m 392 -15 q 142 78 217 -15 q 67 353 67 172 l 67 775 q 142 1046 67 954 q 392 1138 217 1138 q 640 1046 565 1138 q 715 775 715 954 l 715 353 q 640 79 715 174 q 392 -15 564 -15 m 392 136 q 483 179 460 136 q 507 304 507 222 l 507 822 q 484 946 507 904 q 392 988 461 988 q 299 945 322 988 q 275 822 275 903 l 275 304 q 299 179 275 222 q 392 136 322 136 m 175 1481 l 367 1481 l 449 1203 l 340 1203 l 175 1481 z "},"Ỏ":{"ha":782,"x_min":67,"x_max":715,"o":"m 392 -15 q 142 78 217 -15 q 67 353 67 172 l 67 775 q 142 1046 67 954 q 392 1138 217 1138 q 640 1046 565 1138 q 715 775 715 954 l 715 353 q 640 79 715 174 q 392 -15 564 -15 m 392 136 q 483 179 460 136 q 507 304 507 222 l 507 822 q 484 946 507 904 q 392 988 461 988 q 299 945 322 988 q 275 822 275 903 l 275 304 q 299 179 275 222 q 392 136 322 136 m 331 1264 q 402 1303 379 1285 q 425 1347 425 1321 q 343 1400 425 1400 q 265 1389 301 1400 l 265 1475 q 393 1492 328 1492 q 508 1459 463 1492 q 554 1361 554 1426 q 513 1263 554 1300 q 393 1199 471 1226 l 331 1264 z "},"Ơ":{"ha":782,"x_min":67,"x_max":715,"o":"m 615 1071 q 692 953 668 1026 q 715 775 715 879 l 715 353 q 640 79 715 174 q 392 -15 564 -15 q 142 78 217 -15 q 67 353 67 172 l 67 775 q 142 1046 67 954 q 392 1138 217 1138 q 501 1126 450 1138 q 547 1157 533 1131 q 561 1236 561 1183 l 699 1236 q 615 1071 699 1119 m 507 822 q 484 946 507 904 q 392 988 461 988 q 299 945 322 988 q 275 822 275 903 l 275 304 q 299 179 275 222 q 392 136 322 136 q 483 179 460 136 q 507 304 507 222 l 507 822 z "},"Ớ":{"ha":782,"x_min":67,"x_max":715,"o":"m 615 1071 q 692 953 668 1026 q 715 775 715 879 l 715 353 q 640 79 715 174 q 392 -15 564 -15 q 142 78 217 -15 q 67 353 67 172 l 67 775 q 142 1046 67 954 q 392 1138 217 1138 q 501 1126 450 1138 q 547 1157 533 1131 q 561 1236 561 1183 l 699 1236 q 615 1071 699 1119 m 507 822 q 484 946 507 904 q 392 988 461 988 q 299 945 322 988 q 275 822 275 903 l 275 304 q 299 179 275 222 q 392 136 322 136 q 483 179 460 136 q 507 304 507 222 l 507 822 m 418 1481 l 610 1481 l 444 1203 l 335 1203 l 418 1481 z "},"Ợ":{"ha":782,"x_min":67,"x_max":715,"o":"m 615 1071 q 692 953 668 1026 q 715 775 715 879 l 715 353 q 640 79 715 174 q 392 -15 564 -15 q 142 78 217 -15 q 67 353 67 172 l 67 775 q 142 1046 67 954 q 392 1138 217 1138 q 501 1126 450 1138 q 547 1157 533 1131 q 561 1236 561 1183 l 699 1236 q 615 1071 699 1119 m 507 822 q 484 946 507 904 q 392 988 461 988 q 299 945 322 988 q 275 822 275 903 l 275 304 q 299 179 275 222 q 392 136 322 136 q 483 179 460 136 q 507 304 507 222 l 507 822 m 306 -93 l 478 -93 l 478 -267 l 306 -267 l 306 -93 z "},"Ờ":{"ha":782,"x_min":67,"x_max":715,"o":"m 615 1071 q 692 953 668 1026 q 715 775 715 879 l 715 353 q 640 79 715 174 q 392 -15 564 -15 q 142 78 217 -15 q 67 353 67 172 l 67 775 q 142 1046 67 954 q 392 1138 217 1138 q 501 1126 450 1138 q 547 1157 533 1131 q 561 1236 561 1183 l 699 1236 q 615 1071 699 1119 m 507 822 q 484 946 507 904 q 392 988 461 988 q 299 945 322 988 q 275 822 275 903 l 275 304 q 299 179 275 222 q 392 136 322 136 q 483 179 460 136 q 507 304 507 222 l 507 822 m 175 1481 l 367 1481 l 449 1203 l 340 1203 l 175 1481 z "},"Ở":{"ha":782,"x_min":67,"x_max":715,"o":"m 615 1071 q 692 953 668 1026 q 715 775 715 879 l 715 353 q 640 79 715 174 q 392 -15 564 -15 q 142 78 217 -15 q 67 353 67 172 l 67 775 q 142 1046 67 954 q 392 1138 217 1138 q 501 1126 450 1138 q 547 1157 533 1131 q 561 1236 561 1183 l 699 1236 q 615 1071 699 1119 m 507 822 q 484 946 507 904 q 392 988 461 988 q 299 945 322 988 q 275 822 275 903 l 275 304 q 299 179 275 222 q 392 136 322 136 q 483 179 460 136 q 507 304 507 222 l 507 822 m 331 1264 q 402 1303 379 1285 q 425 1347 425 1321 q 343 1400 425 1400 q 265 1389 301 1400 l 265 1475 q 393 1492 328 1492 q 508 1459 463 1492 q 554 1361 554 1426 q 513 1263 554 1300 q 393 1199 471 1226 l 331 1264 z "},"Ỡ":{"ha":782,"x_min":67,"x_max":715,"o":"m 615 1071 q 692 953 668 1026 q 715 775 715 879 l 715 353 q 640 79 715 174 q 392 -15 564 -15 q 142 78 217 -15 q 67 353 67 172 l 67 775 q 142 1046 67 954 q 392 1138 217 1138 q 501 1126 450 1138 q 547 1157 533 1131 q 561 1236 561 1183 l 699 1236 q 615 1071 699 1119 m 507 822 q 484 946 507 904 q 392 988 461 988 q 299 945 322 988 q 275 822 275 903 l 275 304 q 299 179 275 222 q 392 136 322 136 q 483 179 460 136 q 507 304 507 222 l 507 822 m 500 1272 q 451 1281 474 1272 q 401 1308 429 1290 q 359 1330 376 1322 q 324 1338 342 1338 q 286 1323 297 1338 q 275 1281 275 1308 l 178 1281 q 296 1456 178 1456 q 340 1447 319 1456 q 389 1422 360 1439 q 433 1399 417 1407 q 469 1392 450 1392 q 514 1447 514 1392 l 606 1447 q 583 1320 606 1368 q 500 1272 561 1272 z "},"Ő":{"ha":782,"x_min":67,"x_max":715,"o":"m 392 -15 q 142 78 217 -15 q 67 353 67 172 l 67 775 q 142 1046 67 954 q 392 1138 217 1138 q 640 1046 565 1138 q 715 775 715 954 l 715 353 q 640 79 715 174 q 392 -15 564 -15 m 392 136 q 483 179 460 136 q 507 304 507 222 l 507 822 q 484 946 507 904 q 392 988 461 988 q 299 945 322 988 q 275 822 275 903 l 275 304 q 299 179 275 222 q 392 136 322 136 m 306 1476 l 460 1476 l 333 1206 l 236 1206 l 306 1476 m 533 1476 l 707 1476 l 546 1206 l 449 1206 l 533 1476 z "},"Ȏ":{"ha":782,"x_min":67,"x_max":715,"o":"m 392 -15 q 142 78 217 -15 q 67 353 67 172 l 67 775 q 142 1046 67 954 q 392 1138 217 1138 q 640 1046 565 1138 q 715 775 715 954 l 715 353 q 640 79 715 174 q 392 -15 564 -15 m 392 136 q 483 179 460 136 q 507 304 507 222 l 507 822 q 484 946 507 904 q 392 988 461 988 q 299 945 322 988 q 275 822 275 903 l 275 304 q 299 179 275 222 q 392 136 322 136 m 190 1232 q 392 1446 193 1446 q 544 1390 494 1446 q 593 1232 593 1333 l 485 1232 q 463 1319 485 1293 q 392 1346 442 1346 q 321 1319 342 1346 q 299 1232 300 1293 l 190 1232 z "},"Ō":{"ha":782,"x_min":67,"x_max":715,"o":"m 392 -15 q 142 78 217 -15 q 67 353 67 172 l 67 775 q 142 1046 67 954 q 392 1138 217 1138 q 640 1046 565 1138 q 715 775 715 954 l 715 353 q 640 79 715 174 q 392 -15 564 -15 m 392 136 q 483 179 460 136 q 507 304 507 222 l 507 822 q 484 946 507 904 q 392 988 461 988 q 299 945 322 988 q 275 822 275 903 l 275 304 q 299 179 275 222 q 392 136 322 136 m 228 1358 l 556 1358 l 556 1260 l 228 1260 l 228 1358 z "},"Ǫ":{"ha":782,"x_min":67,"x_max":715,"o":"m 392 1138 q 640 1046 565 1138 q 715 775 715 954 l 715 353 q 659 106 715 197 q 475 -8 603 14 q 399 -174 399 -104 q 499 -249 399 -249 q 542 -246 517 -249 l 518 -337 q 469 -342 497 -342 q 320 -314 378 -342 q 263 -207 263 -286 q 294 -102 263 -156 q 371 -15 326 -49 q 138 84 208 -10 q 67 353 67 178 l 67 775 q 142 1046 67 954 q 392 1138 217 1138 m 507 822 q 484 946 507 904 q 392 988 461 988 q 299 945 322 988 q 275 822 275 903 l 275 304 q 299 179 275 222 q 392 136 322 136 q 483 179 460 136 q 507 304 507 222 l 507 822 z "},"Ø":{"ha":772,"x_min":67,"x_max":715,"o":"m 583 1093 q 684 972 653 1051 q 715 775 715 893 l 715 353 q 640 79 715 174 q 392 -15 564 -15 q 233 13 300 -15 l 193 -114 l 139 -94 l 182 40 q 94 163 121 85 q 67 353 67 242 l 67 775 q 142 1046 67 954 q 392 1138 217 1138 q 531 1118 469 1138 l 565 1225 l 621 1208 l 583 1093 m 275 326 l 478 954 q 392 988 449 988 q 299 945 322 988 q 275 822 275 903 l 275 326 m 507 822 q 506 854 507 844 l 292 192 q 392 136 318 136 q 483 179 460 136 q 507 304 507 222 l 507 822 z "},"Ǿ":{"ha":772,"x_min":67,"x_max":715,"o":"m 583 1093 q 684 972 653 1051 q 715 775 715 893 l 715 353 q 640 79 715 174 q 392 -15 564 -15 q 233 13 300 -15 l 193 -114 l 139 -94 l 182 40 q 94 163 121 85 q 67 353 67 242 l 67 775 q 142 1046 67 954 q 392 1138 217 1138 q 531 1118 469 1138 l 565 1225 l 621 1208 l 583 1093 m 275 326 l 478 954 q 392 988 449 988 q 299 945 322 988 q 275 822 275 903 l 275 326 m 507 822 q 506 854 507 844 l 292 192 q 392 136 318 136 q 483 179 460 136 q 507 304 507 222 l 507 822 m 413 1481 l 604 1481 l 439 1203 l 329 1203 l 413 1481 z "},"Õ":{"ha":782,"x_min":67,"x_max":715,"o":"m 392 -15 q 142 78 217 -15 q 67 353 67 172 l 67 775 q 142 1046 67 954 q 392 1138 217 1138 q 640 1046 565 1138 q 715 775 715 954 l 715 353 q 640 79 715 174 q 392 -15 564 -15 m 392 136 q 483 179 460 136 q 507 304 507 222 l 507 822 q 484 946 507 904 q 392 988 461 988 q 299 945 322 988 q 275 822 275 903 l 275 304 q 299 179 275 222 q 392 136 322 136 m 500 1272 q 451 1281 474 1272 q 401 1308 429 1290 q 359 1330 376 1322 q 324 1338 342 1338 q 286 1323 297 1338 q 275 1281 275 1308 l 178 1281 q 296 1456 178 1456 q 340 1447 319 1456 q 389 1422 360 1439 q 433 1399 417 1407 q 469 1392 450 1392 q 514 1447 514 1392 l 606 1447 q 583 1320 606 1368 q 500 1272 561 1272 z "},"Ȭ":{"ha":782,"x_min":67,"x_max":715,"o":"m 392 -15 q 142 78 217 -15 q 67 353 67 172 l 67 775 q 142 1046 67 954 q 392 1138 217 1138 q 640 1046 565 1138 q 715 775 715 954 l 715 353 q 640 79 715 174 q 392 -15 564 -15 m 392 136 q 483 179 460 136 q 507 304 507 222 l 507 822 q 484 946 507 904 q 392 988 461 988 q 299 945 322 988 q 275 822 275 903 l 275 304 q 299 179 275 222 q 392 136 322 136 m 500 1272 q 451 1281 474 1272 q 401 1308 429 1290 q 359 1330 376 1322 q 324 1338 342 1338 q 286 1323 297 1338 q 275 1281 275 1308 l 178 1281 q 296 1456 178 1456 q 340 1447 319 1456 q 389 1422 360 1439 q 433 1399 417 1407 q 469 1392 450 1392 q 514 1447 514 1392 l 606 1447 q 583 1320 606 1368 q 500 1272 561 1272 m 228 1689 l 556 1689 l 556 1590 l 228 1590 l 228 1689 z "},"Œ":{"ha":974,"x_min":67,"x_max":936,"o":"m 406 0 q 144 92 222 0 q 67 365 67 183 l 67 739 q 144 1023 67 924 q 399 1122 221 1122 l 935 1122 l 935 979 l 682 979 l 682 653 l 879 653 l 879 508 l 682 508 l 682 140 l 936 140 l 936 0 l 406 0 m 478 144 l 478 978 l 406 978 q 316 950 344 978 q 280 876 288 922 q 272 749 272 829 l 272 349 q 281 234 272 276 q 318 168 289 192 q 407 144 347 144 l 478 144 z "},"P":{"ha":732,"x_min":85,"x_max":703,"o":"m 85 1125 l 415 1125 q 703 806 703 1125 q 401 500 703 500 l 289 500 l 289 0 l 85 0 l 85 1125 m 368 644 q 481 680 451 644 q 510 807 510 715 q 500 909 510 874 q 460 963 490 944 q 368 981 431 981 l 289 981 l 289 644 l 368 644 z "},"Ṗ":{"ha":732,"x_min":85,"x_max":703,"o":"m 85 1125 l 415 1125 q 703 806 703 1125 q 401 500 703 500 l 289 500 l 289 0 l 85 0 l 85 1125 m 368 644 q 481 680 451 644 q 510 807 510 715 q 500 909 510 874 q 460 963 490 944 q 368 981 431 981 l 289 981 l 289 644 l 368 644 m 275 1431 l 458 1431 l 458 1240 l 275 1240 l 275 1431 z "},"Þ":{"ha":740,"x_min":79,"x_max":719,"o":"m 79 1125 l 283 1125 l 283 976 l 418 976 q 645 897 571 976 q 719 657 719 817 q 642 403 719 481 q 399 324 565 325 l 283 324 l 283 0 l 79 0 l 79 1125 m 372 476 q 492 515 456 476 q 528 651 528 554 q 494 781 528 742 q 383 821 461 821 l 283 821 l 283 476 l 372 476 z "},"Q":{"ha":783,"x_min":67,"x_max":715,"o":"m 633 -225 q 521 -140 583 -201 q 415 -14 458 -79 l 392 -15 q 142 78 217 -15 q 67 353 67 172 l 67 775 q 142 1046 67 954 q 392 1138 217 1138 q 640 1046 565 1138 q 715 775 715 954 l 715 353 q 560 19 715 93 q 672 -89 625 -60 l 633 -225 m 392 136 q 485 180 461 136 q 508 304 508 224 l 508 822 q 485 945 508 903 q 392 988 461 988 q 299 946 322 988 q 275 822 275 904 l 275 304 q 299 179 275 222 q 392 136 322 136 z "},"R":{"ha":779,"x_min":85,"x_max":726,"o":"m 85 1125 l 356 1125 q 621 1058 533 1125 q 708 826 708 990 q 677 652 708 719 q 569 554 646 585 l 726 0 l 521 0 l 386 515 l 289 515 l 289 0 l 85 0 l 85 1125 m 354 643 q 478 683 442 643 q 515 815 515 724 q 483 944 515 904 q 365 985 450 985 l 289 985 l 289 643 l 354 643 z "},"Ŕ":{"ha":779,"x_min":85,"x_max":726,"o":"m 85 1125 l 356 1125 q 621 1058 533 1125 q 708 826 708 990 q 677 652 708 719 q 569 554 646 585 l 726 0 l 521 0 l 386 515 l 289 515 l 289 0 l 85 0 l 85 1125 m 354 643 q 478 683 442 643 q 515 815 515 724 q 483 944 515 904 q 365 985 450 985 l 289 985 l 289 643 l 354 643 m 417 1481 l 608 1481 l 443 1203 l 333 1203 l 417 1481 z "},"Ř":{"ha":779,"x_min":85,"x_max":726,"o":"m 85 1125 l 356 1125 q 621 1058 533 1125 q 708 826 708 990 q 677 652 708 719 q 569 554 646 585 l 726 0 l 521 0 l 386 515 l 289 515 l 289 0 l 85 0 l 85 1125 m 354 643 q 478 683 442 643 q 515 815 515 724 q 483 944 515 904 q 365 985 450 985 l 289 985 l 289 643 l 354 643 m 176 1458 l 315 1458 l 390 1301 l 465 1458 l 604 1458 l 482 1208 l 297 1208 l 176 1458 z "},"Ŗ":{"ha":779,"x_min":85,"x_max":726,"o":"m 85 1125 l 356 1125 q 621 1058 533 1125 q 708 826 708 990 q 677 652 708 719 q 569 554 646 585 l 726 0 l 521 0 l 386 515 l 289 515 l 289 0 l 85 0 l 85 1125 m 354 643 q 478 683 442 643 q 515 815 515 724 q 483 944 515 904 q 365 985 450 985 l 289 985 l 289 643 l 354 643 m 308 -375 q 374 -346 351 -369 q 397 -275 397 -322 l 299 -275 l 299 -93 l 482 -93 l 482 -256 q 447 -398 481 -349 q 335 -449 414 -447 l 308 -375 z "},"Ȑ":{"ha":779,"x_min":85,"x_max":726,"o":"m 85 1125 l 356 1125 q 621 1058 533 1125 q 708 826 708 990 q 677 652 708 719 q 569 554 646 585 l 726 0 l 521 0 l 386 515 l 289 515 l 289 0 l 85 0 l 85 1125 m 354 643 q 478 683 442 643 q 515 815 515 724 q 483 944 515 904 q 365 985 450 985 l 289 985 l 289 643 l 354 643 m 97 1472 l 260 1472 l 344 1210 l 244 1210 l 97 1472 m 342 1472 l 485 1472 l 554 1210 l 456 1210 l 342 1472 z "},"Ȓ":{"ha":779,"x_min":85,"x_max":726,"o":"m 85 1125 l 356 1125 q 621 1058 533 1125 q 708 826 708 990 q 677 652 708 719 q 569 554 646 585 l 726 0 l 521 0 l 386 515 l 289 515 l 289 0 l 85 0 l 85 1125 m 354 643 q 478 683 442 643 q 515 815 515 724 q 483 944 515 904 q 365 985 450 985 l 289 985 l 289 643 l 354 643 m 189 1232 q 390 1446 192 1446 q 542 1390 493 1446 q 592 1232 592 1333 l 483 1232 q 462 1319 483 1293 q 390 1346 440 1346 q 319 1319 340 1346 q 297 1232 299 1293 l 189 1232 z "},"S":{"ha":686,"x_min":57,"x_max":650,"o":"m 368 -15 q 140 71 215 -15 q 57 328 64 157 l 233 363 q 267 199 238 256 q 361 143 297 143 q 431 172 408 143 q 454 249 454 200 q 424 361 454 315 q 331 464 394 407 l 189 588 q 91 708 124 646 q 58 860 58 769 q 136 1065 58 993 q 351 1138 214 1138 q 558 1055 496 1138 q 631 832 621 972 l 454 801 q 430 939 450 892 q 351 986 410 986 q 277 957 304 986 q 250 881 250 928 q 272 790 250 826 q 342 711 294 754 l 482 588 q 606 440 561 517 q 650 261 650 364 q 615 118 650 181 q 515 20 579 56 q 368 -15 451 -15 z "},"Ś":{"ha":686,"x_min":57,"x_max":650,"o":"m 368 -15 q 140 71 215 -15 q 57 328 64 157 l 233 363 q 267 199 238 256 q 361 143 297 143 q 431 172 408 143 q 454 249 454 200 q 424 361 454 315 q 331 464 394 407 l 189 588 q 91 708 124 646 q 58 860 58 769 q 136 1065 58 993 q 351 1138 214 1138 q 558 1055 496 1138 q 631 832 621 972 l 454 801 q 430 939 450 892 q 351 986 410 986 q 277 957 304 986 q 250 881 250 928 q 272 790 250 826 q 342 711 294 754 l 482 588 q 606 440 561 517 q 650 261 650 364 q 615 118 650 181 q 515 20 579 56 q 368 -15 451 -15 m 369 1481 l 561 1481 l 396 1203 l 286 1203 l 369 1481 z "},"Š":{"ha":686,"x_min":57,"x_max":650,"o":"m 368 -15 q 140 71 215 -15 q 57 328 64 157 l 233 363 q 267 199 238 256 q 361 143 297 143 q 431 172 408 143 q 454 249 454 200 q 424 361 454 315 q 331 464 394 407 l 189 588 q 91 708 124 646 q 58 860 58 769 q 136 1065 58 993 q 351 1138 214 1138 q 558 1055 496 1138 q 631 832 621 972 l 454 801 q 430 939 450 892 q 351 986 410 986 q 277 957 304 986 q 250 881 250 928 q 272 790 250 826 q 342 711 294 754 l 482 588 q 606 440 561 517 q 650 261 650 364 q 615 118 650 181 q 515 20 579 56 q 368 -15 451 -15 m 129 1458 l 268 1458 l 343 1301 l 418 1458 l 557 1458 l 435 1208 l 250 1208 l 129 1458 z "},"Ş":{"ha":686,"x_min":57,"x_max":650,"o":"m 650 261 q 576 67 650 143 q 383 -15 503 -10 l 383 -85 q 509 -119 463 -85 q 556 -217 556 -153 q 502 -322 556 -286 q 367 -357 449 -357 q 267 -342 319 -357 l 267 -254 q 342 -265 300 -265 q 426 -214 426 -265 q 304 -139 426 -151 l 304 -11 q 57 328 68 24 l 233 363 q 267 199 238 256 q 361 143 297 143 q 431 172 408 143 q 454 249 454 200 q 424 361 454 315 q 331 464 394 407 l 189 588 q 91 708 124 646 q 58 860 58 769 q 136 1065 58 993 q 351 1138 214 1138 q 558 1055 496 1138 q 631 832 621 972 l 454 801 q 430 939 450 892 q 351 986 410 986 q 277 957 304 986 q 250 881 250 928 q 272 790 250 826 q 342 711 294 754 l 482 588 q 606 440 561 517 q 650 261 650 364 z "},"Ŝ":{"ha":686,"x_min":57,"x_max":650,"o":"m 368 -15 q 140 71 215 -15 q 57 328 64 157 l 233 363 q 267 199 238 256 q 361 143 297 143 q 431 172 408 143 q 454 249 454 200 q 424 361 454 315 q 331 464 394 407 l 189 588 q 91 708 124 646 q 58 860 58 769 q 136 1065 58 993 q 351 1138 214 1138 q 558 1055 496 1138 q 631 832 621 972 l 454 801 q 430 939 450 892 q 351 986 410 986 q 277 957 304 986 q 250 881 250 928 q 272 790 250 826 q 342 711 294 754 l 482 588 q 606 440 561 517 q 650 261 650 364 q 615 118 650 181 q 515 20 579 56 q 368 -15 451 -15 m 257 1469 l 426 1469 l 554 1214 l 414 1214 l 342 1381 l 271 1214 l 132 1214 l 257 1469 z "},"Ș":{"ha":686,"x_min":57,"x_max":650,"o":"m 368 -15 q 140 71 215 -15 q 57 328 64 157 l 233 363 q 267 199 238 256 q 361 143 297 143 q 431 172 408 143 q 454 249 454 200 q 424 361 454 315 q 331 464 394 407 l 189 588 q 91 708 124 646 q 58 860 58 769 q 136 1065 58 993 q 351 1138 214 1138 q 558 1055 496 1138 q 631 832 621 972 l 454 801 q 430 939 450 892 q 351 986 410 986 q 277 957 304 986 q 250 881 250 928 q 272 790 250 826 q 342 711 294 754 l 482 588 q 606 440 561 517 q 650 261 650 364 q 615 118 650 181 q 515 20 579 56 q 368 -15 451 -15 m 261 -375 q 327 -346 304 -369 q 350 -275 350 -322 l 251 -275 l 251 -93 l 435 -93 l 435 -256 q 400 -398 433 -349 q 288 -449 367 -447 l 261 -375 z "},"Ṡ":{"ha":686,"x_min":57,"x_max":650,"o":"m 368 -15 q 140 71 215 -15 q 57 328 64 157 l 233 363 q 267 199 238 256 q 361 143 297 143 q 431 172 408 143 q 454 249 454 200 q 424 361 454 315 q 331 464 394 407 l 189 588 q 91 708 124 646 q 58 860 58 769 q 136 1065 58 993 q 351 1138 214 1138 q 558 1055 496 1138 q 631 832 621 972 l 454 801 q 430 939 450 892 q 351 986 410 986 q 277 957 304 986 q 250 881 250 928 q 272 790 250 826 q 342 711 294 754 l 482 588 q 606 440 561 517 q 650 261 650 364 q 615 118 650 181 q 515 20 579 56 q 368 -15 451 -15 m 251 1431 l 435 1431 l 435 1240 l 251 1240 l 251 1431 z "},"ẞ":{"ha":808,"x_min":76,"x_max":764,"o":"m 556 624 q 712 527 660 603 q 764 324 764 451 q 683 67 764 149 q 444 -15 603 -15 l 386 -15 l 386 128 l 422 128 q 532 174 496 128 q 568 318 568 219 q 533 467 568 419 q 422 514 497 514 l 401 514 l 400 656 l 568 969 q 457 988 521 988 q 282 781 282 988 l 282 0 l 76 0 l 76 774 q 167 1040 76 942 q 442 1138 258 1138 q 718 1071 589 1138 l 718 926 l 556 624 z "},"Ə":{"ha":776,"x_min":61,"x_max":710,"o":"m 388 -15 q 142 76 222 -15 q 61 340 61 168 l 61 585 l 501 585 l 501 828 q 476 949 501 911 q 386 988 451 988 q 295 949 321 988 q 269 828 269 911 l 269 697 l 61 697 l 61 789 q 142 1049 61 960 q 388 1138 222 1138 q 628 1044 547 1138 q 710 782 710 951 l 710 344 q 628 79 710 174 q 388 -15 547 -15 m 386 136 q 476 176 451 136 q 501 299 501 215 l 501 447 l 269 447 l 269 299 q 295 176 269 215 q 386 136 321 136 z "},"T":{"ha":589,"x_min":7,"x_max":583,"o":"m 194 974 l 7 974 l 7 1125 l 583 1125 l 583 974 l 399 974 l 399 0 l 194 0 l 194 974 z "},"Ŧ":{"ha":589,"x_min":7,"x_max":583,"o":"m 399 974 l 399 632 l 532 632 l 532 528 l 399 528 l 399 0 l 194 0 l 194 528 l 60 528 l 60 632 l 194 632 l 194 974 l 7 974 l 7 1125 l 583 1125 l 583 974 l 399 974 z "},"Ť":{"ha":589,"x_min":7,"x_max":583,"o":"m 194 974 l 7 974 l 7 1125 l 583 1125 l 583 974 l 399 974 l 399 0 l 194 0 l 194 974 m 81 1458 l 219 1458 l 294 1301 l 369 1458 l 508 1458 l 386 1208 l 201 1208 l 81 1458 z "},"Ţ":{"ha":589,"x_min":7,"x_max":583,"o":"m 194 974 l 7 974 l 7 1125 l 583 1125 l 583 974 l 399 974 l 399 0 l 194 0 l 194 974 m 318 -357 q 218 -342 271 -357 l 218 -254 q 293 -265 251 -265 q 378 -214 378 -265 q 256 -139 378 -151 l 256 0 l 335 0 l 335 -85 q 460 -119 414 -85 q 507 -217 507 -153 q 453 -322 507 -286 q 318 -357 400 -357 z "},"Ț":{"ha":589,"x_min":7,"x_max":583,"o":"m 194 974 l 7 974 l 7 1125 l 583 1125 l 583 974 l 399 974 l 399 0 l 194 0 l 194 974 m 213 -375 q 278 -346 256 -369 q 301 -275 301 -322 l 203 -275 l 203 -93 l 386 -93 l 386 -256 q 351 -398 385 -349 q 239 -449 318 -447 l 213 -375 z "},"Ṫ":{"ha":589,"x_min":7,"x_max":583,"o":"m 194 974 l 7 974 l 7 1125 l 583 1125 l 583 974 l 399 974 l 399 0 l 194 0 l 194 974 m 203 1431 l 386 1431 l 386 1240 l 203 1240 l 203 1431 z "},"U":{"ha":786,"x_min":76,"x_max":710,"o":"m 393 -15 q 201 29 271 -15 q 104 156 132 74 q 76 364 76 238 l 76 1125 l 276 1125 l 276 340 q 299 190 276 243 q 393 138 322 138 q 488 190 465 138 q 511 340 511 243 l 511 1125 l 710 1125 l 710 364 q 682 156 710 239 q 585 29 654 74 q 393 -15 515 -15 z "},"Ú":{"ha":786,"x_min":76,"x_max":710,"o":"m 393 -15 q 201 29 271 -15 q 104 156 132 74 q 76 364 76 238 l 76 1125 l 276 1125 l 276 340 q 299 190 276 243 q 393 138 322 138 q 488 190 465 138 q 511 340 511 243 l 511 1125 l 710 1125 l 710 364 q 682 156 710 239 q 585 29 654 74 q 393 -15 515 -15 m 421 1481 l 613 1481 l 447 1203 l 338 1203 l 421 1481 z "},"Ŭ":{"ha":786,"x_min":76,"x_max":710,"o":"m 393 -15 q 201 29 271 -15 q 104 156 132 74 q 76 364 76 238 l 76 1125 l 276 1125 l 276 340 q 299 190 276 243 q 393 138 322 138 q 488 190 465 138 q 511 340 511 243 l 511 1125 l 710 1125 l 710 364 q 682 156 710 239 q 585 29 654 74 q 393 -15 515 -15 m 394 1214 q 246 1268 297 1214 q 194 1417 194 1322 l 301 1417 q 324 1339 303 1364 q 394 1314 346 1314 q 466 1340 444 1314 q 488 1417 488 1365 l 596 1417 q 544 1268 596 1322 q 394 1214 493 1214 z "},"Û":{"ha":786,"x_min":76,"x_max":710,"o":"m 393 -15 q 201 29 271 -15 q 104 156 132 74 q 76 364 76 238 l 76 1125 l 276 1125 l 276 340 q 299 190 276 243 q 393 138 322 138 q 488 190 465 138 q 511 340 511 243 l 511 1125 l 710 1125 l 710 364 q 682 156 710 239 q 585 29 654 74 q 393 -15 515 -15 m 308 1469 l 478 1469 l 606 1214 l 465 1214 l 393 1381 l 322 1214 l 183 1214 l 308 1469 z "},"Ȕ":{"ha":786,"x_min":76,"x_max":710,"o":"m 393 -15 q 201 29 271 -15 q 104 156 132 74 q 76 364 76 238 l 76 1125 l 276 1125 l 276 340 q 299 190 276 243 q 393 138 322 138 q 488 190 465 138 q 511 340 511 243 l 511 1125 l 710 1125 l 710 364 q 682 156 710 239 q 585 29 654 74 q 393 -15 515 -15 m 101 1472 l 264 1472 l 349 1210 l 249 1210 l 101 1472 m 346 1472 l 489 1472 l 558 1210 l 460 1210 l 346 1472 z "},"Ü":{"ha":786,"x_min":76,"x_max":710,"o":"m 393 -15 q 201 29 271 -15 q 104 156 132 74 q 76 364 76 238 l 76 1125 l 276 1125 l 276 340 q 299 190 276 243 q 393 138 322 138 q 488 190 465 138 q 511 340 511 243 l 511 1125 l 710 1125 l 710 364 q 682 156 710 239 q 585 29 654 74 q 393 -15 515 -15 m 175 1447 l 342 1447 l 342 1267 l 175 1267 l 175 1447 m 447 1447 l 614 1447 l 614 1267 l 447 1267 l 447 1447 z "},"Ụ":{"ha":786,"x_min":76,"x_max":710,"o":"m 393 -15 q 201 29 271 -15 q 104 156 132 74 q 76 364 76 238 l 76 1125 l 276 1125 l 276 340 q 299 190 276 243 q 393 138 322 138 q 488 190 465 138 q 511 340 511 243 l 511 1125 l 710 1125 l 710 364 q 682 156 710 239 q 585 29 654 74 q 393 -15 515 -15 m 308 -93 l 481 -93 l 481 -267 l 308 -267 l 308 -93 z "},"Ù":{"ha":786,"x_min":76,"x_max":710,"o":"m 393 -15 q 201 29 271 -15 q 104 156 132 74 q 76 364 76 238 l 76 1125 l 276 1125 l 276 340 q 299 190 276 243 q 393 138 322 138 q 488 190 465 138 q 511 340 511 243 l 511 1125 l 710 1125 l 710 364 q 682 156 710 239 q 585 29 654 74 q 393 -15 515 -15 m 178 1481 l 369 1481 l 451 1203 l 343 1203 l 178 1481 z "},"Ủ":{"ha":786,"x_min":76,"x_max":710,"o":"m 393 -15 q 201 29 271 -15 q 104 156 132 74 q 76 364 76 238 l 76 1125 l 276 1125 l 276 340 q 299 190 276 243 q 393 138 322 138 q 488 190 465 138 q 511 340 511 243 l 511 1125 l 710 1125 l 710 364 q 682 156 710 239 q 585 29 654 74 q 393 -15 515 -15 m 333 1264 q 405 1303 382 1285 q 428 1347 428 1321 q 346 1400 428 1400 q 268 1389 304 1400 l 268 1475 q 396 1492 331 1492 q 511 1459 465 1492 q 557 1361 557 1426 q 515 1263 557 1300 q 396 1199 474 1226 l 333 1264 z "},"Ư":{"ha":786,"x_min":76,"x_max":808,"o":"m 808 1236 q 710 1063 808 1108 l 710 364 q 682 156 710 239 q 585 29 654 74 q 393 -15 515 -15 q 201 29 271 -15 q 104 156 132 74 q 76 364 76 238 l 76 1125 l 276 1125 l 276 340 q 299 190 276 243 q 393 138 322 138 q 488 190 465 138 q 511 340 511 243 l 511 1125 l 596 1125 q 653 1151 636 1125 q 671 1236 671 1178 l 808 1236 z "},"Ứ":{"ha":786,"x_min":76,"x_max":808,"o":"m 808 1236 q 710 1063 808 1108 l 710 364 q 682 156 710 239 q 585 29 654 74 q 393 -15 515 -15 q 201 29 271 -15 q 104 156 132 74 q 76 364 76 238 l 76 1125 l 276 1125 l 276 340 q 299 190 276 243 q 393 138 322 138 q 488 190 465 138 q 511 340 511 243 l 511 1125 l 596 1125 q 653 1151 636 1125 q 671 1236 671 1178 l 808 1236 m 421 1481 l 613 1481 l 447 1203 l 338 1203 l 421 1481 z "},"Ự":{"ha":786,"x_min":76,"x_max":808,"o":"m 808 1236 q 710 1063 808 1108 l 710 364 q 682 156 710 239 q 585 29 654 74 q 393 -15 515 -15 q 201 29 271 -15 q 104 156 132 74 q 76 364 76 238 l 76 1125 l 276 1125 l 276 340 q 299 190 276 243 q 393 138 322 138 q 488 190 465 138 q 511 340 511 243 l 511 1125 l 596 1125 q 653 1151 636 1125 q 671 1236 671 1178 l 808 1236 m 308 -93 l 481 -93 l 481 -267 l 308 -267 l 308 -93 z "},"Ừ":{"ha":786,"x_min":76,"x_max":808,"o":"m 808 1236 q 710 1063 808 1108 l 710 364 q 682 156 710 239 q 585 29 654 74 q 393 -15 515 -15 q 201 29 271 -15 q 104 156 132 74 q 76 364 76 238 l 76 1125 l 276 1125 l 276 340 q 299 190 276 243 q 393 138 322 138 q 488 190 465 138 q 511 340 511 243 l 511 1125 l 596 1125 q 653 1151 636 1125 q 671 1236 671 1178 l 808 1236 m 178 1481 l 369 1481 l 451 1203 l 343 1203 l 178 1481 z "},"Ử":{"ha":786,"x_min":76,"x_max":808,"o":"m 808 1236 q 710 1063 808 1108 l 710 364 q 682 156 710 239 q 585 29 654 74 q 393 -15 515 -15 q 201 29 271 -15 q 104 156 132 74 q 76 364 76 238 l 76 1125 l 276 1125 l 276 340 q 299 190 276 243 q 393 138 322 138 q 488 190 465 138 q 511 340 511 243 l 511 1125 l 596 1125 q 653 1151 636 1125 q 671 1236 671 1178 l 808 1236 m 333 1264 q 405 1303 382 1285 q 428 1347 428 1321 q 346 1400 428 1400 q 268 1389 304 1400 l 268 1475 q 396 1492 331 1492 q 511 1459 465 1492 q 557 1361 557 1426 q 515 1263 557 1300 q 396 1199 474 1226 l 333 1264 z "},"Ữ":{"ha":786,"x_min":76,"x_max":808,"o":"m 808 1236 q 710 1063 808 1108 l 710 364 q 682 156 710 239 q 585 29 654 74 q 393 -15 515 -15 q 201 29 271 -15 q 104 156 132 74 q 76 364 76 238 l 76 1125 l 276 1125 l 276 340 q 299 190 276 243 q 393 138 322 138 q 488 190 465 138 q 511 340 511 243 l 511 1125 l 596 1125 q 653 1151 636 1125 q 671 1236 671 1178 l 808 1236 m 503 1272 q 454 1281 476 1272 q 404 1308 432 1290 q 362 1330 379 1322 q 326 1338 344 1338 q 289 1323 300 1338 q 278 1281 278 1308 l 181 1281 q 299 1456 181 1456 q 342 1447 322 1456 q 392 1422 363 1439 q 436 1399 419 1407 q 472 1392 453 1392 q 517 1447 517 1392 l 608 1447 q 586 1320 608 1368 q 503 1272 564 1272 z "},"Ű":{"ha":786,"x_min":76,"x_max":710,"o":"m 393 -15 q 201 29 271 -15 q 104 156 132 74 q 76 364 76 238 l 76 1125 l 276 1125 l 276 340 q 299 190 276 243 q 393 138 322 138 q 488 190 465 138 q 511 340 511 243 l 511 1125 l 710 1125 l 710 364 q 682 156 710 239 q 585 29 654 74 q 393 -15 515 -15 m 308 1476 l 463 1476 l 336 1206 l 239 1206 l 308 1476 m 536 1476 l 710 1476 l 549 1206 l 451 1206 l 536 1476 z "},"Ȗ":{"ha":786,"x_min":76,"x_max":710,"o":"m 393 -15 q 201 29 271 -15 q 104 156 132 74 q 76 364 76 238 l 76 1125 l 276 1125 l 276 340 q 299 190 276 243 q 393 138 322 138 q 488 190 465 138 q 511 340 511 243 l 511 1125 l 710 1125 l 710 364 q 682 156 710 239 q 585 29 654 74 q 393 -15 515 -15 m 193 1232 q 394 1446 196 1446 q 547 1390 497 1446 q 596 1232 596 1333 l 488 1232 q 466 1319 488 1293 q 394 1346 444 1346 q 324 1319 344 1346 q 301 1232 303 1293 l 193 1232 z "},"Ū":{"ha":786,"x_min":76,"x_max":710,"o":"m 393 -15 q 201 29 271 -15 q 104 156 132 74 q 76 364 76 238 l 76 1125 l 276 1125 l 276 340 q 299 190 276 243 q 393 138 322 138 q 488 190 465 138 q 511 340 511 243 l 511 1125 l 710 1125 l 710 364 q 682 156 710 239 q 585 29 654 74 q 393 -15 515 -15 m 231 1358 l 558 1358 l 558 1260 l 231 1260 l 231 1358 z "},"Ų":{"ha":786,"x_min":76,"x_max":710,"o":"m 710 1125 l 710 364 q 658 105 710 197 q 478 -8 607 13 q 401 -174 401 -104 q 501 -249 401 -249 q 544 -246 519 -249 l 521 -337 q 472 -342 500 -342 q 323 -314 381 -342 q 265 -207 265 -286 q 297 -102 265 -156 q 374 -15 329 -49 q 194 34 260 -11 q 103 160 129 79 q 76 364 76 242 l 76 1125 l 276 1125 l 276 340 q 299 190 276 243 q 393 138 322 138 q 488 190 465 138 q 511 340 511 243 l 511 1125 l 710 1125 z "},"Ů":{"ha":786,"x_min":76,"x_max":710,"o":"m 393 -15 q 201 29 271 -15 q 104 156 132 74 q 76 364 76 238 l 76 1125 l 276 1125 l 276 340 q 299 190 276 243 q 393 138 322 138 q 488 190 465 138 q 511 340 511 243 l 511 1125 l 710 1125 l 710 364 q 682 156 710 239 q 585 29 654 74 q 393 -15 515 -15 m 394 1168 q 281 1210 325 1168 q 236 1322 236 1251 q 281 1434 236 1393 q 394 1475 325 1475 q 508 1434 464 1475 q 553 1322 553 1393 q 508 1210 553 1251 q 394 1168 464 1168 m 394 1246 q 448 1267 428 1246 q 468 1322 468 1289 q 449 1378 468 1357 q 394 1399 429 1399 q 340 1378 360 1399 q 319 1322 319 1357 q 340 1267 319 1289 q 394 1246 360 1246 z "},"Ũ":{"ha":786,"x_min":76,"x_max":710,"o":"m 393 -15 q 201 29 271 -15 q 104 156 132 74 q 76 364 76 238 l 76 1125 l 276 1125 l 276 340 q 299 190 276 243 q 393 138 322 138 q 488 190 465 138 q 511 340 511 243 l 511 1125 l 710 1125 l 710 364 q 682 156 710 239 q 585 29 654 74 q 393 -15 515 -15 m 503 1272 q 454 1281 476 1272 q 404 1308 432 1290 q 362 1330 379 1322 q 326 1338 344 1338 q 289 1323 300 1338 q 278 1281 278 1308 l 181 1281 q 299 1456 181 1456 q 342 1447 322 1456 q 392 1422 363 1439 q 436 1399 419 1407 q 472 1392 453 1392 q 517 1447 517 1392 l 608 1447 q 586 1320 608 1368 q 503 1272 564 1272 z "},"V":{"ha":717,"x_min":32,"x_max":686,"o":"m 32 1125 l 213 1125 l 361 329 l 501 1125 l 686 1125 l 460 0 l 258 0 l 32 1125 z "},"W":{"ha":990,"x_min":44,"x_max":946,"o":"m 44 1125 l 215 1125 l 308 396 l 425 1122 l 564 1122 l 685 396 l 776 1125 l 946 1125 l 789 0 l 622 0 l 497 754 l 374 0 l 203 0 l 44 1125 z "},"Ẃ":{"ha":990,"x_min":44,"x_max":946,"o":"m 44 1125 l 215 1125 l 308 396 l 425 1122 l 564 1122 l 685 396 l 776 1125 l 946 1125 l 789 0 l 622 0 l 497 754 l 374 0 l 203 0 l 44 1125 m 522 1481 l 714 1481 l 549 1203 l 439 1203 l 522 1481 z "},"Ŵ":{"ha":990,"x_min":44,"x_max":946,"o":"m 44 1125 l 215 1125 l 308 396 l 425 1122 l 564 1122 l 685 396 l 776 1125 l 946 1125 l 789 0 l 622 0 l 497 754 l 374 0 l 203 0 l 44 1125 m 410 1469 l 579 1469 l 707 1214 l 567 1214 l 494 1381 l 424 1214 l 285 1214 l 410 1469 z "},"Ẅ":{"ha":990,"x_min":44,"x_max":946,"o":"m 44 1125 l 215 1125 l 308 396 l 425 1122 l 564 1122 l 685 396 l 776 1125 l 946 1125 l 789 0 l 622 0 l 497 754 l 374 0 l 203 0 l 44 1125 m 276 1447 l 443 1447 l 443 1267 l 276 1267 l 276 1447 m 549 1447 l 715 1447 l 715 1267 l 549 1267 l 549 1447 z "},"Ẁ":{"ha":990,"x_min":44,"x_max":946,"o":"m 44 1125 l 215 1125 l 308 396 l 425 1122 l 564 1122 l 685 396 l 776 1125 l 946 1125 l 789 0 l 622 0 l 497 754 l 374 0 l 203 0 l 44 1125 m 279 1481 l 471 1481 l 553 1203 l 444 1203 l 279 1481 z "},"X":{"ha":693,"x_min":14,"x_max":679,"o":"m 240 597 l 21 1125 l 213 1125 l 358 775 l 486 1125 l 663 1125 l 447 558 l 679 0 l 489 0 l 329 379 l 190 0 l 14 0 l 240 597 z "},"Y":{"ha":676,"x_min":14,"x_max":663,"o":"m 242 429 l 14 1125 l 206 1125 l 344 679 l 475 1125 l 663 1125 l 438 429 l 438 0 l 242 0 l 242 429 z "},"Ý":{"ha":676,"x_min":14,"x_max":663,"o":"m 242 429 l 14 1125 l 206 1125 l 344 679 l 475 1125 l 663 1125 l 438 429 l 438 0 l 242 0 l 242 429 m 365 1481 l 557 1481 l 392 1203 l 282 1203 l 365 1481 z "},"Ŷ":{"ha":676,"x_min":14,"x_max":663,"o":"m 242 429 l 14 1125 l 206 1125 l 344 679 l 475 1125 l 663 1125 l 438 429 l 438 0 l 242 0 l 242 429 m 253 1469 l 422 1469 l 550 1214 l 410 1214 l 338 1381 l 267 1214 l 128 1214 l 253 1469 z "},"Ÿ":{"ha":676,"x_min":14,"x_max":663,"o":"m 242 429 l 14 1125 l 206 1125 l 344 679 l 475 1125 l 663 1125 l 438 429 l 438 0 l 242 0 l 242 429 m 119 1447 l 286 1447 l 286 1267 l 119 1267 l 119 1447 m 392 1447 l 558 1447 l 558 1267 l 392 1267 l 392 1447 z "},"Ỵ":{"ha":676,"x_min":14,"x_max":663,"o":"m 242 429 l 14 1125 l 206 1125 l 344 679 l 475 1125 l 663 1125 l 438 429 l 438 0 l 242 0 l 242 429 m 253 -93 l 425 -93 l 425 -267 l 253 -267 l 253 -93 z "},"Ỳ":{"ha":676,"x_min":14,"x_max":663,"o":"m 242 429 l 14 1125 l 206 1125 l 344 679 l 475 1125 l 663 1125 l 438 429 l 438 0 l 242 0 l 242 429 m 122 1481 l 314 1481 l 396 1203 l 288 1203 l 122 1481 z "},"Ỷ":{"ha":676,"x_min":14,"x_max":663,"o":"m 242 429 l 14 1125 l 206 1125 l 344 679 l 475 1125 l 663 1125 l 438 429 l 438 0 l 242 0 l 242 429 m 278 1264 q 349 1303 326 1285 q 372 1347 372 1321 q 290 1400 372 1400 q 213 1389 249 1400 l 213 1475 q 340 1492 275 1492 q 456 1459 410 1492 q 501 1361 501 1426 q 460 1263 501 1300 q 340 1199 418 1226 l 278 1264 z "},"Ȳ":{"ha":676,"x_min":14,"x_max":663,"o":"m 242 429 l 14 1125 l 206 1125 l 344 679 l 475 1125 l 663 1125 l 438 429 l 438 0 l 242 0 l 242 429 m 175 1358 l 503 1358 l 503 1260 l 175 1260 l 175 1358 z "},"Ỹ":{"ha":676,"x_min":14,"x_max":663,"o":"m 242 429 l 14 1125 l 206 1125 l 344 679 l 475 1125 l 663 1125 l 438 429 l 438 0 l 242 0 l 242 429 m 447 1272 q 399 1281 421 1272 q 349 1308 376 1290 q 306 1330 324 1322 q 271 1338 289 1338 q 233 1323 244 1338 q 222 1281 222 1308 l 125 1281 q 243 1456 125 1456 q 287 1447 267 1456 q 336 1422 307 1439 q 381 1399 364 1407 q 417 1392 397 1392 q 461 1447 461 1392 l 553 1447 q 531 1320 553 1368 q 447 1272 508 1272 z "},"Z":{"ha":590,"x_min":47,"x_max":557,"o":"m 47 132 l 349 983 l 63 983 l 63 1125 l 556 1125 l 556 1019 l 242 140 l 557 140 l 557 0 l 47 0 l 47 132 z "},"Ź":{"ha":590,"x_min":47,"x_max":557,"o":"m 47 132 l 349 983 l 63 983 l 63 1125 l 556 1125 l 556 1019 l 242 140 l 557 140 l 557 0 l 47 0 l 47 132 m 322 1481 l 514 1481 l 349 1203 l 239 1203 l 322 1481 z "},"Ž":{"ha":590,"x_min":47,"x_max":557,"o":"m 47 132 l 349 983 l 63 983 l 63 1125 l 556 1125 l 556 1019 l 242 140 l 557 140 l 557 0 l 47 0 l 47 132 m 82 1458 l 221 1458 l 296 1301 l 371 1458 l 510 1458 l 388 1208 l 203 1208 l 82 1458 z "},"Ż":{"ha":590,"x_min":47,"x_max":557,"o":"m 47 132 l 349 983 l 63 983 l 63 1125 l 556 1125 l 556 1019 l 242 140 l 557 140 l 557 0 l 47 0 l 47 132 m 204 1431 l 388 1431 l 388 1240 l 204 1240 l 204 1431 z "},"a":{"ha":628,"x_min":54,"x_max":575,"o":"m 228 -12 q 137 15 176 -12 q 76 87 97 43 q 54 178 54 131 q 94 326 54 268 q 193 416 135 383 q 346 486 251 449 l 378 499 l 378 568 q 365 649 378 624 q 314 675 351 675 q 247 586 250 675 l 244 538 l 65 544 l 67 572 q 141 756 75 697 q 329 815 207 815 q 504 751 447 815 q 561 568 561 686 l 561 197 q 575 0 561 115 l 406 0 q 386 115 392 75 q 330 24 369 61 q 228 -12 290 -12 m 297 128 q 343 144 321 128 q 378 181 365 161 l 378 406 q 232 224 232 326 q 249 153 232 179 q 297 128 267 128 z "},"á":{"ha":628,"x_min":54,"x_max":575,"o":"m 228 -12 q 137 15 176 -12 q 76 87 97 43 q 54 178 54 131 q 94 326 54 268 q 193 416 135 383 q 346 486 251 449 l 378 499 l 378 568 q 365 649 378 624 q 314 675 351 675 q 247 586 250 675 l 244 538 l 65 544 l 67 572 q 141 756 75 697 q 329 815 207 815 q 504 751 447 815 q 561 568 561 686 l 561 197 q 575 0 561 115 l 406 0 q 386 115 392 75 q 330 24 369 61 q 228 -12 290 -12 m 297 128 q 343 144 321 128 q 378 181 365 161 l 378 406 q 232 224 232 326 q 249 153 232 179 q 297 128 267 128 m 356 1158 l 547 1158 l 382 881 l 272 881 l 356 1158 z "},"ă":{"ha":628,"x_min":54,"x_max":575,"o":"m 228 -12 q 137 15 176 -12 q 76 87 97 43 q 54 178 54 131 q 94 326 54 268 q 193 416 135 383 q 346 486 251 449 l 378 499 l 378 568 q 365 649 378 624 q 314 675 351 675 q 247 586 250 675 l 244 538 l 65 544 l 67 572 q 141 756 75 697 q 329 815 207 815 q 504 751 447 815 q 561 568 561 686 l 561 197 q 575 0 561 115 l 406 0 q 386 115 392 75 q 330 24 369 61 q 228 -12 290 -12 m 297 128 q 343 144 321 128 q 378 181 365 161 l 378 406 q 232 224 232 326 q 249 153 232 179 q 297 128 267 128 m 329 892 q 181 946 232 892 q 129 1094 129 1000 l 236 1094 q 259 1017 238 1042 q 329 992 281 992 q 401 1017 379 992 q 422 1094 422 1043 l 531 1094 q 479 946 531 1000 q 329 892 428 892 z "},"ắ":{"ha":628,"x_min":54,"x_max":575,"o":"m 228 -12 q 137 15 176 -12 q 76 87 97 43 q 54 178 54 131 q 94 326 54 268 q 193 416 135 383 q 346 486 251 449 l 378 499 l 378 568 q 365 649 378 624 q 314 675 351 675 q 247 586 250 675 l 244 538 l 65 544 l 67 572 q 141 756 75 697 q 329 815 207 815 q 504 751 447 815 q 561 568 561 686 l 561 197 q 575 0 561 115 l 406 0 q 386 115 392 75 q 330 24 369 61 q 228 -12 290 -12 m 297 128 q 343 144 321 128 q 378 181 365 161 l 378 406 q 232 224 232 326 q 249 153 232 179 q 297 128 267 128 m 342 1301 l 508 1301 l 358 1140 l 247 1140 l 342 1301 m 329 876 q 181 931 232 876 q 129 1079 129 985 l 236 1079 q 259 1001 238 1026 q 329 976 281 976 q 401 1002 379 976 q 422 1079 422 1028 l 531 1079 q 479 931 531 985 q 329 876 428 876 z "},"ặ":{"ha":628,"x_min":54,"x_max":575,"o":"m 228 -12 q 137 15 176 -12 q 76 87 97 43 q 54 178 54 131 q 94 326 54 268 q 193 416 135 383 q 346 486 251 449 l 378 499 l 378 568 q 365 649 378 624 q 314 675 351 675 q 247 586 250 675 l 244 538 l 65 544 l 67 572 q 141 756 75 697 q 329 815 207 815 q 504 751 447 815 q 561 568 561 686 l 561 197 q 575 0 561 115 l 406 0 q 386 115 392 75 q 330 24 369 61 q 228 -12 290 -12 m 297 128 q 343 144 321 128 q 378 181 365 161 l 378 406 q 232 224 232 326 q 249 153 232 179 q 297 128 267 128 m 228 -93 l 400 -93 l 400 -267 l 228 -267 l 228 -93 m 329 892 q 181 946 232 892 q 129 1094 129 1000 l 236 1094 q 259 1017 238 1042 q 329 992 281 992 q 401 1017 379 992 q 422 1094 422 1043 l 531 1094 q 479 946 531 1000 q 329 892 428 892 z "},"ằ":{"ha":628,"x_min":54,"x_max":575,"o":"m 228 -12 q 137 15 176 -12 q 76 87 97 43 q 54 178 54 131 q 94 326 54 268 q 193 416 135 383 q 346 486 251 449 l 378 499 l 378 568 q 365 649 378 624 q 314 675 351 675 q 247 586 250 675 l 244 538 l 65 544 l 67 572 q 141 756 75 697 q 329 815 207 815 q 504 751 447 815 q 561 568 561 686 l 561 197 q 575 0 561 115 l 406 0 q 386 115 392 75 q 330 24 369 61 q 228 -12 290 -12 m 297 128 q 343 144 321 128 q 378 181 365 161 l 378 406 q 232 224 232 326 q 249 153 232 179 q 297 128 267 128 m 149 1301 l 315 1301 l 408 1140 l 299 1140 l 149 1301 m 329 876 q 181 931 232 876 q 129 1079 129 985 l 236 1079 q 259 1001 238 1026 q 329 976 281 976 q 401 1002 379 976 q 422 1079 422 1028 l 531 1079 q 479 931 531 985 q 329 876 428 876 z "},"ẳ":{"ha":628,"x_min":54,"x_max":575,"o":"m 228 -12 q 137 15 176 -12 q 76 87 97 43 q 54 178 54 131 q 94 326 54 268 q 193 416 135 383 q 346 486 251 449 l 378 499 l 378 568 q 365 649 378 624 q 314 675 351 675 q 247 586 250 675 l 244 538 l 65 544 l 67 572 q 141 756 75 697 q 329 815 207 815 q 504 751 447 815 q 561 568 561 686 l 561 197 q 575 0 561 115 l 406 0 q 386 115 392 75 q 330 24 369 61 q 228 -12 290 -12 m 297 128 q 343 144 321 128 q 378 181 365 161 l 378 406 q 232 224 232 326 q 249 153 232 179 q 297 128 267 128 m 286 1160 q 330 1199 315 1181 q 344 1242 344 1217 q 327 1282 344 1268 q 279 1296 310 1296 q 211 1285 244 1296 l 211 1369 q 319 1388 264 1388 q 429 1354 388 1388 q 471 1258 471 1321 q 436 1164 471 1203 q 342 1097 401 1125 l 286 1160 m 329 892 q 181 946 232 892 q 129 1094 129 1000 l 236 1094 q 259 1017 238 1042 q 329 992 281 992 q 401 1017 379 992 q 422 1094 422 1043 l 531 1094 q 479 946 531 1000 q 329 892 428 892 z "},"ẵ":{"ha":628,"x_min":54,"x_max":575,"o":"m 228 -12 q 137 15 176 -12 q 76 87 97 43 q 54 178 54 131 q 94 326 54 268 q 193 416 135 383 q 346 486 251 449 l 378 499 l 378 568 q 365 649 378 624 q 314 675 351 675 q 247 586 250 675 l 244 538 l 65 544 l 67 572 q 141 756 75 697 q 329 815 207 815 q 504 751 447 815 q 561 568 561 686 l 561 197 q 575 0 561 115 l 406 0 q 386 115 392 75 q 330 24 369 61 q 228 -12 290 -12 m 297 128 q 343 144 321 128 q 378 181 365 161 l 378 406 q 232 224 232 326 q 249 153 232 179 q 297 128 267 128 m 328 892 q 179 946 231 892 q 128 1094 128 1000 l 235 1094 q 258 1017 236 1042 q 328 992 279 992 q 399 1017 378 992 q 421 1094 421 1043 l 529 1094 q 478 946 529 1000 q 328 892 426 892 m 438 1167 q 389 1176 411 1167 q 339 1203 367 1185 q 297 1224 314 1217 q 261 1232 279 1232 q 224 1217 235 1232 q 213 1175 213 1203 l 115 1175 q 233 1350 115 1350 q 277 1342 257 1350 q 326 1317 297 1333 q 371 1294 354 1301 q 407 1286 388 1286 q 451 1342 451 1286 l 543 1342 q 521 1215 543 1263 q 438 1167 499 1167 z "},"â":{"ha":628,"x_min":54,"x_max":575,"o":"m 228 -12 q 137 15 176 -12 q 76 87 97 43 q 54 178 54 131 q 94 326 54 268 q 193 416 135 383 q 346 486 251 449 l 378 499 l 378 568 q 365 649 378 624 q 314 675 351 675 q 247 586 250 675 l 244 538 l 65 544 l 67 572 q 141 756 75 697 q 329 815 207 815 q 504 751 447 815 q 561 568 561 686 l 561 197 q 575 0 561 115 l 406 0 q 386 115 392 75 q 330 24 369 61 q 228 -12 290 -12 m 297 128 q 343 144 321 128 q 378 181 365 161 l 378 406 q 232 224 232 326 q 249 153 232 179 q 297 128 267 128 m 243 1147 l 413 1147 l 540 892 l 400 892 l 328 1058 l 257 892 l 118 892 l 243 1147 z "},"ấ":{"ha":628,"x_min":54,"x_max":735,"o":"m 228 -12 q 137 15 176 -12 q 76 87 97 43 q 54 178 54 131 q 94 326 54 268 q 193 416 135 383 q 346 486 251 449 l 378 499 l 378 568 q 365 649 378 624 q 314 675 351 675 q 247 586 250 675 l 244 538 l 65 544 l 67 572 q 141 756 75 697 q 329 815 207 815 q 504 751 447 815 q 561 568 561 686 l 561 197 q 575 0 561 115 l 406 0 q 386 115 392 75 q 330 24 369 61 q 228 -12 290 -12 m 297 128 q 343 144 321 128 q 378 181 365 161 l 378 406 q 232 224 232 326 q 249 153 232 179 q 297 128 267 128 m 585 1211 l 735 1211 l 617 1046 l 511 1046 l 585 1211 m 243 1115 l 413 1115 l 540 892 l 403 892 l 328 1032 l 254 892 l 118 892 l 243 1115 z "},"ậ":{"ha":628,"x_min":54,"x_max":575,"o":"m 228 -12 q 137 15 176 -12 q 76 87 97 43 q 54 178 54 131 q 94 326 54 268 q 193 416 135 383 q 346 486 251 449 l 378 499 l 378 568 q 365 649 378 624 q 314 675 351 675 q 247 586 250 675 l 244 538 l 65 544 l 67 572 q 141 756 75 697 q 329 815 207 815 q 504 751 447 815 q 561 568 561 686 l 561 197 q 575 0 561 115 l 406 0 q 386 115 392 75 q 330 24 369 61 q 228 -12 290 -12 m 297 128 q 343 144 321 128 q 378 181 365 161 l 378 406 q 232 224 232 326 q 249 153 232 179 q 297 128 267 128 m 228 -93 l 400 -93 l 400 -267 l 228 -267 l 228 -93 m 243 1115 l 413 1115 l 540 892 l 403 892 l 328 1032 l 254 892 l 118 892 l 243 1115 z "},"ầ":{"ha":628,"x_min":54,"x_max":656,"o":"m 228 -12 q 137 15 176 -12 q 76 87 97 43 q 54 178 54 131 q 94 326 54 268 q 193 416 135 383 q 346 486 251 449 l 378 499 l 378 568 q 365 649 378 624 q 314 675 351 675 q 247 586 250 675 l 244 538 l 65 544 l 67 572 q 141 756 75 697 q 329 815 207 815 q 504 751 447 815 q 561 568 561 686 l 561 197 q 575 0 561 115 l 406 0 q 386 115 392 75 q 330 24 369 61 q 228 -12 290 -12 m 297 128 q 343 144 321 128 q 378 181 365 161 l 378 406 q 232 224 232 326 q 249 153 232 179 q 297 128 267 128 m 432 1211 l 582 1211 l 656 1046 l 549 1046 l 432 1211 m 243 1115 l 413 1115 l 540 892 l 403 892 l 328 1032 l 254 892 l 118 892 l 243 1115 z "},"ẩ":{"ha":628,"x_min":54,"x_max":686,"o":"m 228 -12 q 137 15 176 -12 q 76 87 97 43 q 54 178 54 131 q 94 326 54 268 q 193 416 135 383 q 346 486 251 449 l 378 499 l 378 568 q 365 649 378 624 q 314 675 351 675 q 247 586 250 675 l 244 538 l 65 544 l 67 572 q 141 756 75 697 q 329 815 207 815 q 504 751 447 815 q 561 568 561 686 l 561 197 q 575 0 561 115 l 406 0 q 386 115 392 75 q 330 24 369 61 q 228 -12 290 -12 m 297 128 q 343 144 321 128 q 378 181 365 161 l 378 406 q 232 224 232 326 q 249 153 232 179 q 297 128 267 128 m 501 1075 q 545 1115 531 1096 q 560 1157 560 1133 q 542 1197 560 1183 q 493 1211 524 1211 q 426 1200 457 1211 l 426 1285 q 535 1303 476 1303 q 644 1269 603 1303 q 686 1174 686 1236 q 652 1078 686 1115 q 557 1013 618 1042 l 501 1075 m 243 1115 l 413 1115 l 540 892 l 403 892 l 328 1032 l 254 892 l 118 892 l 243 1115 z "},"ẫ":{"ha":628,"x_min":54,"x_max":575,"o":"m 228 -12 q 137 15 176 -12 q 76 87 97 43 q 54 178 54 131 q 94 326 54 268 q 193 416 135 383 q 346 486 251 449 l 378 499 l 378 568 q 365 649 378 624 q 314 675 351 675 q 247 586 250 675 l 244 538 l 65 544 l 67 572 q 141 756 75 697 q 329 815 207 815 q 504 751 447 815 q 561 568 561 686 l 561 197 q 575 0 561 115 l 406 0 q 386 115 392 75 q 330 24 369 61 q 228 -12 290 -12 m 297 128 q 343 144 321 128 q 378 181 365 161 l 378 406 q 232 224 232 326 q 249 153 232 179 q 297 128 267 128 m 243 1115 l 413 1115 l 540 892 l 403 892 l 328 1032 l 254 892 l 118 892 l 243 1115 m 438 1183 q 389 1192 411 1183 q 339 1219 367 1201 q 297 1241 314 1233 q 261 1249 279 1249 q 224 1234 235 1249 q 213 1192 213 1219 l 115 1192 q 233 1367 115 1367 q 277 1358 257 1367 q 326 1333 297 1350 q 371 1310 354 1318 q 407 1303 388 1303 q 451 1358 451 1303 l 543 1358 q 521 1231 543 1279 q 438 1183 499 1183 z "},"ȁ":{"ha":628,"x_min":36,"x_max":575,"o":"m 228 -12 q 137 15 176 -12 q 76 87 97 43 q 54 178 54 131 q 94 326 54 268 q 193 416 135 383 q 346 486 251 449 l 378 499 l 378 568 q 365 649 378 624 q 314 675 351 675 q 247 586 250 675 l 244 538 l 65 544 l 67 572 q 141 756 75 697 q 329 815 207 815 q 504 751 447 815 q 561 568 561 686 l 561 197 q 575 0 561 115 l 406 0 q 386 115 392 75 q 330 24 369 61 q 228 -12 290 -12 m 297 128 q 343 144 321 128 q 378 181 365 161 l 378 406 q 232 224 232 326 q 249 153 232 179 q 297 128 267 128 m 36 1150 l 199 1150 l 283 888 l 183 888 l 36 1150 m 281 1150 l 424 1150 l 493 888 l 394 888 l 281 1150 z "},"ä":{"ha":628,"x_min":54,"x_max":575,"o":"m 228 -12 q 137 15 176 -12 q 76 87 97 43 q 54 178 54 131 q 94 326 54 268 q 193 416 135 383 q 346 486 251 449 l 378 499 l 378 568 q 365 649 378 624 q 314 675 351 675 q 247 586 250 675 l 244 538 l 65 544 l 67 572 q 141 756 75 697 q 329 815 207 815 q 504 751 447 815 q 561 568 561 686 l 561 197 q 575 0 561 115 l 406 0 q 386 115 392 75 q 330 24 369 61 q 228 -12 290 -12 m 297 128 q 343 144 321 128 q 378 181 365 161 l 378 406 q 232 224 232 326 q 249 153 232 179 q 297 128 267 128 m 110 1125 l 276 1125 l 276 944 l 110 944 l 110 1125 m 382 1125 l 549 1125 l 549 944 l 382 944 l 382 1125 z "},"ạ":{"ha":628,"x_min":54,"x_max":575,"o":"m 228 -12 q 137 15 176 -12 q 76 87 97 43 q 54 178 54 131 q 94 326 54 268 q 193 416 135 383 q 346 486 251 449 l 378 499 l 378 568 q 365 649 378 624 q 314 675 351 675 q 247 586 250 675 l 244 538 l 65 544 l 67 572 q 141 756 75 697 q 329 815 207 815 q 504 751 447 815 q 561 568 561 686 l 561 197 q 575 0 561 115 l 406 0 q 386 115 392 75 q 330 24 369 61 q 228 -12 290 -12 m 297 128 q 343 144 321 128 q 378 181 365 161 l 378 406 q 232 224 232 326 q 249 153 232 179 q 297 128 267 128 m 228 -93 l 400 -93 l 400 -267 l 228 -267 l 228 -93 z "},"à":{"ha":628,"x_min":54,"x_max":575,"o":"m 228 -12 q 137 15 176 -12 q 76 87 97 43 q 54 178 54 131 q 94 326 54 268 q 193 416 135 383 q 346 486 251 449 l 378 499 l 378 568 q 365 649 378 624 q 314 675 351 675 q 247 586 250 675 l 244 538 l 65 544 l 67 572 q 141 756 75 697 q 329 815 207 815 q 504 751 447 815 q 561 568 561 686 l 561 197 q 575 0 561 115 l 406 0 q 386 115 392 75 q 330 24 369 61 q 228 -12 290 -12 m 297 128 q 343 144 321 128 q 378 181 365 161 l 378 406 q 232 224 232 326 q 249 153 232 179 q 297 128 267 128 m 113 1158 l 304 1158 l 386 881 l 278 881 l 113 1158 z "},"ả":{"ha":628,"x_min":54,"x_max":575,"o":"m 228 -12 q 137 15 176 -12 q 76 87 97 43 q 54 178 54 131 q 94 326 54 268 q 193 416 135 383 q 346 486 251 449 l 378 499 l 378 568 q 365 649 378 624 q 314 675 351 675 q 247 586 250 675 l 244 538 l 65 544 l 67 572 q 141 756 75 697 q 329 815 207 815 q 504 751 447 815 q 561 568 561 686 l 561 197 q 575 0 561 115 l 406 0 q 386 115 392 75 q 330 24 369 61 q 228 -12 290 -12 m 297 128 q 343 144 321 128 q 378 181 365 161 l 378 406 q 232 224 232 326 q 249 153 232 179 q 297 128 267 128 m 268 942 q 340 981 317 963 q 363 1025 363 999 q 281 1078 363 1078 q 203 1067 239 1078 l 203 1153 q 331 1169 265 1169 q 446 1137 400 1169 q 492 1039 492 1104 q 450 941 492 978 q 331 876 408 904 l 268 942 z "},"ȃ":{"ha":628,"x_min":54,"x_max":575,"o":"m 228 -12 q 137 15 176 -12 q 76 87 97 43 q 54 178 54 131 q 94 326 54 268 q 193 416 135 383 q 346 486 251 449 l 378 499 l 378 568 q 365 649 378 624 q 314 675 351 675 q 247 586 250 675 l 244 538 l 65 544 l 67 572 q 141 756 75 697 q 329 815 207 815 q 504 751 447 815 q 561 568 561 686 l 561 197 q 575 0 561 115 l 406 0 q 386 115 392 75 q 330 24 369 61 q 228 -12 290 -12 m 297 128 q 343 144 321 128 q 378 181 365 161 l 378 406 q 232 224 232 326 q 249 153 232 179 q 297 128 267 128 m 128 910 q 329 1124 131 1124 q 481 1067 432 1124 q 531 910 531 1011 l 422 910 q 401 997 422 971 q 329 1024 379 1024 q 258 997 279 1024 q 236 910 238 971 l 128 910 z "},"ā":{"ha":628,"x_min":54,"x_max":575,"o":"m 228 -12 q 137 15 176 -12 q 76 87 97 43 q 54 178 54 131 q 94 326 54 268 q 193 416 135 383 q 346 486 251 449 l 378 499 l 378 568 q 365 649 378 624 q 314 675 351 675 q 247 586 250 675 l 244 538 l 65 544 l 67 572 q 141 756 75 697 q 329 815 207 815 q 504 751 447 815 q 561 568 561 686 l 561 197 q 575 0 561 115 l 406 0 q 386 115 392 75 q 330 24 369 61 q 228 -12 290 -12 m 297 128 q 343 144 321 128 q 378 181 365 161 l 378 406 q 232 224 232 326 q 249 153 232 179 q 297 128 267 128 m 165 1036 l 493 1036 l 493 938 l 165 938 l 165 1036 z "},"ą":{"ha":628,"x_min":54,"x_max":604,"o":"m 561 -249 q 604 -246 579 -249 l 581 -337 q 532 -342 560 -342 q 383 -314 440 -342 q 325 -207 325 -286 q 365 -89 325 -149 q 456 0 404 -29 l 406 0 q 386 115 392 75 q 330 24 369 61 q 228 -12 290 -12 q 137 15 176 -12 q 76 87 97 43 q 54 178 54 131 q 94 326 54 268 q 193 416 135 383 q 346 486 251 449 l 378 499 l 378 568 q 365 649 378 624 q 314 675 351 675 q 247 586 250 675 l 244 538 l 65 544 l 67 572 q 141 756 75 697 q 329 815 207 815 q 504 751 447 815 q 561 568 561 686 l 561 197 q 575 0 561 115 l 544 0 q 461 -174 461 -101 q 561 -249 461 -249 m 378 406 q 232 224 232 326 q 249 153 232 179 q 297 128 267 128 q 343 144 321 128 q 378 181 365 161 l 378 406 z "},"å":{"ha":628,"x_min":54,"x_max":575,"o":"m 228 -12 q 137 15 176 -12 q 76 87 97 43 q 54 178 54 131 q 94 326 54 268 q 193 416 135 383 q 346 486 251 449 l 378 499 l 378 568 q 365 649 378 624 q 314 675 351 675 q 247 586 250 675 l 244 538 l 65 544 l 67 572 q 141 756 75 697 q 329 815 207 815 q 504 751 447 815 q 561 568 561 686 l 561 197 q 575 0 561 115 l 406 0 q 386 115 392 75 q 330 24 369 61 q 228 -12 290 -12 m 297 128 q 343 144 321 128 q 378 181 365 161 l 378 406 q 232 224 232 326 q 249 153 232 179 q 297 128 267 128 m 329 846 q 215 888 260 846 q 171 1000 171 929 q 215 1112 171 1071 q 329 1153 260 1153 q 443 1112 399 1153 q 488 1000 488 1071 q 443 888 488 929 q 329 846 399 846 m 329 924 q 383 945 363 924 q 403 1000 403 967 q 383 1056 403 1035 q 329 1076 364 1076 q 274 1056 294 1076 q 254 1000 254 1035 q 274 945 254 967 q 329 924 294 924 z "},"ǻ":{"ha":628,"x_min":54,"x_max":575,"o":"m 228 -12 q 137 15 176 -12 q 76 87 97 43 q 54 178 54 131 q 94 326 54 268 q 193 416 135 383 q 346 486 251 449 l 378 499 l 378 568 q 365 649 378 624 q 314 675 351 675 q 247 586 250 675 l 244 538 l 65 544 l 67 572 q 141 756 75 697 q 329 815 207 815 q 504 751 447 815 q 561 568 561 686 l 561 197 q 575 0 561 115 l 406 0 q 386 115 392 75 q 330 24 369 61 q 228 -12 290 -12 m 297 128 q 343 144 321 128 q 378 181 365 161 l 378 406 q 232 224 232 326 q 249 153 232 179 q 297 128 267 128 m 329 846 q 215 888 260 846 q 171 1000 171 929 q 215 1112 171 1071 q 329 1153 260 1153 q 443 1112 399 1153 q 488 1000 488 1071 q 443 888 488 929 q 329 846 399 846 m 329 924 q 383 945 363 924 q 403 1000 403 967 q 383 1056 403 1035 q 329 1076 364 1076 q 274 1056 294 1076 q 254 1000 254 1035 q 274 945 254 967 q 329 924 294 924 m 356 1494 l 547 1494 l 382 1217 l 272 1217 l 356 1494 z "},"ã":{"ha":628,"x_min":54,"x_max":575,"o":"m 228 -12 q 137 15 176 -12 q 76 87 97 43 q 54 178 54 131 q 94 326 54 268 q 193 416 135 383 q 346 486 251 449 l 378 499 l 378 568 q 365 649 378 624 q 314 675 351 675 q 247 586 250 675 l 244 538 l 65 544 l 67 572 q 141 756 75 697 q 329 815 207 815 q 504 751 447 815 q 561 568 561 686 l 561 197 q 575 0 561 115 l 406 0 q 386 115 392 75 q 330 24 369 61 q 228 -12 290 -12 m 297 128 q 343 144 321 128 q 378 181 365 161 l 378 406 q 232 224 232 326 q 249 153 232 179 q 297 128 267 128 m 438 950 q 389 959 411 950 q 339 986 367 968 q 297 1008 314 1000 q 261 1015 279 1015 q 224 1001 235 1015 q 213 958 213 986 l 115 958 q 233 1133 115 1133 q 277 1125 257 1133 q 326 1100 297 1117 q 371 1077 354 1085 q 407 1069 388 1069 q 451 1125 451 1069 l 543 1125 q 521 998 543 1046 q 438 950 499 950 z "},"æ":{"ha":917,"x_min":50,"x_max":860,"o":"m 681 279 l 860 279 l 860 231 q 802 49 860 113 q 629 -14 744 -14 q 511 25 563 -14 q 447 129 460 64 q 367 25 419 64 q 247 -14 314 -14 q 106 42 161 -14 q 50 185 50 97 q 110 355 50 296 q 278 439 171 414 l 374 463 l 374 564 q 358 647 374 619 q 307 674 343 674 q 253 644 269 674 q 238 549 238 614 l 53 553 q 114 747 51 678 q 296 815 176 815 q 401 790 358 815 q 463 722 444 765 q 535 790 483 764 q 651 815 586 815 q 807 762 754 815 q 860 618 860 708 q 804 484 860 526 q 651 419 749 442 l 556 399 l 556 308 q 558 213 556 249 q 576 152 561 178 q 621 126 590 126 q 669 156 657 126 q 681 240 681 185 l 681 279 m 556 490 l 604 501 q 675 536 653 514 q 697 601 697 558 q 681 653 697 633 q 629 672 664 672 q 572 644 589 672 q 556 564 556 617 l 556 490 m 374 369 l 319 350 q 247 293 269 325 q 225 214 225 261 q 243 146 225 171 q 292 121 261 121 q 351 157 328 121 q 374 263 374 193 l 374 369 z "},"ǽ":{"ha":917,"x_min":50,"x_max":860,"o":"m 681 279 l 860 279 l 860 231 q 802 49 860 113 q 629 -14 744 -14 q 511 25 563 -14 q 447 129 460 64 q 367 25 419 64 q 247 -14 314 -14 q 106 42 161 -14 q 50 185 50 97 q 110 355 50 296 q 278 439 171 414 l 374 463 l 374 564 q 358 647 374 619 q 307 674 343 674 q 253 644 269 674 q 238 549 238 614 l 53 553 q 114 747 51 678 q 296 815 176 815 q 401 790 358 815 q 463 722 444 765 q 535 790 483 764 q 651 815 586 815 q 807 762 754 815 q 860 618 860 708 q 804 484 860 526 q 651 419 749 442 l 556 399 l 556 308 q 558 213 556 249 q 576 152 561 178 q 621 126 590 126 q 669 156 657 126 q 681 240 681 185 l 681 279 m 556 490 l 604 501 q 675 536 653 514 q 697 601 697 558 q 681 653 697 633 q 629 672 664 672 q 572 644 589 672 q 556 564 556 617 l 556 490 m 374 369 l 319 350 q 247 293 269 325 q 225 214 225 261 q 243 146 225 171 q 292 121 261 121 q 351 157 328 121 q 374 263 374 193 l 374 369 m 486 1158 l 678 1158 l 513 881 l 403 881 l 486 1158 z "},"b":{"ha":663,"x_min":75,"x_max":604,"o":"m 418 -12 q 263 60 339 -12 l 263 0 l 75 0 l 75 1125 l 263 1125 l 263 742 q 422 815 339 815 q 563 735 522 815 q 604 547 604 656 l 604 275 q 559 67 604 146 q 418 -12 514 -12 m 346 119 q 401 158 388 119 q 415 268 415 197 l 415 557 q 344 689 415 689 q 263 656 310 689 l 263 147 q 346 119 301 119 z "},"ḃ":{"ha":663,"x_min":75,"x_max":604,"o":"m 418 -12 q 263 60 339 -12 l 263 0 l 75 0 l 75 1125 l 263 1125 l 263 742 q 422 815 339 815 q 563 735 522 815 q 604 547 604 656 l 604 275 q 559 67 604 146 q 418 -12 514 -12 m 346 119 q 401 158 388 119 q 415 268 415 197 l 415 557 q 344 689 415 689 q 263 656 310 689 l 263 147 q 346 119 301 119 m 78 1431 l 261 1431 l 261 1240 l 78 1240 l 78 1431 z "},"c":{"ha":613,"x_min":57,"x_max":560,"o":"m 314 -12 q 118 63 179 -12 q 57 281 57 139 l 57 522 q 118 740 57 665 q 314 815 179 815 q 501 754 442 815 q 560 568 560 693 l 560 501 l 382 501 l 382 572 q 367 658 382 635 q 315 682 353 682 q 260 653 275 682 q 246 546 246 624 l 246 251 q 262 149 246 176 q 315 121 278 121 q 368 147 354 121 q 382 229 382 172 l 382 315 l 560 315 l 560 239 q 500 51 560 115 q 314 -12 440 -12 z "},"ć":{"ha":613,"x_min":57,"x_max":560,"o":"m 314 -12 q 118 63 179 -12 q 57 281 57 139 l 57 522 q 118 740 57 665 q 314 815 179 815 q 501 754 442 815 q 560 568 560 693 l 560 501 l 382 501 l 382 572 q 367 658 382 635 q 315 682 353 682 q 260 653 275 682 q 246 546 246 624 l 246 251 q 262 149 246 176 q 315 121 278 121 q 368 147 354 121 q 382 229 382 172 l 382 315 l 560 315 l 560 239 q 500 51 560 115 q 314 -12 440 -12 m 333 1158 l 525 1158 l 360 881 l 250 881 l 333 1158 z "},"č":{"ha":613,"x_min":57,"x_max":560,"o":"m 314 -12 q 118 63 179 -12 q 57 281 57 139 l 57 522 q 118 740 57 665 q 314 815 179 815 q 501 754 442 815 q 560 568 560 693 l 560 501 l 382 501 l 382 572 q 367 658 382 635 q 315 682 353 682 q 260 653 275 682 q 246 546 246 624 l 246 251 q 262 149 246 176 q 315 121 278 121 q 368 147 354 121 q 382 229 382 172 l 382 315 l 560 315 l 560 239 q 500 51 560 115 q 314 -12 440 -12 m 93 1136 l 232 1136 l 307 979 l 382 1136 l 521 1136 l 399 886 l 214 886 l 93 1136 z "},"ç":{"ha":613,"x_min":57,"x_max":560,"o":"m 382 501 l 382 572 q 367 658 382 635 q 315 682 353 682 q 260 653 275 682 q 246 546 246 624 l 246 251 q 262 149 246 176 q 315 121 278 121 q 368 147 354 121 q 382 229 382 172 l 382 315 l 560 315 l 560 239 q 347 -11 560 6 l 347 -85 q 473 -119 426 -85 q 519 -217 519 -153 q 466 -322 519 -286 q 331 -357 413 -357 q 231 -342 283 -357 l 231 -254 q 306 -265 264 -265 q 390 -214 390 -265 q 268 -139 390 -151 l 268 -10 q 57 281 57 14 l 57 522 q 118 740 57 665 q 314 815 179 815 q 501 754 442 815 q 560 568 560 693 l 560 501 l 382 501 z "},"ĉ":{"ha":613,"x_min":57,"x_max":560,"o":"m 314 -12 q 118 63 179 -12 q 57 281 57 139 l 57 522 q 118 740 57 665 q 314 815 179 815 q 501 754 442 815 q 560 568 560 693 l 560 501 l 382 501 l 382 572 q 367 658 382 635 q 315 682 353 682 q 260 653 275 682 q 246 546 246 624 l 246 251 q 262 149 246 176 q 315 121 278 121 q 368 147 354 121 q 382 229 382 172 l 382 315 l 560 315 l 560 239 q 500 51 560 115 q 314 -12 440 -12 m 221 1147 l 390 1147 l 518 892 l 378 892 l 306 1058 l 235 892 l 96 892 l 221 1147 z "},"ċ":{"ha":613,"x_min":57,"x_max":560,"o":"m 314 -12 q 118 63 179 -12 q 57 281 57 139 l 57 522 q 118 740 57 665 q 314 815 179 815 q 501 754 442 815 q 560 568 560 693 l 560 501 l 382 501 l 382 572 q 367 658 382 635 q 315 682 353 682 q 260 653 275 682 q 246 546 246 624 l 246 251 q 262 149 246 176 q 315 121 278 121 q 368 147 354 121 q 382 229 382 172 l 382 315 l 560 315 l 560 239 q 500 51 560 115 q 314 -12 440 -12 m 215 1108 l 399 1108 l 399 918 l 215 918 l 215 1108 z "},"d":{"ha":658,"x_min":60,"x_max":586,"o":"m 250 -12 q 107 57 154 -12 q 60 274 60 126 l 60 519 q 105 735 60 656 q 251 815 150 815 q 396 751 329 815 l 396 1125 l 586 1125 l 586 0 l 396 0 l 396 57 q 250 -12 329 -12 m 321 118 q 396 144 357 118 l 396 660 q 321 686 360 686 q 249 560 249 686 l 249 260 q 264 155 249 192 q 321 118 279 118 z "},"ð":{"ha":689,"x_min":74,"x_max":639,"o":"m 339 -17 q 138 63 201 -17 q 74 303 74 142 l 74 469 q 133 703 74 615 q 306 792 192 792 q 425 754 371 792 q 411 854 422 808 q 385 922 400 900 l 242 865 l 229 931 l 346 978 q 276 1020 324 1006 q 149 1035 229 1035 l 158 1156 q 363 1127 283 1154 q 486 1043 442 1100 l 626 1100 l 639 1035 l 525 989 q 592 806 568 903 q 617 571 617 708 l 617 314 q 339 -17 617 -17 m 340 118 q 410 156 393 118 q 428 271 428 193 l 428 447 q 426 626 428 571 q 413 638 424 629 q 385 651 401 646 q 351 657 369 657 q 295 631 315 657 q 267 551 275 606 q 260 397 260 496 l 260 299 q 274 160 260 203 q 340 118 289 118 z "},"ď":{"ha":813,"x_min":60,"x_max":838,"o":"m 250 -12 q 107 57 154 -12 q 60 274 60 126 l 60 519 q 105 735 60 656 q 251 815 150 815 q 396 751 329 815 l 396 1125 l 586 1125 l 586 0 l 396 0 l 396 57 q 250 -12 329 -12 m 321 118 q 396 144 357 118 l 396 660 q 321 686 360 686 q 249 560 249 686 l 249 260 q 264 155 249 192 q 321 118 279 118 m 663 818 q 728 859 703 829 q 753 938 753 889 l 653 938 l 653 1125 l 838 1125 l 838 954 q 799 815 838 865 q 681 750 760 765 l 663 818 z "},"đ":{"ha":664,"x_min":57,"x_max":657,"o":"m 247 -12 q 104 57 151 -12 q 57 274 57 126 l 57 519 q 102 735 57 654 q 249 815 147 815 q 393 751 325 815 l 393 944 l 222 944 l 222 1031 l 393 1031 l 393 1125 l 582 1125 l 582 1031 l 657 1031 l 657 944 l 582 944 l 582 0 l 393 0 l 393 57 q 247 -12 326 -12 m 319 118 q 393 144 354 118 l 393 660 q 318 686 354 686 q 263 651 281 686 q 246 560 246 617 l 246 260 q 262 155 246 192 q 319 118 278 118 z "},"ḋ":{"ha":658,"x_min":60,"x_max":586,"o":"m 250 -12 q 107 57 154 -12 q 60 274 60 126 l 60 519 q 105 735 60 656 q 251 815 150 815 q 396 751 329 815 l 396 1125 l 586 1125 l 586 0 l 396 0 l 396 57 q 250 -12 329 -12 m 321 118 q 396 144 357 118 l 396 660 q 321 686 360 686 q 249 560 249 686 l 249 260 q 264 155 249 192 q 321 118 279 118 m 400 1431 l 583 1431 l 583 1240 l 400 1240 l 400 1431 z "},"ǳ":{"ha":1172,"x_min":60,"x_max":1136,"o":"m 250 -12 q 107 57 154 -12 q 60 274 60 126 l 60 519 q 105 735 60 656 q 251 815 150 815 q 396 751 329 815 l 396 1125 l 586 1125 l 586 0 l 396 0 l 396 57 q 250 -12 329 -12 m 321 118 q 396 144 357 118 l 396 660 q 321 686 360 686 q 249 560 249 686 l 249 260 q 264 155 249 192 q 321 118 279 118 m 706 124 l 938 664 l 725 664 l 725 803 l 1136 803 l 1136 693 l 903 140 l 1136 140 l 1136 0 l 706 0 l 706 124 z "},"ǆ":{"ha":1172,"x_min":60,"x_max":1136,"o":"m 250 -12 q 107 57 154 -12 q 60 274 60 126 l 60 519 q 105 735 60 656 q 251 815 150 815 q 396 751 329 815 l 396 1125 l 586 1125 l 586 0 l 396 0 l 396 57 q 250 -12 329 -12 m 321 118 q 396 144 357 118 l 396 660 q 321 686 360 686 q 249 560 249 686 l 249 260 q 264 155 249 192 q 321 118 279 118 m 706 124 l 938 664 l 725 664 l 725 803 l 1136 803 l 1136 693 l 903 140 l 1136 140 l 1136 0 l 706 0 l 706 124 m 703 1136 l 842 1136 l 917 979 l 992 1136 l 1131 1136 l 1008 886 l 824 886 l 703 1136 z "},"e":{"ha":619,"x_min":57,"x_max":564,"o":"m 315 -12 q 119 62 182 -12 q 57 282 57 136 l 57 521 q 120 742 57 668 q 315 815 183 815 q 508 739 451 815 q 564 508 564 663 l 564 393 l 244 393 l 244 268 q 258 158 244 193 q 315 124 271 124 q 369 149 353 124 q 385 228 385 175 l 385 296 l 563 296 l 563 240 q 500 52 563 117 q 315 -12 438 -12 m 385 486 l 385 563 q 369 652 385 625 q 315 679 354 679 q 260 650 275 679 q 244 542 244 621 l 244 486 l 385 486 z "},"é":{"ha":619,"x_min":57,"x_max":564,"o":"m 315 -12 q 119 62 182 -12 q 57 282 57 136 l 57 521 q 120 742 57 668 q 315 815 183 815 q 508 739 451 815 q 564 508 564 663 l 564 393 l 244 393 l 244 268 q 258 158 244 193 q 315 124 271 124 q 369 149 353 124 q 385 228 385 175 l 385 296 l 563 296 l 563 240 q 500 52 563 117 q 315 -12 438 -12 m 385 486 l 385 563 q 369 652 385 625 q 315 679 354 679 q 260 650 275 679 q 244 542 244 621 l 244 486 l 385 486 m 339 1158 l 531 1158 l 365 881 l 256 881 l 339 1158 z "},"ĕ":{"ha":619,"x_min":57,"x_max":564,"o":"m 315 -12 q 119 62 182 -12 q 57 282 57 136 l 57 521 q 120 742 57 668 q 315 815 183 815 q 508 739 451 815 q 564 508 564 663 l 564 393 l 244 393 l 244 268 q 258 158 244 193 q 315 124 271 124 q 369 149 353 124 q 385 228 385 175 l 385 296 l 563 296 l 563 240 q 500 52 563 117 q 315 -12 438 -12 m 385 486 l 385 563 q 369 652 385 625 q 315 679 354 679 q 260 650 275 679 q 244 542 244 621 l 244 486 l 385 486 m 313 892 q 164 946 215 892 q 113 1094 113 1000 l 219 1094 q 242 1017 221 1042 q 313 992 264 992 q 384 1017 363 992 q 406 1094 406 1043 l 514 1094 q 463 946 514 1000 q 313 892 411 892 z "},"ě":{"ha":619,"x_min":57,"x_max":564,"o":"m 315 -12 q 119 62 182 -12 q 57 282 57 136 l 57 521 q 120 742 57 668 q 315 815 183 815 q 508 739 451 815 q 564 508 564 663 l 564 393 l 244 393 l 244 268 q 258 158 244 193 q 315 124 271 124 q 369 149 353 124 q 385 228 385 175 l 385 296 l 563 296 l 563 240 q 500 52 563 117 q 315 -12 438 -12 m 385 486 l 385 563 q 369 652 385 625 q 315 679 354 679 q 260 650 275 679 q 244 542 244 621 l 244 486 l 385 486 m 99 1136 l 238 1136 l 313 979 l 388 1136 l 526 1136 l 404 886 l 219 886 l 99 1136 z "},"ê":{"ha":619,"x_min":57,"x_max":564,"o":"m 315 -12 q 119 62 182 -12 q 57 282 57 136 l 57 521 q 120 742 57 668 q 315 815 183 815 q 508 739 451 815 q 564 508 564 663 l 564 393 l 244 393 l 244 268 q 258 158 244 193 q 315 124 271 124 q 369 149 353 124 q 385 228 385 175 l 385 296 l 563 296 l 563 240 q 500 52 563 117 q 315 -12 438 -12 m 385 486 l 385 563 q 369 652 385 625 q 315 679 354 679 q 260 650 275 679 q 244 542 244 621 l 244 486 l 385 486 m 226 1147 l 396 1147 l 524 892 l 383 892 l 311 1058 l 240 892 l 101 892 l 226 1147 z "},"ế":{"ha":619,"x_min":57,"x_max":718,"o":"m 315 -12 q 119 62 182 -12 q 57 282 57 136 l 57 521 q 120 742 57 668 q 315 815 183 815 q 508 739 451 815 q 564 508 564 663 l 564 393 l 244 393 l 244 268 q 258 158 244 193 q 315 124 271 124 q 369 149 353 124 q 385 228 385 175 l 385 296 l 563 296 l 563 240 q 500 52 563 117 q 315 -12 438 -12 m 385 486 l 385 563 q 369 652 385 625 q 315 679 354 679 q 260 650 275 679 q 244 542 244 621 l 244 486 l 385 486 m 568 1211 l 718 1211 l 600 1046 l 494 1046 l 568 1211 m 226 1115 l 396 1115 l 524 892 l 386 892 l 311 1032 l 238 892 l 101 892 l 226 1115 z "},"ệ":{"ha":619,"x_min":57,"x_max":564,"o":"m 315 -12 q 119 62 182 -12 q 57 282 57 136 l 57 521 q 120 742 57 668 q 315 815 183 815 q 508 739 451 815 q 564 508 564 663 l 564 393 l 244 393 l 244 268 q 258 158 244 193 q 315 124 271 124 q 369 149 353 124 q 385 228 385 175 l 385 296 l 563 296 l 563 240 q 500 52 563 117 q 315 -12 438 -12 m 385 486 l 385 563 q 369 652 385 625 q 315 679 354 679 q 260 650 275 679 q 244 542 244 621 l 244 486 l 385 486 m 224 -93 l 396 -93 l 396 -267 l 224 -267 l 224 -93 m 226 1115 l 396 1115 l 524 892 l 386 892 l 311 1032 l 238 892 l 101 892 l 226 1115 z "},"ề":{"ha":619,"x_min":57,"x_max":639,"o":"m 315 -12 q 119 62 182 -12 q 57 282 57 136 l 57 521 q 120 742 57 668 q 315 815 183 815 q 508 739 451 815 q 564 508 564 663 l 564 393 l 244 393 l 244 268 q 258 158 244 193 q 315 124 271 124 q 369 149 353 124 q 385 228 385 175 l 385 296 l 563 296 l 563 240 q 500 52 563 117 q 315 -12 438 -12 m 385 486 l 385 563 q 369 652 385 625 q 315 679 354 679 q 260 650 275 679 q 244 542 244 621 l 244 486 l 385 486 m 415 1211 l 565 1211 l 639 1046 l 532 1046 l 415 1211 m 226 1115 l 396 1115 l 524 892 l 386 892 l 311 1032 l 238 892 l 101 892 l 226 1115 z "},"ể":{"ha":619,"x_min":57,"x_max":669,"o":"m 315 -12 q 119 62 182 -12 q 57 282 57 136 l 57 521 q 120 742 57 668 q 315 815 183 815 q 508 739 451 815 q 564 508 564 663 l 564 393 l 244 393 l 244 268 q 258 158 244 193 q 315 124 271 124 q 369 149 353 124 q 385 228 385 175 l 385 296 l 563 296 l 563 240 q 500 52 563 117 q 315 -12 438 -12 m 385 486 l 385 563 q 369 652 385 625 q 315 679 354 679 q 260 650 275 679 q 244 542 244 621 l 244 486 l 385 486 m 485 1075 q 528 1115 514 1096 q 543 1157 543 1133 q 525 1197 543 1183 q 476 1211 507 1211 q 410 1200 440 1211 l 410 1285 q 518 1303 460 1303 q 628 1269 586 1303 q 669 1174 669 1236 q 635 1078 669 1115 q 540 1013 601 1042 l 485 1075 m 226 1115 l 396 1115 l 524 892 l 386 892 l 311 1032 l 238 892 l 101 892 l 226 1115 z "},"ễ":{"ha":619,"x_min":57,"x_max":564,"o":"m 315 -12 q 119 62 182 -12 q 57 282 57 136 l 57 521 q 120 742 57 668 q 315 815 183 815 q 508 739 451 815 q 564 508 564 663 l 564 393 l 244 393 l 244 268 q 258 158 244 193 q 315 124 271 124 q 369 149 353 124 q 385 228 385 175 l 385 296 l 563 296 l 563 240 q 500 52 563 117 q 315 -12 438 -12 m 385 486 l 385 563 q 369 652 385 625 q 315 679 354 679 q 260 650 275 679 q 244 542 244 621 l 244 486 l 385 486 m 226 1115 l 396 1115 l 524 892 l 386 892 l 311 1032 l 238 892 l 101 892 l 226 1115 m 421 1183 q 372 1192 394 1183 q 322 1219 350 1201 q 280 1241 297 1233 q 244 1249 263 1249 q 207 1234 218 1249 q 196 1192 196 1219 l 99 1192 q 217 1367 99 1367 q 260 1358 240 1367 q 310 1333 281 1350 q 354 1310 338 1318 q 390 1303 371 1303 q 435 1358 435 1303 l 526 1358 q 504 1231 526 1279 q 421 1183 482 1183 z "},"ȅ":{"ha":619,"x_min":19,"x_max":564,"o":"m 315 -12 q 119 62 182 -12 q 57 282 57 136 l 57 521 q 120 742 57 668 q 315 815 183 815 q 508 739 451 815 q 564 508 564 663 l 564 393 l 244 393 l 244 268 q 258 158 244 193 q 315 124 271 124 q 369 149 353 124 q 385 228 385 175 l 385 296 l 563 296 l 563 240 q 500 52 563 117 q 315 -12 438 -12 m 385 486 l 385 563 q 369 652 385 625 q 315 679 354 679 q 260 650 275 679 q 244 542 244 621 l 244 486 l 385 486 m 19 1150 l 182 1150 l 267 888 l 167 888 l 19 1150 m 264 1150 l 407 1150 l 476 888 l 378 888 l 264 1150 z "},"ë":{"ha":619,"x_min":57,"x_max":564,"o":"m 315 -12 q 119 62 182 -12 q 57 282 57 136 l 57 521 q 120 742 57 668 q 315 815 183 815 q 508 739 451 815 q 564 508 564 663 l 564 393 l 244 393 l 244 268 q 258 158 244 193 q 315 124 271 124 q 369 149 353 124 q 385 228 385 175 l 385 296 l 563 296 l 563 240 q 500 52 563 117 q 315 -12 438 -12 m 385 486 l 385 563 q 369 652 385 625 q 315 679 354 679 q 260 650 275 679 q 244 542 244 621 l 244 486 l 385 486 m 93 1125 l 260 1125 l 260 944 l 93 944 l 93 1125 m 365 1125 l 532 1125 l 532 944 l 365 944 l 365 1125 z "},"ė":{"ha":619,"x_min":57,"x_max":564,"o":"m 315 -12 q 119 62 182 -12 q 57 282 57 136 l 57 521 q 120 742 57 668 q 315 815 183 815 q 508 739 451 815 q 564 508 564 663 l 564 393 l 244 393 l 244 268 q 258 158 244 193 q 315 124 271 124 q 369 149 353 124 q 385 228 385 175 l 385 296 l 563 296 l 563 240 q 500 52 563 117 q 315 -12 438 -12 m 385 486 l 385 563 q 369 652 385 625 q 315 679 354 679 q 260 650 275 679 q 244 542 244 621 l 244 486 l 385 486 m 221 1108 l 404 1108 l 404 918 l 221 918 l 221 1108 z "},"ẹ":{"ha":619,"x_min":57,"x_max":564,"o":"m 315 -12 q 119 62 182 -12 q 57 282 57 136 l 57 521 q 120 742 57 668 q 315 815 183 815 q 508 739 451 815 q 564 508 564 663 l 564 393 l 244 393 l 244 268 q 258 158 244 193 q 315 124 271 124 q 369 149 353 124 q 385 228 385 175 l 385 296 l 563 296 l 563 240 q 500 52 563 117 q 315 -12 438 -12 m 385 486 l 385 563 q 369 652 385 625 q 315 679 354 679 q 260 650 275 679 q 244 542 244 621 l 244 486 l 385 486 m 224 -93 l 396 -93 l 396 -267 l 224 -267 l 224 -93 z "},"è":{"ha":619,"x_min":57,"x_max":564,"o":"m 315 -12 q 119 62 182 -12 q 57 282 57 136 l 57 521 q 120 742 57 668 q 315 815 183 815 q 508 739 451 815 q 564 508 564 663 l 564 393 l 244 393 l 244 268 q 258 158 244 193 q 315 124 271 124 q 369 149 353 124 q 385 228 385 175 l 385 296 l 563 296 l 563 240 q 500 52 563 117 q 315 -12 438 -12 m 385 486 l 385 563 q 369 652 385 625 q 315 679 354 679 q 260 650 275 679 q 244 542 244 621 l 244 486 l 385 486 m 96 1158 l 288 1158 l 369 881 l 261 881 l 96 1158 z "},"ẻ":{"ha":619,"x_min":57,"x_max":564,"o":"m 315 -12 q 119 62 182 -12 q 57 282 57 136 l 57 521 q 120 742 57 668 q 315 815 183 815 q 508 739 451 815 q 564 508 564 663 l 564 393 l 244 393 l 244 268 q 258 158 244 193 q 315 124 271 124 q 369 149 353 124 q 385 228 385 175 l 385 296 l 563 296 l 563 240 q 500 52 563 117 q 315 -12 438 -12 m 385 486 l 385 563 q 369 652 385 625 q 315 679 354 679 q 260 650 275 679 q 244 542 244 621 l 244 486 l 385 486 m 251 942 q 323 981 300 963 q 346 1025 346 999 q 264 1078 346 1078 q 186 1067 222 1078 l 186 1153 q 314 1169 249 1169 q 429 1137 383 1169 q 475 1039 475 1104 q 433 941 475 978 q 314 876 392 904 l 251 942 z "},"ȇ":{"ha":619,"x_min":57,"x_max":564,"o":"m 315 -12 q 119 62 182 -12 q 57 282 57 136 l 57 521 q 120 742 57 668 q 315 815 183 815 q 508 739 451 815 q 564 508 564 663 l 564 393 l 244 393 l 244 268 q 258 158 244 193 q 315 124 271 124 q 369 149 353 124 q 385 228 385 175 l 385 296 l 563 296 l 563 240 q 500 52 563 117 q 315 -12 438 -12 m 385 486 l 385 563 q 369 652 385 625 q 315 679 354 679 q 260 650 275 679 q 244 542 244 621 l 244 486 l 385 486 m 111 910 q 313 1124 114 1124 q 465 1067 415 1124 q 514 910 514 1011 l 406 910 q 384 997 406 971 q 313 1024 363 1024 q 242 997 263 1024 q 219 910 221 971 l 111 910 z "},"ē":{"ha":619,"x_min":57,"x_max":564,"o":"m 315 -12 q 119 62 182 -12 q 57 282 57 136 l 57 521 q 120 742 57 668 q 315 815 183 815 q 508 739 451 815 q 564 508 564 663 l 564 393 l 244 393 l 244 268 q 258 158 244 193 q 315 124 271 124 q 369 149 353 124 q 385 228 385 175 l 385 296 l 563 296 l 563 240 q 500 52 563 117 q 315 -12 438 -12 m 385 486 l 385 563 q 369 652 385 625 q 315 679 354 679 q 260 650 275 679 q 244 542 244 621 l 244 486 l 385 486 m 149 1036 l 476 1036 l 476 938 l 149 938 l 149 1036 z "},"ę":{"ha":619,"x_min":57,"x_max":564,"o":"m 244 393 l 244 268 q 258 158 244 193 q 315 124 271 124 q 369 149 353 124 q 385 228 385 175 l 385 296 l 563 296 l 563 240 q 519 76 563 139 q 392 -4 476 14 q 324 -160 324 -94 q 424 -235 324 -235 q 467 -232 442 -235 l 443 -324 q 394 -328 422 -328 q 245 -300 303 -328 q 188 -193 188 -272 q 215 -97 188 -146 q 283 -11 242 -47 q 112 72 167 -1 q 57 282 57 146 l 57 521 q 120 742 57 668 q 315 815 183 815 q 508 739 451 815 q 564 508 564 663 l 564 393 l 244 393 m 244 486 l 385 486 l 385 563 q 369 652 385 625 q 315 679 354 679 q 260 650 275 679 q 244 542 244 621 l 244 486 z "},"ẽ":{"ha":619,"x_min":57,"x_max":564,"o":"m 315 -12 q 119 62 182 -12 q 57 282 57 136 l 57 521 q 120 742 57 668 q 315 815 183 815 q 508 739 451 815 q 564 508 564 663 l 564 393 l 244 393 l 244 268 q 258 158 244 193 q 315 124 271 124 q 369 149 353 124 q 385 228 385 175 l 385 296 l 563 296 l 563 240 q 500 52 563 117 q 315 -12 438 -12 m 385 486 l 385 563 q 369 652 385 625 q 315 679 354 679 q 260 650 275 679 q 244 542 244 621 l 244 486 l 385 486 m 421 950 q 372 959 394 950 q 322 986 350 968 q 280 1008 297 1000 q 244 1015 263 1015 q 207 1001 218 1015 q 196 958 196 986 l 99 958 q 217 1133 99 1133 q 260 1125 240 1133 q 310 1100 281 1117 q 354 1077 338 1085 q 390 1069 371 1069 q 435 1125 435 1069 l 526 1125 q 504 998 526 1046 q 421 950 482 950 z "},"ə":{"ha":619,"x_min":56,"x_max":563,"o":"m 304 -15 q 112 61 168 -15 q 56 293 56 138 l 56 408 l 375 408 l 375 536 q 362 644 375 610 q 306 679 349 679 q 251 654 268 679 q 235 576 235 629 l 235 508 l 57 508 l 57 564 q 119 751 57 686 q 304 815 182 815 q 500 741 438 815 q 563 522 563 667 l 563 279 q 499 59 563 133 q 304 -15 436 -15 m 306 122 q 360 151 344 122 q 375 258 375 181 l 375 314 l 235 314 l 235 239 q 250 149 235 176 q 306 122 265 122 z "},"f":{"ha":422,"x_min":25,"x_max":411,"o":"m 111 671 l 25 671 l 25 803 l 111 803 l 111 854 q 125 986 111 936 q 182 1064 139 1036 q 308 1092 225 1092 q 411 1085 344 1092 l 411 944 q 385 949 401 946 q 360 951 369 951 q 313 931 326 951 q 299 868 299 910 l 299 803 l 411 803 l 411 671 l 299 671 l 299 0 l 111 0 l 111 671 z "},"ḟ":{"ha":422,"x_min":25,"x_max":411,"o":"m 111 671 l 25 671 l 25 803 l 111 803 l 111 854 q 125 986 111 936 q 182 1064 139 1036 q 308 1092 225 1092 q 411 1085 344 1092 l 411 944 q 385 949 401 946 q 360 951 369 951 q 313 931 326 951 q 299 868 299 910 l 299 803 l 411 803 l 411 671 l 299 671 l 299 0 l 111 0 l 111 671 m 181 1390 l 364 1390 l 364 1200 l 181 1200 l 181 1390 z "},"g":{"ha":651,"x_min":31,"x_max":669,"o":"m 350 -244 q 120 -217 210 -244 q 31 -104 31 -190 q 64 -8 31 -51 q 146 65 97 35 q 76 107 97 82 q 56 165 56 132 q 78 233 56 203 q 150 306 101 264 q 83 391 106 340 q 60 525 60 442 q 126 742 60 669 q 315 815 192 815 q 489 736 442 815 q 599 824 540 796 l 625 835 l 669 733 q 599 707 644 726 q 535 675 553 688 q 558 608 547 650 q 568 524 568 567 q 509 320 568 393 q 324 247 450 247 q 219 264 267 247 q 193 206 190 225 q 264 172 193 181 q 364 160 283 168 q 415 154 379 158 q 567 94 519 142 q 614 -40 614 47 q 551 -194 614 -143 q 350 -244 489 -244 m 317 367 q 381 404 365 367 q 396 531 396 442 q 382 658 396 621 q 318 696 368 696 q 253 657 268 696 q 238 531 238 618 q 253 408 238 449 q 317 367 269 367 m 347 -117 q 437 -101 408 -117 q 467 -51 465 -86 q 449 3 469 -14 q 369 26 428 21 l 247 40 q 213 -6 226 17 q 200 -53 200 -28 q 231 -102 200 -87 q 347 -117 261 -117 z "},"ǵ":{"ha":651,"x_min":31,"x_max":669,"o":"m 350 -244 q 120 -217 210 -244 q 31 -104 31 -190 q 64 -8 31 -51 q 146 65 97 35 q 76 107 97 82 q 56 165 56 132 q 78 233 56 203 q 150 306 101 264 q 83 391 106 340 q 60 525 60 442 q 126 742 60 669 q 315 815 192 815 q 489 736 442 815 q 599 824 540 796 l 625 835 l 669 733 q 599 707 644 726 q 535 675 553 688 q 558 608 547 650 q 568 524 568 567 q 509 320 568 393 q 324 247 450 247 q 219 264 267 247 q 193 206 190 225 q 264 172 193 181 q 364 160 283 168 q 415 154 379 158 q 567 94 519 142 q 614 -40 614 47 q 551 -194 614 -143 q 350 -244 489 -244 m 317 367 q 381 404 365 367 q 396 531 396 442 q 382 658 396 621 q 318 696 368 696 q 253 657 268 696 q 238 531 238 618 q 253 408 238 449 q 317 367 269 367 m 347 -117 q 437 -101 408 -117 q 467 -51 465 -86 q 449 3 469 -14 q 369 26 428 21 l 247 40 q 213 -6 226 17 q 200 -53 200 -28 q 231 -102 200 -87 q 347 -117 261 -117 m 353 1158 l 544 1158 l 379 881 l 269 881 l 353 1158 z "},"ğ":{"ha":651,"x_min":31,"x_max":669,"o":"m 350 -244 q 120 -217 210 -244 q 31 -104 31 -190 q 64 -8 31 -51 q 146 65 97 35 q 76 107 97 82 q 56 165 56 132 q 78 233 56 203 q 150 306 101 264 q 83 391 106 340 q 60 525 60 442 q 126 742 60 669 q 315 815 192 815 q 489 736 442 815 q 599 824 540 796 l 625 835 l 669 733 q 599 707 644 726 q 535 675 553 688 q 558 608 547 650 q 568 524 568 567 q 509 320 568 393 q 324 247 450 247 q 219 264 267 247 q 193 206 190 225 q 264 172 193 181 q 364 160 283 168 q 415 154 379 158 q 567 94 519 142 q 614 -40 614 47 q 551 -194 614 -143 q 350 -244 489 -244 m 317 367 q 381 404 365 367 q 396 531 396 442 q 382 658 396 621 q 318 696 368 696 q 253 657 268 696 q 238 531 238 618 q 253 408 238 449 q 317 367 269 367 m 347 -117 q 437 -101 408 -117 q 467 -51 465 -86 q 449 3 469 -14 q 369 26 428 21 l 247 40 q 213 -6 226 17 q 200 -53 200 -28 q 231 -102 200 -87 q 347 -117 261 -117 m 326 892 q 178 946 229 892 q 126 1094 126 1000 l 233 1094 q 256 1017 235 1042 q 326 992 278 992 q 398 1017 376 992 q 419 1094 419 1043 l 528 1094 q 476 946 528 1000 q 326 892 425 892 z "},"ǧ":{"ha":651,"x_min":31,"x_max":669,"o":"m 350 -244 q 120 -217 210 -244 q 31 -104 31 -190 q 64 -8 31 -51 q 146 65 97 35 q 76 107 97 82 q 56 165 56 132 q 78 233 56 203 q 150 306 101 264 q 83 391 106 340 q 60 525 60 442 q 126 742 60 669 q 315 815 192 815 q 489 736 442 815 q 599 824 540 796 l 625 835 l 669 733 q 599 707 644 726 q 535 675 553 688 q 558 608 547 650 q 568 524 568 567 q 509 320 568 393 q 324 247 450 247 q 219 264 267 247 q 193 206 190 225 q 264 172 193 181 q 364 160 283 168 q 415 154 379 158 q 567 94 519 142 q 614 -40 614 47 q 551 -194 614 -143 q 350 -244 489 -244 m 317 367 q 381 404 365 367 q 396 531 396 442 q 382 658 396 621 q 318 696 368 696 q 253 657 268 696 q 238 531 238 618 q 253 408 238 449 q 317 367 269 367 m 347 -117 q 437 -101 408 -117 q 467 -51 465 -86 q 449 3 469 -14 q 369 26 428 21 l 247 40 q 213 -6 226 17 q 200 -53 200 -28 q 231 -102 200 -87 q 347 -117 261 -117 m 113 1136 l 251 1136 l 326 979 l 401 1136 l 540 1136 l 418 886 l 233 886 l 113 1136 z "},"ĝ":{"ha":651,"x_min":31,"x_max":669,"o":"m 350 -244 q 120 -217 210 -244 q 31 -104 31 -190 q 64 -8 31 -51 q 146 65 97 35 q 76 107 97 82 q 56 165 56 132 q 78 233 56 203 q 150 306 101 264 q 83 391 106 340 q 60 525 60 442 q 126 742 60 669 q 315 815 192 815 q 489 736 442 815 q 599 824 540 796 l 625 835 l 669 733 q 599 707 644 726 q 535 675 553 688 q 558 608 547 650 q 568 524 568 567 q 509 320 568 393 q 324 247 450 247 q 219 264 267 247 q 193 206 190 225 q 264 172 193 181 q 364 160 283 168 q 415 154 379 158 q 567 94 519 142 q 614 -40 614 47 q 551 -194 614 -143 q 350 -244 489 -244 m 317 367 q 381 404 365 367 q 396 531 396 442 q 382 658 396 621 q 318 696 368 696 q 253 657 268 696 q 238 531 238 618 q 253 408 238 449 q 317 367 269 367 m 347 -117 q 437 -101 408 -117 q 467 -51 465 -86 q 449 3 469 -14 q 369 26 428 21 l 247 40 q 213 -6 226 17 q 200 -53 200 -28 q 231 -102 200 -87 q 347 -117 261 -117 m 240 1147 l 410 1147 l 538 892 l 397 892 l 325 1058 l 254 892 l 115 892 l 240 1147 z "},"ģ":{"ha":651,"x_min":31,"x_max":669,"o":"m 350 -244 q 120 -217 210 -244 q 31 -104 31 -190 q 64 -8 31 -51 q 146 65 97 35 q 76 107 97 82 q 56 165 56 132 q 78 233 56 203 q 150 306 101 264 q 83 391 106 340 q 60 525 60 442 q 126 742 60 669 q 315 815 192 815 q 489 736 442 815 q 599 824 540 796 l 625 835 l 669 733 q 599 707 644 726 q 535 675 553 688 q 558 608 547 650 q 568 524 568 567 q 509 320 568 393 q 324 247 450 247 q 219 264 267 247 q 193 206 190 225 q 264 172 193 181 q 364 160 283 168 q 415 154 379 158 q 567 94 519 142 q 614 -40 614 47 q 551 -194 614 -143 q 350 -244 489 -244 m 317 367 q 381 404 365 367 q 396 531 396 442 q 382 658 396 621 q 318 696 368 696 q 253 657 268 696 q 238 531 238 618 q 253 408 238 449 q 317 367 269 367 m 347 -117 q 437 -101 408 -117 q 467 -51 465 -86 q 449 3 469 -14 q 369 26 428 21 l 247 40 q 213 -6 226 17 q 200 -53 200 -28 q 231 -102 200 -87 q 347 -117 261 -117 m 408 1175 q 342 1146 365 1169 q 319 1075 319 1122 l 418 1075 l 418 893 l 235 893 l 235 1056 q 269 1198 236 1149 q 382 1249 303 1247 l 408 1175 z "},"ġ":{"ha":651,"x_min":31,"x_max":669,"o":"m 350 -244 q 120 -217 210 -244 q 31 -104 31 -190 q 64 -8 31 -51 q 146 65 97 35 q 76 107 97 82 q 56 165 56 132 q 78 233 56 203 q 150 306 101 264 q 83 391 106 340 q 60 525 60 442 q 126 742 60 669 q 315 815 192 815 q 489 736 442 815 q 599 824 540 796 l 625 835 l 669 733 q 599 707 644 726 q 535 675 553 688 q 558 608 547 650 q 568 524 568 567 q 509 320 568 393 q 324 247 450 247 q 219 264 267 247 q 193 206 190 225 q 264 172 193 181 q 364 160 283 168 q 415 154 379 158 q 567 94 519 142 q 614 -40 614 47 q 551 -194 614 -143 q 350 -244 489 -244 m 317 367 q 381 404 365 367 q 396 531 396 442 q 382 658 396 621 q 318 696 368 696 q 253 657 268 696 q 238 531 238 618 q 253 408 238 449 q 317 367 269 367 m 347 -117 q 437 -101 408 -117 q 467 -51 465 -86 q 449 3 469 -14 q 369 26 428 21 l 247 40 q 213 -6 226 17 q 200 -53 200 -28 q 231 -102 200 -87 q 347 -117 261 -117 m 235 1108 l 418 1108 l 418 918 l 235 918 l 235 1108 z "},"h":{"ha":664,"x_min":75,"x_max":596,"o":"m 75 1125 l 264 1125 l 264 725 q 463 815 354 815 q 563 765 531 815 q 596 639 596 715 l 596 0 l 408 0 l 408 601 q 397 658 408 640 q 354 676 385 676 q 264 636 314 675 l 264 0 l 75 0 l 75 1125 z "},"ħ":{"ha":665,"x_min":0,"x_max":597,"o":"m 76 944 l 0 944 l 0 1039 l 76 1039 l 76 1125 l 264 1125 l 264 1039 l 431 1039 l 431 944 l 264 944 l 264 725 q 463 815 354 815 q 564 765 531 815 q 597 639 597 715 l 597 0 l 408 0 l 408 601 q 397 658 408 640 q 354 676 385 676 q 264 636 314 674 l 264 0 l 76 0 l 76 944 z "},"ĥ":{"ha":664,"x_min":-40,"x_max":596,"o":"m 75 1125 l 264 1125 l 264 725 q 463 815 354 815 q 563 765 531 815 q 596 639 596 715 l 596 0 l 408 0 l 408 601 q 397 658 408 640 q 354 676 385 676 q 264 636 314 675 l 264 0 l 75 0 l 75 1125 m 85 1469 l 254 1469 l 382 1214 l 242 1214 l 169 1381 l 99 1214 l -40 1214 l 85 1469 z "},"i":{"ha":344,"x_min":78,"x_max":267,"o":"m 78 1088 l 267 1088 l 267 931 l 78 931 l 78 1088 m 78 803 l 267 803 l 267 0 l 78 0 l 78 803 z "},"ı":{"ha":351,"x_min":83,"x_max":272,"o":"m 83 803 l 272 803 l 272 0 l 83 0 l 83 803 z "},"í":{"ha":351,"x_min":83,"x_max":397,"o":"m 83 803 l 272 803 l 272 0 l 83 0 l 83 803 m 206 1158 l 397 1158 l 232 881 l 122 881 l 206 1158 z "},"ĭ":{"ha":351,"x_min":-21,"x_max":381,"o":"m 83 803 l 272 803 l 272 0 l 83 0 l 83 803 m 179 892 q 31 946 82 892 q -21 1094 -21 1000 l 86 1094 q 109 1017 88 1042 q 179 992 131 992 q 251 1017 229 992 q 272 1094 272 1043 l 381 1094 q 329 946 381 1000 q 179 892 278 892 z "},"î":{"ha":351,"x_min":-32,"x_max":390,"o":"m 83 803 l 272 803 l 272 0 l 83 0 l 83 803 m 93 1147 l 263 1147 l 390 892 l 250 892 l 178 1058 l 107 892 l -32 892 l 93 1147 z "},"ȉ":{"ha":351,"x_min":-114,"x_max":343,"o":"m 83 803 l 272 803 l 272 0 l 83 0 l 83 803 m -114 1150 l 49 1150 l 133 888 l 33 888 l -114 1150 m 131 1150 l 274 1150 l 343 888 l 244 888 l 131 1150 z "},"ï":{"ha":351,"x_min":-40,"x_max":399,"o":"m 83 803 l 272 803 l 272 0 l 83 0 l 83 803 m -40 1125 l 126 1125 l 126 944 l -40 944 l -40 1125 m 232 1125 l 399 1125 l 399 944 l 232 944 l 232 1125 z "},"ị":{"ha":344,"x_min":78,"x_max":267,"o":"m 78 1088 l 267 1088 l 267 931 l 78 931 l 78 1088 m 78 803 l 267 803 l 267 0 l 78 0 l 78 803 m 86 -93 l 258 -93 l 258 -267 l 86 -267 l 86 -93 z "},"ì":{"ha":351,"x_min":-37,"x_max":272,"o":"m 83 803 l 272 803 l 272 0 l 83 0 l 83 803 m -37 1158 l 154 1158 l 236 881 l 128 881 l -37 1158 z "},"ỉ":{"ha":351,"x_min":53,"x_max":342,"o":"m 83 803 l 272 803 l 272 0 l 83 0 l 83 803 m 118 942 q 190 981 167 963 q 213 1025 213 999 q 131 1078 213 1078 q 53 1067 89 1078 l 53 1153 q 181 1169 115 1169 q 296 1137 250 1169 q 342 1039 342 1104 q 300 941 342 978 q 181 876 258 904 l 118 942 z "},"ȋ":{"ha":351,"x_min":-22,"x_max":381,"o":"m 83 803 l 272 803 l 272 0 l 83 0 l 83 803 m -22 910 q 179 1124 -19 1124 q 331 1067 282 1124 q 381 910 381 1011 l 272 910 q 251 997 272 971 q 179 1024 229 1024 q 108 997 129 1024 q 86 910 88 971 l -22 910 z "},"ĳ":{"ha":697,"x_min":78,"x_max":626,"o":"m 78 1088 l 267 1088 l 267 931 l 78 931 l 78 1088 m 78 803 l 267 803 l 267 0 l 78 0 l 78 803 m 436 1088 l 626 1088 l 626 931 l 436 931 l 436 1088 m 425 -228 q 325 -212 365 -228 l 325 -78 q 365 -82 358 -82 q 438 0 438 -82 l 438 803 l 625 803 l 625 -22 q 573 -173 625 -118 q 425 -228 521 -228 z "},"ī":{"ha":351,"x_min":15,"x_max":343,"o":"m 83 803 l 272 803 l 272 0 l 83 0 l 83 803 m 15 1036 l 343 1036 l 343 938 l 15 938 l 15 1036 z "},"į":{"ha":344,"x_min":0,"x_max":279,"o":"m 78 1088 l 267 1088 l 267 931 l 78 931 l 78 1088 m 78 803 l 267 803 l 267 0 l 78 0 l 78 803 m 207 -342 q 58 -314 115 -342 q 0 -207 0 -286 q 40 -89 0 -149 q 131 0 79 -29 l 219 0 q 136 -174 136 -101 q 236 -249 136 -249 q 279 -246 254 -249 l 256 -337 q 207 -342 235 -342 z "},"ĩ":{"ha":351,"x_min":-35,"x_max":393,"o":"m 83 803 l 272 803 l 272 0 l 83 0 l 83 803 m 288 950 q 239 959 261 950 q 189 986 217 968 q 147 1008 164 1000 q 111 1015 129 1015 q 74 1001 85 1015 q 63 958 63 986 l -35 958 q 83 1133 -35 1133 q 127 1125 107 1133 q 176 1100 147 1117 q 221 1077 204 1085 q 257 1069 238 1069 q 301 1125 301 1069 l 393 1125 q 371 998 393 1046 q 288 950 349 950 z "},"j":{"ha":353,"x_min":-19,"x_max":282,"o":"m 92 1088 l 282 1088 l 282 931 l 92 931 l 92 1088 m 81 -228 q -19 -212 21 -228 l -19 -78 q 21 -82 14 -82 q 93 0 93 -82 l 93 803 l 281 803 l 281 -22 q 228 -173 281 -118 q 81 -228 176 -228 z "},"ȷ":{"ha":353,"x_min":-19,"x_max":281,"o":"m 81 -228 q -19 -212 21 -228 l -19 -78 q 21 -82 14 -82 q 93 0 93 -82 l 93 803 l 281 803 l 281 -22 q 228 -173 281 -118 q 81 -228 176 -228 z "},"ĵ":{"ha":353,"x_min":-24,"x_max":399,"o":"m 81 -228 q -19 -212 21 -228 l -19 -78 q 21 -82 14 -82 q 93 0 93 -82 l 93 803 l 281 803 l 281 -22 q 228 -173 281 -118 q 81 -228 176 -228 m 101 1147 l 271 1147 l 399 892 l 258 892 l 186 1058 l 115 892 l -24 892 l 101 1147 z "},"k":{"ha":676,"x_min":75,"x_max":675,"o":"m 75 1126 l 263 1126 l 263 479 l 468 803 l 675 803 l 474 481 l 671 0 l 472 0 l 326 396 l 263 307 l 263 1 l 75 1 l 75 1126 z "},"ķ":{"ha":676,"x_min":75,"x_max":675,"o":"m 75 1126 l 263 1126 l 263 479 l 468 803 l 675 803 l 474 481 l 671 0 l 472 0 l 326 396 l 263 307 l 263 1 l 75 1 l 75 1126 m 257 -375 q 323 -346 300 -369 q 346 -275 346 -322 l 247 -275 l 247 -93 l 431 -93 l 431 -256 q 396 -398 429 -349 q 283 -449 363 -447 l 257 -375 z "},"ĸ":{"ha":653,"x_min":75,"x_max":646,"o":"m 75 803 l 264 803 l 264 460 l 446 803 l 644 803 l 471 469 l 646 0 l 451 0 l 321 382 l 264 299 l 264 0 l 75 0 l 75 803 z "},"l":{"ha":350,"x_min":85,"x_max":272,"o":"m 85 1125 l 272 1125 l 272 0 l 85 0 l 85 1125 z "},"ĺ":{"ha":350,"x_min":85,"x_max":397,"o":"m 85 1125 l 272 1125 l 272 0 l 85 0 l 85 1125 m 206 1481 l 397 1481 l 232 1203 l 122 1203 l 206 1481 z "},"ľ":{"ha":500,"x_min":85,"x_max":525,"o":"m 85 1125 l 272 1125 l 272 0 l 85 0 l 85 1125 m 350 818 q 415 859 390 829 q 440 938 440 889 l 340 938 l 340 1125 l 525 1125 l 525 954 q 486 815 525 865 q 368 750 447 765 l 350 818 z "},"ļ":{"ha":350,"x_min":85,"x_max":272,"o":"m 85 1125 l 272 1125 l 272 0 l 85 0 l 85 1125 m 97 -375 q 163 -346 140 -369 q 186 -275 186 -322 l 88 -275 l 88 -93 l 271 -93 l 271 -256 q 236 -398 269 -349 q 124 -449 203 -447 l 97 -375 z "},"ŀ":{"ha":451,"x_min":85,"x_max":469,"o":"m 85 1125 l 272 1125 l 272 0 l 85 0 l 85 1125 m 338 701 l 469 701 l 469 519 l 338 519 l 338 701 z "},"ǉ":{"ha":703,"x_min":85,"x_max":632,"o":"m 85 1125 l 272 1125 l 272 0 l 85 0 l 85 1125 m 442 1088 l 632 1088 l 632 931 l 442 931 l 442 1088 m 431 -228 q 331 -212 371 -228 l 331 -78 q 371 -82 364 -82 q 443 0 443 -82 l 443 803 l 631 803 l 631 -22 q 578 -173 631 -118 q 431 -228 526 -228 z "},"ł":{"ha":418,"x_min":26,"x_max":404,"o":"m 119 576 l 26 533 l 26 656 l 119 697 l 119 1125 l 308 1125 l 308 781 l 404 824 l 404 703 l 308 660 l 308 0 l 119 0 l 119 576 z "},"m":{"ha":997,"x_min":72,"x_max":929,"o":"m 72 803 l 254 803 l 254 732 q 443 817 335 817 q 526 792 492 817 q 578 719 561 768 q 781 817 661 817 q 888 768 847 817 q 929 628 929 719 l 929 0 l 749 0 l 749 610 q 735 672 749 653 q 693 690 721 690 q 643 678 671 690 q 592 643 615 665 l 592 628 l 592 0 l 413 0 l 413 610 q 398 672 413 653 q 356 690 383 690 q 306 678 333 690 q 254 643 279 665 l 254 0 l 72 0 l 72 803 z "},"ṁ":{"ha":997,"x_min":72,"x_max":929,"o":"m 72 803 l 254 803 l 254 732 q 443 817 335 817 q 526 792 492 817 q 578 719 561 768 q 781 817 661 817 q 888 768 847 817 q 929 628 929 719 l 929 0 l 749 0 l 749 610 q 735 672 749 653 q 693 690 721 690 q 643 678 671 690 q 592 643 615 665 l 592 628 l 592 0 l 413 0 l 413 610 q 398 672 413 653 q 356 690 383 690 q 306 678 333 690 q 254 643 279 665 l 254 0 l 72 0 l 72 803 m 407 1108 l 590 1108 l 590 918 l 407 918 l 407 1108 z "},"n":{"ha":658,"x_min":72,"x_max":592,"o":"m 72 803 l 261 803 l 261 724 q 456 815 357 815 q 558 765 524 815 q 592 639 592 715 l 592 0 l 403 0 l 403 601 q 391 658 403 640 q 349 676 379 676 q 261 638 313 675 l 261 0 l 72 0 l 72 803 z "},"ń":{"ha":658,"x_min":72,"x_max":592,"o":"m 72 803 l 261 803 l 261 724 q 456 815 357 815 q 558 765 524 815 q 592 639 592 715 l 592 0 l 403 0 l 403 601 q 391 658 403 640 q 349 676 379 676 q 261 638 313 675 l 261 0 l 72 0 l 72 803 m 357 1158 l 549 1158 l 383 881 l 274 881 l 357 1158 z "},"ŉ":{"ha":756,"x_min":31,"x_max":706,"o":"m 40 924 q 106 965 81 935 q 131 1043 131 994 l 31 1043 l 31 1231 l 215 1231 l 215 1060 q 177 921 215 971 q 60 856 139 871 l 40 924 m 186 803 l 375 803 l 375 724 q 569 815 471 815 q 672 765 638 815 q 706 639 706 715 l 706 0 l 517 0 l 517 601 q 505 658 517 640 q 463 676 493 676 q 375 638 426 675 l 375 0 l 186 0 l 186 803 z "},"ň":{"ha":658,"x_min":72,"x_max":592,"o":"m 72 803 l 261 803 l 261 724 q 456 815 357 815 q 558 765 524 815 q 592 639 592 715 l 592 0 l 403 0 l 403 601 q 391 658 403 640 q 349 676 379 676 q 261 638 313 675 l 261 0 l 72 0 l 72 803 m 117 1136 l 256 1136 l 331 979 l 406 1136 l 544 1136 l 422 886 l 238 886 l 117 1136 z "},"ņ":{"ha":658,"x_min":72,"x_max":592,"o":"m 72 803 l 261 803 l 261 724 q 456 815 357 815 q 558 765 524 815 q 592 639 592 715 l 592 0 l 403 0 l 403 601 q 391 658 403 640 q 349 676 379 676 q 261 638 313 675 l 261 0 l 72 0 l 72 803 m 249 -375 q 315 -346 292 -369 q 338 -275 338 -322 l 239 -275 l 239 -93 l 422 -93 l 422 -256 q 388 -398 421 -349 q 275 -449 354 -447 l 249 -375 z "},"ŋ":{"ha":603,"x_min":60,"x_max":579,"o":"m 231 -135 q 331 -122 297 -135 q 378 -83 365 -110 q 390 -7 390 -56 l 390 601 q 378 658 390 640 q 336 676 367 676 q 249 638 297 675 l 249 0 l 60 0 l 60 803 l 249 803 l 249 728 q 444 815 336 815 q 546 765 513 815 q 579 639 579 715 l 579 -8 q 509 -202 579 -140 q 294 -264 439 -264 l 231 -264 l 231 -135 z "},"ǌ":{"ha":1011,"x_min":72,"x_max":940,"o":"m 72 803 l 261 803 l 261 724 q 456 815 357 815 q 558 765 524 815 q 592 639 592 715 l 592 0 l 403 0 l 403 601 q 391 658 403 640 q 349 676 379 676 q 261 638 313 675 l 261 0 l 72 0 l 72 803 m 750 1088 l 940 1088 l 940 931 l 750 931 l 750 1088 m 739 -228 q 639 -212 679 -228 l 639 -78 q 679 -82 672 -82 q 751 0 751 -82 l 751 803 l 939 803 l 939 -22 q 887 -173 939 -118 q 739 -228 835 -228 z "},"ñ":{"ha":658,"x_min":72,"x_max":592,"o":"m 72 803 l 261 803 l 261 724 q 456 815 357 815 q 558 765 524 815 q 592 639 592 715 l 592 0 l 403 0 l 403 601 q 391 658 403 640 q 349 676 379 676 q 261 638 313 675 l 261 0 l 72 0 l 72 803 m 439 950 q 390 959 413 950 q 340 986 368 968 q 298 1008 315 1000 q 263 1015 281 1015 q 225 1001 236 1015 q 214 958 214 986 l 117 958 q 235 1133 117 1133 q 278 1125 258 1133 q 328 1100 299 1117 q 372 1077 356 1085 q 408 1069 389 1069 q 453 1125 453 1069 l 544 1125 q 522 998 544 1046 q 439 950 500 950 z "},"o":{"ha":631,"x_min":57,"x_max":574,"o":"m 315 -12 q 122 59 186 -12 q 57 267 57 131 l 57 536 q 122 744 57 672 q 315 815 186 815 q 509 743 444 815 q 574 536 574 671 l 574 267 q 509 60 574 132 q 315 -12 444 -12 m 315 118 q 372 152 358 118 q 386 253 386 186 l 386 549 q 372 650 386 615 q 315 685 358 685 q 258 650 272 685 q 244 549 244 615 l 244 253 q 258 152 244 186 q 315 118 272 118 z "},"ó":{"ha":631,"x_min":57,"x_max":574,"o":"m 315 -12 q 122 59 186 -12 q 57 267 57 131 l 57 536 q 122 744 57 672 q 315 815 186 815 q 509 743 444 815 q 574 536 574 671 l 574 267 q 509 60 574 132 q 315 -12 444 -12 m 315 118 q 372 152 358 118 q 386 253 386 186 l 386 549 q 372 650 386 615 q 315 685 358 685 q 258 650 272 685 q 244 549 244 615 l 244 253 q 258 152 244 186 q 315 118 272 118 m 342 1158 l 533 1158 l 368 881 l 258 881 l 342 1158 z "},"ŏ":{"ha":631,"x_min":57,"x_max":574,"o":"m 315 -12 q 122 59 186 -12 q 57 267 57 131 l 57 536 q 122 744 57 672 q 315 815 186 815 q 509 743 444 815 q 574 536 574 671 l 574 267 q 509 60 574 132 q 315 -12 444 -12 m 315 118 q 372 152 358 118 q 386 253 386 186 l 386 549 q 372 650 386 615 q 315 685 358 685 q 258 650 272 685 q 244 549 244 615 l 244 253 q 258 152 244 186 q 315 118 272 118 m 315 892 q 167 946 218 892 q 115 1094 115 1000 l 222 1094 q 245 1017 224 1042 q 315 992 267 992 q 387 1017 365 992 q 408 1094 408 1043 l 517 1094 q 465 946 517 1000 q 315 892 414 892 z "},"ô":{"ha":631,"x_min":57,"x_max":574,"o":"m 315 -12 q 122 59 186 -12 q 57 267 57 131 l 57 536 q 122 744 57 672 q 315 815 186 815 q 509 743 444 815 q 574 536 574 671 l 574 267 q 509 60 574 132 q 315 -12 444 -12 m 315 118 q 372 152 358 118 q 386 253 386 186 l 386 549 q 372 650 386 615 q 315 685 358 685 q 258 650 272 685 q 244 549 244 615 l 244 253 q 258 152 244 186 q 315 118 272 118 m 229 1147 l 399 1147 l 526 892 l 386 892 l 314 1058 l 243 892 l 104 892 l 229 1147 z "},"ố":{"ha":631,"x_min":57,"x_max":721,"o":"m 315 -12 q 122 59 186 -12 q 57 267 57 131 l 57 536 q 122 744 57 672 q 315 815 186 815 q 509 743 444 815 q 574 536 574 671 l 574 267 q 509 60 574 132 q 315 -12 444 -12 m 315 118 q 372 152 358 118 q 386 253 386 186 l 386 549 q 372 650 386 615 q 315 685 358 685 q 258 650 272 685 q 244 549 244 615 l 244 253 q 258 152 244 186 q 315 118 272 118 m 571 1211 l 721 1211 l 603 1046 l 497 1046 l 571 1211 m 229 1115 l 399 1115 l 526 892 l 389 892 l 314 1032 l 240 892 l 104 892 l 229 1115 z "},"ộ":{"ha":631,"x_min":57,"x_max":574,"o":"m 315 -12 q 122 59 186 -12 q 57 267 57 131 l 57 536 q 122 744 57 672 q 315 815 186 815 q 509 743 444 815 q 574 536 574 671 l 574 267 q 509 60 574 132 q 315 -12 444 -12 m 315 118 q 372 152 358 118 q 386 253 386 186 l 386 549 q 372 650 386 615 q 315 685 358 685 q 258 650 272 685 q 244 549 244 615 l 244 253 q 258 152 244 186 q 315 118 272 118 m 229 -93 l 401 -93 l 401 -267 l 229 -267 l 229 -93 m 229 1115 l 399 1115 l 526 892 l 389 892 l 314 1032 l 240 892 l 104 892 l 229 1115 z "},"ồ":{"ha":631,"x_min":57,"x_max":642,"o":"m 315 -12 q 122 59 186 -12 q 57 267 57 131 l 57 536 q 122 744 57 672 q 315 815 186 815 q 509 743 444 815 q 574 536 574 671 l 574 267 q 509 60 574 132 q 315 -12 444 -12 m 315 118 q 372 152 358 118 q 386 253 386 186 l 386 549 q 372 650 386 615 q 315 685 358 685 q 258 650 272 685 q 244 549 244 615 l 244 253 q 258 152 244 186 q 315 118 272 118 m 418 1211 l 568 1211 l 642 1046 l 535 1046 l 418 1211 m 229 1115 l 399 1115 l 526 892 l 389 892 l 314 1032 l 240 892 l 104 892 l 229 1115 z "},"ổ":{"ha":631,"x_min":57,"x_max":672,"o":"m 315 -12 q 122 59 186 -12 q 57 267 57 131 l 57 536 q 122 744 57 672 q 315 815 186 815 q 509 743 444 815 q 574 536 574 671 l 574 267 q 509 60 574 132 q 315 -12 444 -12 m 315 118 q 372 152 358 118 q 386 253 386 186 l 386 549 q 372 650 386 615 q 315 685 358 685 q 258 650 272 685 q 244 549 244 615 l 244 253 q 258 152 244 186 q 315 118 272 118 m 488 1075 q 531 1115 517 1096 q 546 1157 546 1133 q 528 1197 546 1183 q 479 1211 510 1211 q 413 1200 443 1211 l 413 1285 q 521 1303 463 1303 q 631 1269 589 1303 q 672 1174 672 1236 q 638 1078 672 1115 q 543 1013 604 1042 l 488 1075 m 229 1115 l 399 1115 l 526 892 l 389 892 l 314 1032 l 240 892 l 104 892 l 229 1115 z "},"ỗ":{"ha":631,"x_min":57,"x_max":574,"o":"m 315 -12 q 122 59 186 -12 q 57 267 57 131 l 57 536 q 122 744 57 672 q 315 815 186 815 q 509 743 444 815 q 574 536 574 671 l 574 267 q 509 60 574 132 q 315 -12 444 -12 m 315 118 q 372 152 358 118 q 386 253 386 186 l 386 549 q 372 650 386 615 q 315 685 358 685 q 258 650 272 685 q 244 549 244 615 l 244 253 q 258 152 244 186 q 315 118 272 118 m 229 1115 l 399 1115 l 526 892 l 389 892 l 314 1032 l 240 892 l 104 892 l 229 1115 m 424 1183 q 375 1192 397 1183 q 325 1219 353 1201 q 283 1241 300 1233 q 247 1249 265 1249 q 210 1234 221 1249 q 199 1192 199 1219 l 101 1192 q 219 1367 101 1367 q 263 1358 243 1367 q 313 1333 283 1350 q 357 1310 340 1318 q 393 1303 374 1303 q 438 1358 438 1303 l 529 1358 q 507 1231 529 1279 q 424 1183 485 1183 z "},"ȍ":{"ha":631,"x_min":22,"x_max":574,"o":"m 315 -12 q 122 59 186 -12 q 57 267 57 131 l 57 536 q 122 744 57 672 q 315 815 186 815 q 509 743 444 815 q 574 536 574 671 l 574 267 q 509 60 574 132 q 315 -12 444 -12 m 315 118 q 372 152 358 118 q 386 253 386 186 l 386 549 q 372 650 386 615 q 315 685 358 685 q 258 650 272 685 q 244 549 244 615 l 244 253 q 258 152 244 186 q 315 118 272 118 m 22 1150 l 185 1150 l 269 888 l 169 888 l 22 1150 m 267 1150 l 410 1150 l 479 888 l 381 888 l 267 1150 z "},"ö":{"ha":631,"x_min":57,"x_max":574,"o":"m 315 -12 q 122 59 186 -12 q 57 267 57 131 l 57 536 q 122 744 57 672 q 315 815 186 815 q 509 743 444 815 q 574 536 574 671 l 574 267 q 509 60 574 132 q 315 -12 444 -12 m 315 118 q 372 152 358 118 q 386 253 386 186 l 386 549 q 372 650 386 615 q 315 685 358 685 q 258 650 272 685 q 244 549 244 615 l 244 253 q 258 152 244 186 q 315 118 272 118 m 96 1125 l 263 1125 l 263 944 l 96 944 l 96 1125 m 368 1125 l 535 1125 l 535 944 l 368 944 l 368 1125 z "},"ȫ":{"ha":631,"x_min":57,"x_max":574,"o":"m 315 -12 q 122 59 186 -12 q 57 267 57 131 l 57 536 q 122 744 57 672 q 315 815 186 815 q 509 743 444 815 q 574 536 574 671 l 574 267 q 509 60 574 132 q 315 -12 444 -12 m 315 118 q 372 152 358 118 q 386 253 386 186 l 386 549 q 372 650 386 615 q 315 685 358 685 q 258 650 272 685 q 244 549 244 615 l 244 253 q 258 152 244 186 q 315 118 272 118 m 96 1125 l 263 1125 l 263 944 l 96 944 l 96 1125 m 368 1125 l 535 1125 l 535 944 l 368 944 l 368 1125 m 151 1358 l 479 1358 l 479 1260 l 151 1260 l 151 1358 z "},"ȱ":{"ha":631,"x_min":57,"x_max":574,"o":"m 315 -12 q 122 59 186 -12 q 57 267 57 131 l 57 536 q 122 744 57 672 q 315 815 186 815 q 509 743 444 815 q 574 536 574 671 l 574 267 q 509 60 574 132 q 315 -12 444 -12 m 315 118 q 372 152 358 118 q 386 253 386 186 l 386 549 q 372 650 386 615 q 315 685 358 685 q 258 650 272 685 q 244 549 244 615 l 244 253 q 258 152 244 186 q 315 118 272 118 m 224 1108 l 407 1108 l 407 918 l 224 918 l 224 1108 m 151 1342 l 479 1342 l 479 1243 l 151 1243 l 151 1342 z "},"ọ":{"ha":631,"x_min":57,"x_max":574,"o":"m 315 -12 q 122 59 186 -12 q 57 267 57 131 l 57 536 q 122 744 57 672 q 315 815 186 815 q 509 743 444 815 q 574 536 574 671 l 574 267 q 509 60 574 132 q 315 -12 444 -12 m 315 118 q 372 152 358 118 q 386 253 386 186 l 386 549 q 372 650 386 615 q 315 685 358 685 q 258 650 272 685 q 244 549 244 615 l 244 253 q 258 152 244 186 q 315 118 272 118 m 229 -93 l 401 -93 l 401 -267 l 229 -267 l 229 -93 z "},"ò":{"ha":631,"x_min":57,"x_max":574,"o":"m 315 -12 q 122 59 186 -12 q 57 267 57 131 l 57 536 q 122 744 57 672 q 315 815 186 815 q 509 743 444 815 q 574 536 574 671 l 574 267 q 509 60 574 132 q 315 -12 444 -12 m 315 118 q 372 152 358 118 q 386 253 386 186 l 386 549 q 372 650 386 615 q 315 685 358 685 q 258 650 272 685 q 244 549 244 615 l 244 253 q 258 152 244 186 q 315 118 272 118 m 99 1158 l 290 1158 l 372 881 l 264 881 l 99 1158 z "},"ỏ":{"ha":631,"x_min":57,"x_max":574,"o":"m 315 -12 q 122 59 186 -12 q 57 267 57 131 l 57 536 q 122 744 57 672 q 315 815 186 815 q 509 743 444 815 q 574 536 574 671 l 574 267 q 509 60 574 132 q 315 -12 444 -12 m 315 118 q 372 152 358 118 q 386 253 386 186 l 386 549 q 372 650 386 615 q 315 685 358 685 q 258 650 272 685 q 244 549 244 615 l 244 253 q 258 152 244 186 q 315 118 272 118 m 254 942 q 326 981 303 963 q 349 1025 349 999 q 267 1078 349 1078 q 189 1067 225 1078 l 189 1153 q 317 1169 251 1169 q 432 1137 386 1169 q 478 1039 478 1104 q 436 941 478 978 q 317 876 394 904 l 254 942 z "},"ơ":{"ha":631,"x_min":57,"x_max":574,"o":"m 499 753 q 574 536 574 682 l 574 267 q 509 60 574 132 q 315 -12 444 -12 q 122 59 186 -12 q 57 267 57 131 l 57 536 q 122 744 57 672 q 315 815 186 815 q 392 807 357 815 q 426 842 415 817 q 436 914 436 868 l 574 914 q 499 753 574 804 m 386 549 q 372 650 386 615 q 315 685 358 685 q 258 650 272 685 q 244 549 244 615 l 244 253 q 258 152 244 186 q 315 118 272 118 q 372 152 358 118 q 386 253 386 186 l 386 549 z "},"ớ":{"ha":631,"x_min":57,"x_max":574,"o":"m 499 753 q 574 536 574 682 l 574 267 q 509 60 574 132 q 315 -12 444 -12 q 122 59 186 -12 q 57 267 57 131 l 57 536 q 122 744 57 672 q 315 815 186 815 q 392 807 357 815 q 426 842 415 817 q 436 914 436 868 l 574 914 q 499 753 574 804 m 386 549 q 372 650 386 615 q 315 685 358 685 q 258 650 272 685 q 244 549 244 615 l 244 253 q 258 152 244 186 q 315 118 272 118 q 372 152 358 118 q 386 253 386 186 l 386 549 m 342 1181 l 533 1181 l 368 903 l 258 903 l 342 1181 z "},"ợ":{"ha":631,"x_min":57,"x_max":574,"o":"m 499 753 q 574 536 574 682 l 574 267 q 509 60 574 132 q 315 -12 444 -12 q 122 59 186 -12 q 57 267 57 131 l 57 536 q 122 744 57 672 q 315 815 186 815 q 392 807 357 815 q 426 842 415 817 q 436 914 436 868 l 574 914 q 499 753 574 804 m 386 549 q 372 650 386 615 q 315 685 358 685 q 258 650 272 685 q 244 549 244 615 l 244 253 q 258 152 244 186 q 315 118 272 118 q 372 152 358 118 q 386 253 386 186 l 386 549 m 229 -93 l 401 -93 l 401 -267 l 229 -267 l 229 -93 z "},"ờ":{"ha":631,"x_min":57,"x_max":574,"o":"m 499 753 q 574 536 574 682 l 574 267 q 509 60 574 132 q 315 -12 444 -12 q 122 59 186 -12 q 57 267 57 131 l 57 536 q 122 744 57 672 q 315 815 186 815 q 392 807 357 815 q 426 842 415 817 q 436 914 436 868 l 574 914 q 499 753 574 804 m 386 549 q 372 650 386 615 q 315 685 358 685 q 258 650 272 685 q 244 549 244 615 l 244 253 q 258 152 244 186 q 315 118 272 118 q 372 152 358 118 q 386 253 386 186 l 386 549 m 99 1181 l 290 1181 l 372 903 l 264 903 l 99 1181 z "},"ở":{"ha":631,"x_min":57,"x_max":574,"o":"m 499 753 q 574 536 574 682 l 574 267 q 509 60 574 132 q 315 -12 444 -12 q 122 59 186 -12 q 57 267 57 131 l 57 536 q 122 744 57 672 q 315 815 186 815 q 392 807 357 815 q 426 842 415 817 q 436 914 436 868 l 574 914 q 499 753 574 804 m 386 549 q 372 650 386 615 q 315 685 358 685 q 258 650 272 685 q 244 549 244 615 l 244 253 q 258 152 244 186 q 315 118 272 118 q 372 152 358 118 q 386 253 386 186 l 386 549 m 254 964 q 326 1003 303 985 q 349 1047 349 1021 q 267 1100 349 1100 q 189 1089 225 1100 l 189 1175 q 317 1192 251 1192 q 432 1159 386 1192 q 478 1061 478 1126 q 436 963 478 1000 q 317 899 394 926 l 254 964 z "},"ỡ":{"ha":631,"x_min":57,"x_max":574,"o":"m 499 753 q 574 536 574 682 l 574 267 q 509 60 574 132 q 315 -12 444 -12 q 122 59 186 -12 q 57 267 57 131 l 57 536 q 122 744 57 672 q 315 815 186 815 q 392 807 357 815 q 426 842 415 817 q 436 914 436 868 l 574 914 q 499 753 574 804 m 386 549 q 372 650 386 615 q 315 685 358 685 q 258 650 272 685 q 244 549 244 615 l 244 253 q 258 152 244 186 q 315 118 272 118 q 372 152 358 118 q 386 253 386 186 l 386 549 m 424 972 q 375 981 397 972 q 325 1008 353 990 q 283 1030 300 1022 q 247 1038 265 1038 q 210 1023 221 1038 q 199 981 199 1008 l 101 981 q 219 1156 101 1156 q 263 1147 243 1156 q 313 1122 283 1139 q 357 1099 340 1107 q 393 1092 374 1092 q 438 1147 438 1092 l 529 1147 q 507 1020 529 1068 q 424 972 485 972 z "},"ő":{"ha":631,"x_min":57,"x_max":631,"o":"m 315 -12 q 122 59 186 -12 q 57 267 57 131 l 57 536 q 122 744 57 672 q 315 815 186 815 q 509 743 444 815 q 574 536 574 671 l 574 267 q 509 60 574 132 q 315 -12 444 -12 m 315 118 q 372 152 358 118 q 386 253 386 186 l 386 549 q 372 650 386 615 q 315 685 358 685 q 258 650 272 685 q 244 549 244 615 l 244 253 q 258 152 244 186 q 315 118 272 118 m 229 1154 l 383 1154 l 257 883 l 160 883 l 229 1154 m 457 1154 l 631 1154 l 469 883 l 372 883 l 457 1154 z "},"ȏ":{"ha":631,"x_min":57,"x_max":574,"o":"m 315 -12 q 122 59 186 -12 q 57 267 57 131 l 57 536 q 122 744 57 672 q 315 815 186 815 q 509 743 444 815 q 574 536 574 671 l 574 267 q 509 60 574 132 q 315 -12 444 -12 m 315 118 q 372 152 358 118 q 386 253 386 186 l 386 549 q 372 650 386 615 q 315 685 358 685 q 258 650 272 685 q 244 549 244 615 l 244 253 q 258 152 244 186 q 315 118 272 118 m 114 910 q 315 1124 117 1124 q 467 1067 418 1124 q 517 910 517 1011 l 408 910 q 387 997 408 971 q 315 1024 365 1024 q 244 997 265 1024 q 222 910 224 971 l 114 910 z "},"ō":{"ha":631,"x_min":57,"x_max":574,"o":"m 315 -12 q 122 59 186 -12 q 57 267 57 131 l 57 536 q 122 744 57 672 q 315 815 186 815 q 509 743 444 815 q 574 536 574 671 l 574 267 q 509 60 574 132 q 315 -12 444 -12 m 315 118 q 372 152 358 118 q 386 253 386 186 l 386 549 q 372 650 386 615 q 315 685 358 685 q 258 650 272 685 q 244 549 244 615 l 244 253 q 258 152 244 186 q 315 118 272 118 m 151 1036 l 479 1036 l 479 938 l 151 938 l 151 1036 z "},"ǫ":{"ha":631,"x_min":57,"x_max":574,"o":"m 315 815 q 509 743 444 815 q 574 536 574 671 l 574 267 q 534 94 574 161 q 415 1 494 26 q 336 -167 336 -99 q 436 -242 336 -242 q 479 -239 454 -242 l 456 -331 q 407 -335 435 -335 q 258 -307 315 -335 q 200 -200 200 -279 q 230 -99 200 -150 q 303 -12 260 -47 q 118 63 179 -8 q 57 267 57 135 l 57 536 q 122 744 57 672 q 315 815 186 815 m 244 253 q 258 152 244 186 q 315 118 272 118 q 372 152 358 118 q 386 253 386 186 l 386 549 q 372 650 386 615 q 315 685 358 685 q 258 650 272 685 q 244 549 244 615 l 244 253 z "},"ø":{"ha":628,"x_min":57,"x_max":574,"o":"m 482 767 q 574 536 574 699 l 574 267 q 509 60 574 132 q 315 -12 444 -12 q 192 10 247 -12 l 139 -128 l 92 -108 l 146 36 q 57 267 57 107 l 57 536 q 122 744 57 672 q 315 815 186 815 q 433 794 383 815 l 485 931 l 538 911 l 482 767 m 244 296 l 375 642 q 315 685 361 685 q 258 650 272 685 q 244 549 244 615 l 244 296 m 315 118 q 372 152 358 118 q 386 253 386 186 l 386 517 l 253 168 q 315 118 267 118 z "},"ǿ":{"ha":628,"x_min":57,"x_max":574,"o":"m 482 767 q 574 536 574 699 l 574 267 q 509 60 574 132 q 315 -12 444 -12 q 192 10 247 -12 l 139 -128 l 92 -108 l 146 36 q 57 267 57 107 l 57 536 q 122 744 57 672 q 315 815 186 815 q 433 794 383 815 l 485 931 l 538 911 l 482 767 m 244 296 l 375 642 q 315 685 361 685 q 258 650 272 685 q 244 549 244 615 l 244 296 m 315 118 q 372 152 358 118 q 386 253 386 186 l 386 517 l 253 168 q 315 118 267 118 m 340 1158 l 532 1158 l 367 881 l 257 881 l 340 1158 z "},"õ":{"ha":631,"x_min":57,"x_max":574,"o":"m 315 -12 q 122 59 186 -12 q 57 267 57 131 l 57 536 q 122 744 57 672 q 315 815 186 815 q 509 743 444 815 q 574 536 574 671 l 574 267 q 509 60 574 132 q 315 -12 444 -12 m 315 118 q 372 152 358 118 q 386 253 386 186 l 386 549 q 372 650 386 615 q 315 685 358 685 q 258 650 272 685 q 244 549 244 615 l 244 253 q 258 152 244 186 q 315 118 272 118 m 424 950 q 375 959 397 950 q 325 986 353 968 q 283 1008 300 1000 q 247 1015 265 1015 q 210 1001 221 1015 q 199 958 199 986 l 101 958 q 219 1133 101 1133 q 263 1125 243 1133 q 313 1100 283 1117 q 357 1077 340 1085 q 393 1069 374 1069 q 438 1125 438 1069 l 529 1125 q 507 998 529 1046 q 424 950 485 950 z "},"ȭ":{"ha":631,"x_min":57,"x_max":574,"o":"m 315 -12 q 122 59 186 -12 q 57 267 57 131 l 57 536 q 122 744 57 672 q 315 815 186 815 q 509 743 444 815 q 574 536 574 671 l 574 267 q 509 60 574 132 q 315 -12 444 -12 m 315 118 q 372 152 358 118 q 386 253 386 186 l 386 549 q 372 650 386 615 q 315 685 358 685 q 258 650 272 685 q 244 549 244 615 l 244 253 q 258 152 244 186 q 315 118 272 118 m 424 950 q 375 959 397 950 q 325 986 353 968 q 283 1008 300 1000 q 247 1015 265 1015 q 210 1001 221 1015 q 199 958 199 986 l 101 958 q 219 1133 101 1133 q 263 1125 243 1133 q 313 1100 283 1117 q 357 1077 340 1085 q 393 1069 374 1069 q 438 1125 438 1069 l 529 1125 q 507 998 529 1046 q 424 950 485 950 m 151 1367 l 479 1367 l 479 1268 l 151 1268 l 151 1367 z "},"œ":{"ha":965,"x_min":68,"x_max":903,"o":"m 303 -14 q 128 57 189 -14 q 68 261 68 128 l 68 557 q 128 756 68 688 q 307 825 188 825 q 418 799 368 825 q 489 726 468 772 q 561 799 508 774 q 675 825 614 825 q 853 747 803 825 q 903 515 903 669 l 903 394 l 588 394 l 588 297 q 600 166 588 214 q 656 117 613 118 q 706 138 690 115 q 721 217 721 161 l 721 299 l 903 299 l 903 218 q 847 45 903 104 q 676 -14 790 -14 q 556 11 604 -14 q 486 85 507 36 q 303 -14 438 -14 m 322 117 q 380 151 365 117 q 394 257 394 185 l 394 563 q 380 662 394 628 q 324 696 365 696 q 269 662 283 696 q 254 563 254 628 l 254 258 q 268 153 254 190 q 322 117 282 117 m 722 493 l 722 572 q 654 696 722 696 q 588 572 588 696 l 588 493 l 722 493 z "},"p":{"ha":661,"x_min":72,"x_max":603,"o":"m 72 803 l 261 803 l 261 742 q 421 815 338 815 q 562 735 521 815 q 603 547 603 656 l 603 275 q 558 67 603 146 q 415 -12 513 -12 q 261 60 338 -12 l 261 -264 l 72 -264 l 72 803 m 344 119 q 399 158 385 119 q 414 268 414 197 l 414 557 q 343 689 414 689 q 261 654 307 689 l 261 147 q 344 119 300 119 z "},"ṗ":{"ha":661,"x_min":72,"x_max":603,"o":"m 72 803 l 261 803 l 261 742 q 421 815 338 815 q 562 735 521 815 q 603 547 603 656 l 603 275 q 558 67 603 146 q 415 -12 513 -12 q 261 60 338 -12 l 261 -264 l 72 -264 l 72 803 m 344 119 q 399 158 385 119 q 414 268 414 197 l 414 557 q 343 689 414 689 q 261 654 307 689 l 261 147 q 344 119 300 119 m 239 1108 l 422 1108 l 422 918 l 239 918 l 239 1108 z "},"þ":{"ha":654,"x_min":69,"x_max":599,"o":"m 69 1125 l 258 1125 l 258 742 q 418 815 335 815 q 558 735 518 815 q 599 547 599 656 l 599 275 q 553 67 599 146 q 411 -12 508 -12 q 258 60 335 -12 l 258 -264 l 69 -264 l 69 1125 m 342 119 q 395 158 381 119 q 410 268 410 197 l 410 557 q 394 653 410 618 q 339 689 379 689 q 258 654 304 689 l 258 147 q 342 119 297 119 z "},"q":{"ha":660,"x_min":60,"x_max":588,"o":"m 399 60 q 250 -12 329 -12 q 107 57 154 -12 q 60 274 60 126 l 60 519 q 105 735 60 654 q 251 815 150 815 q 399 750 331 815 l 399 803 l 588 803 l 588 -264 l 399 -264 l 399 60 m 322 118 q 399 144 357 118 l 399 660 q 322 686 357 686 q 249 560 249 686 l 249 260 q 265 155 249 192 q 322 118 281 118 z "},"r":{"ha":482,"x_min":76,"x_max":463,"o":"m 76 803 l 265 803 l 265 679 q 433 813 340 813 q 463 808 444 813 l 463 628 q 404 638 433 638 q 328 615 361 636 q 265 549 294 594 l 265 0 l 76 0 l 76 803 z "},"ŕ":{"ha":482,"x_min":76,"x_max":483,"o":"m 76 803 l 265 803 l 265 679 q 433 813 340 813 q 463 808 444 813 l 463 628 q 404 638 433 638 q 328 615 361 636 q 265 549 294 594 l 265 0 l 76 0 l 76 803 m 292 1158 l 483 1158 l 318 881 l 208 881 l 292 1158 z "},"ř":{"ha":482,"x_min":51,"x_max":479,"o":"m 76 803 l 265 803 l 265 679 q 433 813 340 813 q 463 808 444 813 l 463 628 q 404 638 433 638 q 328 615 361 636 q 265 549 294 594 l 265 0 l 76 0 l 76 803 m 51 1136 l 190 1136 l 265 979 l 340 1136 l 479 1136 l 357 886 l 172 886 l 51 1136 z "},"ŗ":{"ha":482,"x_min":76,"x_max":463,"o":"m 76 803 l 265 803 l 265 679 q 433 813 340 813 q 463 808 444 813 l 463 628 q 404 638 433 638 q 328 615 361 636 q 265 549 294 594 l 265 0 l 76 0 l 76 803 m 89 -375 q 155 -346 132 -369 q 178 -275 178 -322 l 79 -275 l 79 -93 l 263 -93 l 263 -256 q 228 -398 261 -349 q 115 -449 194 -447 l 89 -375 z "},"ȑ":{"ha":482,"x_min":-28,"x_max":463,"o":"m 76 803 l 265 803 l 265 679 q 433 813 340 813 q 463 808 444 813 l 463 628 q 404 638 433 638 q 328 615 361 636 q 265 549 294 594 l 265 0 l 76 0 l 76 803 m -28 1150 l 135 1150 l 219 888 l 119 888 l -28 1150 m 217 1150 l 360 1150 l 429 888 l 331 888 l 217 1150 z "},"ȓ":{"ha":482,"x_min":64,"x_max":467,"o":"m 76 803 l 265 803 l 265 679 q 433 813 340 813 q 463 808 444 813 l 463 628 q 404 638 433 638 q 328 615 361 636 q 265 549 294 594 l 265 0 l 76 0 l 76 803 m 64 910 q 265 1124 67 1124 q 417 1067 368 1124 q 467 910 467 1011 l 358 910 q 337 997 358 971 q 265 1024 315 1024 q 194 997 215 1024 q 172 910 174 971 l 64 910 z "},"s":{"ha":556,"x_min":31,"x_max":525,"o":"m 285 -12 q 121 42 185 -12 q 31 200 57 96 l 171 254 q 283 119 203 119 q 335 138 315 119 q 354 189 354 157 q 331 243 354 214 q 265 310 308 272 l 169 393 q 80 490 110 443 q 50 601 50 536 q 114 757 50 699 q 278 815 178 815 q 432 759 372 815 q 510 607 492 703 l 386 554 q 349 645 375 610 q 283 681 324 681 q 237 663 254 681 q 219 617 219 644 q 238 569 219 594 q 297 511 257 544 l 394 422 q 491 319 457 368 q 525 200 525 269 q 457 43 525 99 q 285 -12 389 -12 z "},"ś":{"ha":556,"x_min":31,"x_max":525,"o":"m 285 -12 q 121 42 185 -12 q 31 200 57 96 l 171 254 q 283 119 203 119 q 335 138 315 119 q 354 189 354 157 q 331 243 354 214 q 265 310 308 272 l 169 393 q 80 490 110 443 q 50 601 50 536 q 114 757 50 699 q 278 815 178 815 q 432 759 372 815 q 510 607 492 703 l 386 554 q 349 645 375 610 q 283 681 324 681 q 237 663 254 681 q 219 617 219 644 q 238 569 219 594 q 297 511 257 544 l 394 422 q 491 319 457 368 q 525 200 525 269 q 457 43 525 99 q 285 -12 389 -12 m 304 1158 l 496 1158 l 331 881 l 221 881 l 304 1158 z "},"š":{"ha":556,"x_min":31,"x_max":525,"o":"m 285 -12 q 121 42 185 -12 q 31 200 57 96 l 171 254 q 283 119 203 119 q 335 138 315 119 q 354 189 354 157 q 331 243 354 214 q 265 310 308 272 l 169 393 q 80 490 110 443 q 50 601 50 536 q 114 757 50 699 q 278 815 178 815 q 432 759 372 815 q 510 607 492 703 l 386 554 q 349 645 375 610 q 283 681 324 681 q 237 663 254 681 q 219 617 219 644 q 238 569 219 594 q 297 511 257 544 l 394 422 q 491 319 457 368 q 525 200 525 269 q 457 43 525 99 q 285 -12 389 -12 m 64 1136 l 203 1136 l 278 979 l 353 1136 l 492 1136 l 369 886 l 185 886 l 64 1136 z "},"ş":{"ha":556,"x_min":31,"x_max":525,"o":"m 318 -85 q 444 -119 397 -85 q 490 -217 490 -153 q 437 -322 490 -286 q 301 -357 383 -357 q 201 -342 254 -357 l 201 -254 q 276 -265 235 -265 q 361 -214 361 -265 q 239 -139 361 -151 l 239 -10 q 106 55 158 1 q 31 200 54 108 l 171 254 q 283 119 203 119 q 335 138 315 119 q 354 189 354 157 q 331 243 354 214 q 265 310 308 272 l 169 393 q 80 490 110 443 q 50 601 50 536 q 114 757 50 699 q 278 815 178 815 q 432 759 372 815 q 510 607 492 703 l 386 554 q 349 645 375 610 q 283 681 324 681 q 237 663 254 681 q 219 617 219 644 q 238 569 219 594 q 297 511 257 544 l 394 422 q 491 319 457 368 q 525 200 525 269 q 467 52 525 107 q 318 -11 410 -3 l 318 -85 z "},"ŝ":{"ha":556,"x_min":31,"x_max":525,"o":"m 285 -12 q 121 42 185 -12 q 31 200 57 96 l 171 254 q 283 119 203 119 q 335 138 315 119 q 354 189 354 157 q 331 243 354 214 q 265 310 308 272 l 169 393 q 80 490 110 443 q 50 601 50 536 q 114 757 50 699 q 278 815 178 815 q 432 759 372 815 q 510 607 492 703 l 386 554 q 349 645 375 610 q 283 681 324 681 q 237 663 254 681 q 219 617 219 644 q 238 569 219 594 q 297 511 257 544 l 394 422 q 491 319 457 368 q 525 200 525 269 q 457 43 525 99 q 285 -12 389 -12 m 192 1147 l 361 1147 l 489 892 l 349 892 l 276 1058 l 206 892 l 67 892 l 192 1147 z "},"ș":{"ha":556,"x_min":31,"x_max":525,"o":"m 285 -12 q 121 42 185 -12 q 31 200 57 96 l 171 254 q 283 119 203 119 q 335 138 315 119 q 354 189 354 157 q 331 243 354 214 q 265 310 308 272 l 169 393 q 80 490 110 443 q 50 601 50 536 q 114 757 50 699 q 278 815 178 815 q 432 759 372 815 q 510 607 492 703 l 386 554 q 349 645 375 610 q 283 681 324 681 q 237 663 254 681 q 219 617 219 644 q 238 569 219 594 q 297 511 257 544 l 394 422 q 491 319 457 368 q 525 200 525 269 q 457 43 525 99 q 285 -12 389 -12 m 196 -375 q 262 -346 239 -369 q 285 -275 285 -322 l 186 -275 l 186 -93 l 369 -93 l 369 -256 q 335 -398 368 -349 q 222 -449 301 -447 l 196 -375 z "},"ṡ":{"ha":556,"x_min":31,"x_max":525,"o":"m 285 -12 q 121 42 185 -12 q 31 200 57 96 l 171 254 q 283 119 203 119 q 335 138 315 119 q 354 189 354 157 q 331 243 354 214 q 265 310 308 272 l 169 393 q 80 490 110 443 q 50 601 50 536 q 114 757 50 699 q 278 815 178 815 q 432 759 372 815 q 510 607 492 703 l 386 554 q 349 645 375 610 q 283 681 324 681 q 237 663 254 681 q 219 617 219 644 q 238 569 219 594 q 297 511 257 544 l 394 422 q 491 319 457 368 q 525 200 525 269 q 457 43 525 99 q 285 -12 389 -12 m 186 1108 l 369 1108 l 369 918 l 186 918 l 186 1108 z "},"ß":{"ha":735,"x_min":72,"x_max":679,"o":"m 332 132 q 459 180 422 132 q 492 332 496 228 q 451 457 490 410 q 343 504 411 504 l 343 653 q 431 704 403 653 q 458 842 458 756 q 436 959 458 918 q 358 1000 414 1000 q 281 960 303 1000 q 261 840 260 919 l 261 0 l 72 0 l 72 840 q 140 1057 72 974 q 346 1140 208 1140 q 558 1064 488 1140 q 628 843 628 988 q 591 692 628 753 q 476 596 554 631 q 626 495 572 569 q 679 318 679 421 q 593 66 679 149 q 332 -17 507 -17 l 332 132 z "},"t":{"ha":461,"x_min":24,"x_max":425,"o":"m 293 -10 q 146 55 186 -8 q 104 233 106 118 l 104 679 l 24 679 l 24 803 l 104 803 l 104 1043 l 294 1043 l 294 803 l 415 803 l 415 679 l 294 679 l 294 217 q 312 159 294 176 q 367 140 329 142 q 425 146 392 139 l 425 0 q 293 -10 357 -11 z "},"ŧ":{"ha":406,"x_min":24,"x_max":425,"o":"m 367 140 q 425 146 392 139 l 425 0 q 293 -10 357 -11 q 146 55 186 -8 q 104 233 106 118 l 104 446 l 26 446 l 26 533 l 104 533 l 104 679 l 24 679 l 24 803 l 104 803 l 104 1043 l 294 1043 l 294 803 l 415 803 l 415 679 l 294 679 l 294 533 l 421 533 l 421 446 l 294 446 l 294 217 q 312 159 294 176 q 367 140 329 142 z "},"ť":{"ha":535,"x_min":24,"x_max":540,"o":"m 293 -10 q 146 55 186 -8 q 104 233 106 118 l 104 679 l 24 679 l 24 803 l 104 803 l 104 1043 l 294 1043 l 294 803 l 415 803 l 415 679 l 294 679 l 294 217 q 312 159 294 176 q 367 140 329 142 q 425 146 392 139 l 425 0 q 293 -10 357 -11 m 365 933 q 431 974 406 944 q 456 1053 456 1004 l 356 1053 l 356 1240 l 540 1240 l 540 1069 q 501 931 540 981 q 383 865 463 881 l 365 933 z "},"ţ":{"ha":461,"x_min":24,"x_max":508,"o":"m 336 -85 q 462 -119 415 -85 q 508 -217 508 -153 q 455 -322 508 -286 q 319 -357 401 -357 q 219 -342 272 -357 l 219 -254 q 294 -265 253 -265 q 379 -214 379 -265 q 257 -139 379 -151 l 257 -7 q 139 67 172 6 q 104 233 106 129 l 104 679 l 24 679 l 24 803 l 104 803 l 104 1043 l 294 1043 l 294 803 l 415 803 l 415 679 l 294 679 l 294 217 q 312 159 294 176 q 367 140 329 142 q 425 146 392 139 l 425 0 q 336 -10 376 -8 l 336 -85 z "},"ț":{"ha":461,"x_min":24,"x_max":425,"o":"m 293 -10 q 146 55 186 -8 q 104 233 106 118 l 104 679 l 24 679 l 24 803 l 104 803 l 104 1043 l 294 1043 l 294 803 l 415 803 l 415 679 l 294 679 l 294 217 q 312 159 294 176 q 367 140 329 142 q 425 146 392 139 l 425 0 q 293 -10 357 -11 m 214 -375 q 280 -346 257 -369 q 303 -275 303 -322 l 204 -275 l 204 -93 l 388 -93 l 388 -256 q 353 -398 386 -349 q 240 -449 319 -447 l 214 -375 z "},"ṫ":{"ha":461,"x_min":24,"x_max":425,"o":"m 293 -10 q 146 55 186 -8 q 104 233 106 118 l 104 679 l 24 679 l 24 803 l 104 803 l 104 1043 l 294 1043 l 294 803 l 415 803 l 415 679 l 294 679 l 294 217 q 312 159 294 176 q 367 140 329 142 q 425 146 392 139 l 425 0 q 293 -10 357 -11 m 108 1349 l 292 1349 l 292 1158 l 108 1158 l 108 1349 z "},"u":{"ha":657,"x_min":67,"x_max":583,"o":"m 201 -12 q 100 38 133 -12 q 67 164 67 88 l 67 803 l 254 803 l 254 199 q 267 142 254 161 q 310 122 279 122 q 394 160 344 124 l 394 803 l 583 803 l 583 0 l 394 0 l 394 76 q 201 -12 301 -12 z "},"ú":{"ha":657,"x_min":67,"x_max":583,"o":"m 201 -12 q 100 38 133 -12 q 67 164 67 88 l 67 803 l 254 803 l 254 199 q 267 142 254 161 q 310 122 279 122 q 394 160 344 124 l 394 803 l 583 803 l 583 0 l 394 0 l 394 76 q 201 -12 301 -12 m 354 1158 l 546 1158 l 381 881 l 271 881 l 354 1158 z "},"ŭ":{"ha":657,"x_min":67,"x_max":583,"o":"m 201 -12 q 100 38 133 -12 q 67 164 67 88 l 67 803 l 254 803 l 254 199 q 267 142 254 161 q 310 122 279 122 q 394 160 344 124 l 394 803 l 583 803 l 583 0 l 394 0 l 394 76 q 201 -12 301 -12 m 328 892 q 179 946 231 892 q 128 1094 128 1000 l 235 1094 q 258 1017 236 1042 q 328 992 279 992 q 399 1017 378 992 q 421 1094 421 1043 l 529 1094 q 478 946 529 1000 q 328 892 426 892 z "},"û":{"ha":657,"x_min":67,"x_max":583,"o":"m 201 -12 q 100 38 133 -12 q 67 164 67 88 l 67 803 l 254 803 l 254 199 q 267 142 254 161 q 310 122 279 122 q 394 160 344 124 l 394 803 l 583 803 l 583 0 l 394 0 l 394 76 q 201 -12 301 -12 m 242 1147 l 411 1147 l 539 892 l 399 892 l 326 1058 l 256 892 l 117 892 l 242 1147 z "},"ȕ":{"ha":657,"x_min":35,"x_max":583,"o":"m 201 -12 q 100 38 133 -12 q 67 164 67 88 l 67 803 l 254 803 l 254 199 q 267 142 254 161 q 310 122 279 122 q 394 160 344 124 l 394 803 l 583 803 l 583 0 l 394 0 l 394 76 q 201 -12 301 -12 m 35 1150 l 197 1150 l 282 888 l 182 888 l 35 1150 m 279 1150 l 422 1150 l 492 888 l 393 888 l 279 1150 z "},"ü":{"ha":657,"x_min":67,"x_max":583,"o":"m 201 -12 q 100 38 133 -12 q 67 164 67 88 l 67 803 l 254 803 l 254 199 q 267 142 254 161 q 310 122 279 122 q 394 160 344 124 l 394 803 l 583 803 l 583 0 l 394 0 l 394 76 q 201 -12 301 -12 m 108 1125 l 275 1125 l 275 944 l 108 944 l 108 1125 m 381 1125 l 547 1125 l 547 944 l 381 944 l 381 1125 z "},"ụ":{"ha":657,"x_min":67,"x_max":583,"o":"m 201 -12 q 100 38 133 -12 q 67 164 67 88 l 67 803 l 254 803 l 254 199 q 267 142 254 161 q 310 122 279 122 q 394 160 344 124 l 394 803 l 583 803 l 583 0 l 394 0 l 394 76 q 201 -12 301 -12 m 242 -93 l 414 -93 l 414 -267 l 242 -267 l 242 -93 z "},"ù":{"ha":657,"x_min":67,"x_max":583,"o":"m 201 -12 q 100 38 133 -12 q 67 164 67 88 l 67 803 l 254 803 l 254 199 q 267 142 254 161 q 310 122 279 122 q 394 160 344 124 l 394 803 l 583 803 l 583 0 l 394 0 l 394 76 q 201 -12 301 -12 m 111 1158 l 303 1158 l 385 881 l 276 881 l 111 1158 z "},"ủ":{"ha":657,"x_min":67,"x_max":583,"o":"m 201 -12 q 100 38 133 -12 q 67 164 67 88 l 67 803 l 254 803 l 254 199 q 267 142 254 161 q 310 122 279 122 q 394 160 344 124 l 394 803 l 583 803 l 583 0 l 394 0 l 394 76 q 201 -12 301 -12 m 267 942 q 338 981 315 963 q 361 1025 361 999 q 279 1078 361 1078 q 201 1067 238 1078 l 201 1153 q 329 1169 264 1169 q 444 1137 399 1169 q 490 1039 490 1104 q 449 941 490 978 q 329 876 407 904 l 267 942 z "},"ư":{"ha":657,"x_min":67,"x_max":667,"o":"m 667 914 q 583 749 667 797 l 583 0 l 394 0 l 394 76 q 201 -12 301 -12 q 100 38 133 -12 q 67 164 67 88 l 67 803 l 254 803 l 254 199 q 267 142 254 161 q 310 122 279 122 q 394 160 344 124 l 394 803 l 454 803 q 512 829 494 803 q 529 914 529 856 l 667 914 z "},"ứ":{"ha":657,"x_min":67,"x_max":667,"o":"m 667 914 q 583 749 667 797 l 583 0 l 394 0 l 394 76 q 201 -12 301 -12 q 100 38 133 -12 q 67 164 67 88 l 67 803 l 254 803 l 254 199 q 267 142 254 161 q 310 122 279 122 q 394 160 344 124 l 394 803 l 454 803 q 512 829 494 803 q 529 914 529 856 l 667 914 m 353 1158 l 544 1158 l 379 881 l 269 881 l 353 1158 z "},"ự":{"ha":657,"x_min":67,"x_max":667,"o":"m 667 914 q 583 749 667 797 l 583 0 l 394 0 l 394 76 q 201 -12 301 -12 q 100 38 133 -12 q 67 164 67 88 l 67 803 l 254 803 l 254 199 q 267 142 254 161 q 310 122 279 122 q 394 160 344 124 l 394 803 l 454 803 q 512 829 494 803 q 529 914 529 856 l 667 914 m 246 -93 l 418 -93 l 418 -267 l 246 -267 l 246 -93 z "},"ừ":{"ha":657,"x_min":67,"x_max":667,"o":"m 667 914 q 583 749 667 797 l 583 0 l 394 0 l 394 76 q 201 -12 301 -12 q 100 38 133 -12 q 67 164 67 88 l 67 803 l 254 803 l 254 199 q 267 142 254 161 q 310 122 279 122 q 394 160 344 124 l 394 803 l 454 803 q 512 829 494 803 q 529 914 529 856 l 667 914 m 110 1158 l 301 1158 l 383 881 l 275 881 l 110 1158 z "},"ử":{"ha":657,"x_min":67,"x_max":667,"o":"m 667 914 q 583 749 667 797 l 583 0 l 394 0 l 394 76 q 201 -12 301 -12 q 100 38 133 -12 q 67 164 67 88 l 67 803 l 254 803 l 254 199 q 267 142 254 161 q 310 122 279 122 q 394 160 344 124 l 394 803 l 454 803 q 512 829 494 803 q 529 914 529 856 l 667 914 m 265 942 q 337 981 314 963 q 360 1025 360 999 q 278 1078 360 1078 q 200 1067 236 1078 l 200 1153 q 328 1169 263 1169 q 443 1137 397 1169 q 489 1039 489 1104 q 447 941 489 978 q 328 876 406 904 l 265 942 z "},"ữ":{"ha":657,"x_min":67,"x_max":667,"o":"m 667 914 q 583 749 667 797 l 583 0 l 394 0 l 394 76 q 201 -12 301 -12 q 100 38 133 -12 q 67 164 67 88 l 67 803 l 254 803 l 254 199 q 267 142 254 161 q 310 122 279 122 q 394 160 344 124 l 394 803 l 454 803 q 512 829 494 803 q 529 914 529 856 l 667 914 m 435 950 q 386 959 408 950 q 336 986 364 968 q 294 1008 311 1000 q 258 1015 276 1015 q 221 1001 232 1015 q 210 958 210 986 l 113 958 q 231 1133 113 1133 q 274 1125 254 1133 q 324 1100 294 1117 q 368 1077 351 1085 q 404 1069 385 1069 q 449 1125 449 1069 l 540 1125 q 518 998 540 1046 q 435 950 496 950 z "},"ű":{"ha":657,"x_min":67,"x_max":643,"o":"m 201 -12 q 100 38 133 -12 q 67 164 67 88 l 67 803 l 254 803 l 254 199 q 267 142 254 161 q 310 122 279 122 q 394 160 344 124 l 394 803 l 583 803 l 583 0 l 394 0 l 394 76 q 201 -12 301 -12 m 242 1154 l 396 1154 l 269 883 l 172 883 l 242 1154 m 469 1154 l 643 1154 l 482 883 l 385 883 l 469 1154 z "},"ȗ":{"ha":657,"x_min":67,"x_max":583,"o":"m 201 -12 q 100 38 133 -12 q 67 164 67 88 l 67 803 l 254 803 l 254 199 q 267 142 254 161 q 310 122 279 122 q 394 160 344 124 l 394 803 l 583 803 l 583 0 l 394 0 l 394 76 q 201 -12 301 -12 m 126 910 q 328 1124 129 1124 q 480 1067 431 1124 q 529 910 529 1011 l 421 910 q 399 997 421 971 q 328 1024 378 1024 q 257 997 278 1024 q 235 910 236 971 l 126 910 z "},"ū":{"ha":657,"x_min":67,"x_max":583,"o":"m 201 -12 q 100 38 133 -12 q 67 164 67 88 l 67 803 l 254 803 l 254 199 q 267 142 254 161 q 310 122 279 122 q 394 160 344 124 l 394 803 l 583 803 l 583 0 l 394 0 l 394 76 q 201 -12 301 -12 m 164 1036 l 492 1036 l 492 938 l 164 938 l 164 1036 z "},"ų":{"ha":657,"x_min":67,"x_max":594,"o":"m 551 -249 q 594 -246 569 -249 l 571 -337 q 522 -342 550 -342 q 373 -314 431 -342 q 315 -207 315 -286 q 355 -89 315 -149 q 446 0 394 -29 l 394 0 l 394 76 q 201 -12 301 -12 q 100 38 133 -12 q 67 164 67 88 l 67 803 l 254 803 l 254 199 q 267 142 254 161 q 310 122 279 122 q 394 160 344 124 l 394 803 l 583 803 l 583 0 l 535 0 q 451 -174 451 -101 q 551 -249 451 -249 z "},"ů":{"ha":657,"x_min":67,"x_max":583,"o":"m 201 -12 q 100 38 133 -12 q 67 164 67 88 l 67 803 l 254 803 l 254 199 q 267 142 254 161 q 310 122 279 122 q 394 160 344 124 l 394 803 l 583 803 l 583 0 l 394 0 l 394 76 q 201 -12 301 -12 m 328 846 q 214 888 258 846 q 169 1000 169 929 q 214 1112 169 1071 q 328 1153 258 1153 q 442 1112 397 1153 q 486 1000 486 1071 q 442 888 486 929 q 328 846 397 846 m 328 924 q 381 945 361 924 q 401 1000 401 967 q 382 1056 401 1035 q 328 1076 363 1076 q 273 1056 293 1076 q 253 1000 253 1035 q 273 945 253 967 q 328 924 293 924 z "},"ũ":{"ha":657,"x_min":67,"x_max":583,"o":"m 201 -12 q 100 38 133 -12 q 67 164 67 88 l 67 803 l 254 803 l 254 199 q 267 142 254 161 q 310 122 279 122 q 394 160 344 124 l 394 803 l 583 803 l 583 0 l 394 0 l 394 76 q 201 -12 301 -12 m 436 950 q 388 959 410 950 q 338 986 365 968 q 295 1008 313 1000 q 260 1015 278 1015 q 222 1001 233 1015 q 211 958 211 986 l 114 958 q 232 1133 114 1133 q 276 1125 256 1133 q 325 1100 296 1117 q 369 1077 353 1085 q 406 1069 386 1069 q 450 1125 450 1069 l 542 1125 q 519 998 542 1046 q 436 950 497 950 z "},"v":{"ha":561,"x_min":18,"x_max":546,"o":"m 18 803 l 201 803 l 283 226 l 364 803 l 546 803 l 386 0 l 176 0 l 18 803 z "},"w":{"ha":824,"x_min":33,"x_max":789,"o":"m 33 803 l 190 803 l 261 281 l 346 803 l 485 803 l 564 278 l 639 803 l 789 803 l 663 0 l 503 0 l 414 507 l 321 0 l 157 0 l 33 803 z "},"ẃ":{"ha":824,"x_min":33,"x_max":789,"o":"m 33 803 l 190 803 l 261 281 l 346 803 l 485 803 l 564 278 l 639 803 l 789 803 l 663 0 l 503 0 l 414 507 l 321 0 l 157 0 l 33 803 m 438 1158 l 629 1158 l 464 881 l 354 881 l 438 1158 z "},"ŵ":{"ha":824,"x_min":33,"x_max":789,"o":"m 33 803 l 190 803 l 261 281 l 346 803 l 485 803 l 564 278 l 639 803 l 789 803 l 663 0 l 503 0 l 414 507 l 321 0 l 157 0 l 33 803 m 325 1147 l 494 1147 l 622 892 l 482 892 l 410 1058 l 339 892 l 200 892 l 325 1147 z "},"ẅ":{"ha":824,"x_min":33,"x_max":789,"o":"m 33 803 l 190 803 l 261 281 l 346 803 l 485 803 l 564 278 l 639 803 l 789 803 l 663 0 l 503 0 l 414 507 l 321 0 l 157 0 l 33 803 m 192 1125 l 358 1125 l 358 944 l 192 944 l 192 1125 m 464 1125 l 631 1125 l 631 944 l 464 944 l 464 1125 z "},"ẁ":{"ha":824,"x_min":33,"x_max":789,"o":"m 33 803 l 190 803 l 261 281 l 346 803 l 485 803 l 564 278 l 639 803 l 789 803 l 663 0 l 503 0 l 414 507 l 321 0 l 157 0 l 33 803 m 194 1158 l 386 1158 l 468 881 l 360 881 l 194 1158 z "},"x":{"ha":579,"x_min":14,"x_max":571,"o":"m 189 432 l 21 803 l 206 803 l 308 581 l 397 803 l 558 803 l 388 406 l 571 0 l 385 0 l 272 246 l 178 0 l 14 0 l 189 432 z "},"y":{"ha":585,"x_min":10,"x_max":569,"o":"m 78 -82 q 184 -69 154 -82 q 214 -19 214 -57 q 213 4 214 -4 q 194 86 211 18 l 186 124 l 110 418 q 10 803 24 743 l 193 803 l 297 272 l 388 803 l 569 803 l 379 -44 q 287 -178 357 -139 q 103 -218 217 -218 l 78 -218 l 78 -82 z "},"ý":{"ha":585,"x_min":10,"x_max":569,"o":"m 78 -82 q 184 -69 154 -82 q 214 -19 214 -57 q 213 4 214 -4 q 194 86 211 18 l 186 124 l 110 418 q 10 803 24 743 l 193 803 l 297 272 l 388 803 l 569 803 l 379 -44 q 287 -178 357 -139 q 103 -218 217 -218 l 78 -218 l 78 -82 m 318 1158 l 510 1158 l 344 881 l 235 881 l 318 1158 z "},"ŷ":{"ha":585,"x_min":10,"x_max":569,"o":"m 78 -82 q 184 -69 154 -82 q 214 -19 214 -57 q 213 4 214 -4 q 194 86 211 18 l 186 124 l 110 418 q 10 803 24 743 l 193 803 l 297 272 l 388 803 l 569 803 l 379 -44 q 287 -178 357 -139 q 103 -218 217 -218 l 78 -218 l 78 -82 m 206 1147 l 375 1147 l 503 892 l 363 892 l 290 1058 l 219 892 l 81 892 l 206 1147 z "},"ÿ":{"ha":585,"x_min":10,"x_max":569,"o":"m 78 -82 q 184 -69 154 -82 q 214 -19 214 -57 q 213 4 214 -4 q 194 86 211 18 l 186 124 l 110 418 q 10 803 24 743 l 193 803 l 297 272 l 388 803 l 569 803 l 379 -44 q 287 -178 357 -139 q 103 -218 217 -218 l 78 -218 l 78 -82 m 72 1125 l 239 1125 l 239 944 l 72 944 l 72 1125 m 344 1125 l 511 1125 l 511 944 l 344 944 l 344 1125 z "},"ỵ":{"ha":585,"x_min":10,"x_max":589,"o":"m 78 -82 q 184 -69 154 -82 q 214 -19 214 -57 q 213 4 214 -4 q 194 86 211 18 l 186 124 l 110 418 q 10 803 24 743 l 193 803 l 297 272 l 388 803 l 569 803 l 379 -44 q 287 -178 357 -139 q 103 -218 217 -218 l 78 -218 l 78 -82 m 417 -93 l 589 -93 l 589 -267 l 417 -267 l 417 -93 z "},"ỳ":{"ha":585,"x_min":10,"x_max":569,"o":"m 78 -82 q 184 -69 154 -82 q 214 -19 214 -57 q 213 4 214 -4 q 194 86 211 18 l 186 124 l 110 418 q 10 803 24 743 l 193 803 l 297 272 l 388 803 l 569 803 l 379 -44 q 287 -178 357 -139 q 103 -218 217 -218 l 78 -218 l 78 -82 m 75 1158 l 267 1158 l 349 881 l 240 881 l 75 1158 z "},"ỷ":{"ha":585,"x_min":10,"x_max":569,"o":"m 78 -82 q 184 -69 154 -82 q 214 -19 214 -57 q 213 4 214 -4 q 194 86 211 18 l 186 124 l 110 418 q 10 803 24 743 l 193 803 l 297 272 l 388 803 l 569 803 l 379 -44 q 287 -178 357 -139 q 103 -218 217 -218 l 78 -218 l 78 -82 m 231 942 q 302 981 279 963 q 325 1025 325 999 q 243 1078 325 1078 q 165 1067 201 1078 l 165 1153 q 293 1169 228 1169 q 408 1137 363 1169 q 454 1039 454 1104 q 413 941 454 978 q 293 876 371 904 l 231 942 z "},"ȳ":{"ha":585,"x_min":10,"x_max":569,"o":"m 78 -82 q 184 -69 154 -82 q 214 -19 214 -57 q 213 4 214 -4 q 194 86 211 18 l 186 124 l 110 418 q 10 803 24 743 l 193 803 l 297 272 l 388 803 l 569 803 l 379 -44 q 287 -178 357 -139 q 103 -218 217 -218 l 78 -218 l 78 -82 m 128 1036 l 456 1036 l 456 938 l 128 938 l 128 1036 z "},"ỹ":{"ha":585,"x_min":10,"x_max":569,"o":"m 78 -82 q 184 -69 154 -82 q 214 -19 214 -57 q 213 4 214 -4 q 194 86 211 18 l 186 124 l 110 418 q 10 803 24 743 l 193 803 l 297 272 l 388 803 l 569 803 l 379 -44 q 287 -178 357 -139 q 103 -218 217 -218 l 78 -218 l 78 -82 m 400 950 q 351 959 374 950 q 301 986 329 968 q 259 1008 276 1000 q 224 1015 242 1015 q 186 1001 197 1015 q 175 958 175 986 l 78 958 q 196 1133 78 1133 q 240 1125 219 1133 q 289 1100 260 1117 q 333 1077 317 1085 q 369 1069 350 1069 q 414 1125 414 1069 l 506 1125 q 483 998 506 1046 q 400 950 461 950 z "},"z":{"ha":514,"x_min":47,"x_max":478,"o":"m 47 124 l 279 664 l 67 664 l 67 803 l 478 803 l 478 693 l 244 140 l 478 140 l 478 0 l 47 0 l 47 124 z "},"ź":{"ha":514,"x_min":47,"x_max":478,"o":"m 47 124 l 279 664 l 67 664 l 67 803 l 478 803 l 478 693 l 244 140 l 478 140 l 478 0 l 47 0 l 47 124 m 285 1158 l 476 1158 l 311 881 l 201 881 l 285 1158 z "},"ž":{"ha":514,"x_min":44,"x_max":478,"o":"m 47 124 l 279 664 l 67 664 l 67 803 l 478 803 l 478 693 l 244 140 l 478 140 l 478 0 l 47 0 l 47 124 m 44 1136 l 183 1136 l 258 979 l 333 1136 l 472 1136 l 350 886 l 165 886 l 44 1136 z "},"ż":{"ha":514,"x_min":47,"x_max":478,"o":"m 47 124 l 279 664 l 67 664 l 67 803 l 478 803 l 478 693 l 244 140 l 478 140 l 478 0 l 47 0 l 47 124 m 167 1108 l 350 1108 l 350 918 l 167 918 l 167 1108 z "},"ﬁ":{"ha":725,"x_min":24,"x_max":650,"o":"m 108 671 l 24 671 l 24 803 l 108 803 l 108 854 q 153 1033 108 974 q 311 1092 199 1092 q 400 1085 347 1092 l 400 950 q 358 956 369 956 q 311 936 325 956 q 297 869 297 917 l 297 803 l 649 803 l 649 0 l 461 0 l 461 671 l 297 671 l 297 0 l 108 0 l 108 671 m 475 1088 l 650 1088 l 650 931 l 475 931 l 475 1088 z "},"ﬂ":{"ha":742,"x_min":21,"x_max":671,"o":"m 106 668 l 21 668 l 21 803 l 106 803 l 106 854 q 123 986 106 932 q 204 1078 140 1040 q 396 1117 268 1117 q 671 1085 510 1117 l 671 0 l 482 0 l 482 981 q 415 985 444 985 q 334 969 360 985 q 301 926 308 953 q 294 854 294 900 l 294 803 l 399 803 l 399 668 l 294 668 l 294 0 l 106 0 l 106 668 z "},"ª":{"ha":643,"x_min":92,"x_max":553,"o":"m 250 440 q 135 488 178 442 q 92 600 92 535 q 128 716 92 671 q 217 786 165 761 q 350 839 268 811 q 385 850 363 842 l 385 925 q 335 1014 385 1014 q 290 987 303 1014 q 274 903 276 960 l 114 906 q 176 1080 115 1018 q 344 1142 236 1142 q 504 1078 456 1142 q 553 897 553 1015 l 553 450 l 403 450 l 396 542 q 338 469 375 497 q 250 440 300 440 m 313 564 q 353 578 333 564 q 385 614 372 592 l 385 782 q 256 633 256 718 q 272 582 256 600 q 313 564 288 564 z "},"º":{"ha":643,"x_min":94,"x_max":550,"o":"m 322 439 q 151 501 208 439 q 94 676 94 563 l 94 904 q 151 1081 94 1019 q 322 1142 208 1142 q 491 1078 432 1142 q 550 904 550 1015 l 550 676 q 491 502 550 565 q 322 439 432 439 m 321 563 q 377 594 363 563 q 392 685 392 625 l 392 896 q 377 988 392 957 q 321 1018 363 1018 q 264 987 279 1018 q 249 896 249 956 l 249 685 q 264 594 249 626 q 321 563 279 563 z "},"А":{"ha":713,"x_min":21,"x_max":690,"o":"m 247 1125 l 465 1125 l 690 0 l 500 0 l 456 260 l 260 260 l 214 0 l 21 0 l 247 1125 m 433 390 l 357 863 l 281 390 l 433 390 z "},"Б":{"ha":729,"x_min":88,"x_max":682,"o":"m 88 1125 l 610 1125 l 610 972 l 292 972 l 292 653 l 336 653 q 597 578 513 653 q 682 326 682 503 q 593 73 682 146 q 329 0 504 0 l 88 0 l 88 1125 m 331 139 q 455 178 418 139 q 492 324 492 218 q 456 465 492 419 q 326 510 419 510 l 292 510 l 292 139 l 331 139 z "},"В":{"ha":775,"x_min":88,"x_max":728,"o":"m 88 1125 l 364 1125 q 608 1061 522 1125 q 694 843 694 997 q 653 678 694 738 q 532 606 611 618 q 726 328 726 568 q 648 83 728 167 q 411 0 568 0 l 88 0 l 88 1125 m 363 665 q 483 705 450 665 q 517 833 517 744 q 474 951 517 919 q 332 982 432 982 l 292 982 l 292 665 l 363 665 m 371 144 q 496 188 461 144 q 531 329 531 231 q 492 477 531 431 q 364 524 454 524 l 292 524 l 292 144 l 371 144 z "},"Г":{"ha":592,"x_min":88,"x_max":563,"o":"m 88 1125 l 563 1125 l 563 974 l 292 974 l 292 0 l 88 0 l 88 1125 z "},"Ѓ":{"ha":592,"x_min":88,"x_max":563,"o":"m 88 1125 l 563 1125 l 563 974 l 292 974 l 292 0 l 88 0 l 88 1125 z "},"Ґ":{"ha":583,"x_min":88,"x_max":564,"o":"m 88 1125 l 440 1125 l 440 1292 l 564 1292 l 564 974 l 292 974 l 292 0 l 88 0 l 88 1125 z "},"Д":{"ha":918,"x_min":21,"x_max":890,"o":"m 21 146 l 61 146 q 149 234 113 174 q 211 421 185 294 q 250 761 238 547 l 275 1125 l 772 1125 l 772 146 l 890 146 l 890 -224 l 747 -224 l 735 0 l 181 0 l 167 -224 l 21 -224 l 21 146 m 578 146 l 578 978 l 436 978 l 424 729 q 390 404 414 519 q 335 240 365 289 q 253 146 304 192 l 578 146 z "},"Е":{"ha":594,"x_min":85,"x_max":554,"o":"m 85 1125 l 551 1125 l 551 981 l 289 981 l 289 657 l 494 657 l 494 514 l 289 514 l 289 140 l 554 140 l 554 0 l 85 0 l 85 1125 z "},"Ѐ":{"ha":594,"x_min":85,"x_max":554,"o":"m 85 1125 l 551 1125 l 551 981 l 289 981 l 289 657 l 494 657 l 494 514 l 289 514 l 289 140 l 554 140 l 554 0 l 85 0 l 85 1125 m 114 1481 l 306 1481 l 388 1203 l 279 1203 l 114 1481 z "},"Ё":{"ha":594,"x_min":85,"x_max":554,"o":"m 85 1125 l 551 1125 l 551 981 l 289 981 l 289 657 l 494 657 l 494 514 l 289 514 l 289 140 l 554 140 l 554 0 l 85 0 l 85 1125 z "},"Ж":{"ha":1024,"x_min":7,"x_max":1018,"o":"m 256 569 l 22 1125 l 215 1125 l 419 590 l 429 590 l 429 1125 l 594 1125 l 594 590 l 606 590 l 808 1125 l 1003 1125 l 769 569 l 1018 0 l 828 0 l 607 554 l 594 554 l 594 0 l 429 0 l 429 554 l 418 554 l 196 0 l 7 0 l 256 569 z "},"З":{"ha":700,"x_min":42,"x_max":646,"o":"m 353 -17 q 58 306 58 -17 l 58 344 l 250 344 q 251 303 250 317 q 274 182 253 219 q 354 144 296 144 q 435 187 414 144 q 456 321 456 229 q 422 460 456 413 q 299 513 388 507 l 246 513 l 246 649 q 296 650 281 649 q 421 698 386 654 q 456 833 456 742 q 430 946 456 907 q 346 985 404 985 q 263 945 289 985 q 233 833 236 906 l 233 785 l 42 785 l 42 838 q 122 1060 42 981 q 343 1139 201 1139 q 566 1060 486 1139 q 646 840 646 982 q 605 676 646 743 q 497 592 564 610 q 646 324 646 538 q 576 73 646 163 q 353 -17 506 -17 z "},"И":{"ha":789,"x_min":88,"x_max":701,"o":"m 88 1125 l 256 1125 l 256 415 l 564 1125 l 701 1125 l 701 0 l 531 0 l 531 722 l 222 0 l 88 0 l 88 1125 z "},"Й":{"ha":789,"x_min":88,"x_max":701,"o":"m 88 1125 l 256 1125 l 256 415 l 564 1125 l 701 1125 l 701 0 l 531 0 l 531 722 l 222 0 l 88 0 l 88 1125 z "},"Ѝ":{"ha":789,"x_min":88,"x_max":701,"o":"m 88 1125 l 256 1125 l 256 415 l 564 1125 l 701 1125 l 701 0 l 531 0 l 531 722 l 222 0 l 88 0 l 88 1125 m 193 1481 l 385 1481 l 467 1203 l 358 1203 l 193 1481 z "},"К":{"ha":751,"x_min":88,"x_max":736,"o":"m 88 1125 l 292 1125 l 292 653 l 333 653 l 515 1125 l 719 1125 l 506 593 l 736 0 l 529 0 l 333 518 l 292 518 l 292 0 l 88 0 l 88 1125 z "},"Ќ":{"ha":751,"x_min":88,"x_max":736,"o":"m 88 1125 l 292 1125 l 292 653 l 333 653 l 515 1125 l 719 1125 l 506 593 l 736 0 l 529 0 l 333 518 l 292 518 l 292 0 l 88 0 l 88 1125 z "},"Л":{"ha":861,"x_min":7,"x_max":772,"o":"m 7 147 q 109 170 78 146 q 157 281 140 194 q 189 576 174 367 l 225 1125 l 772 1125 l 772 0 l 568 0 l 568 971 l 406 971 l 382 551 q 344 217 368 326 q 256 53 321 108 q 57 -1 192 -1 q 7 0 25 -1 l 7 147 z "},"М":{"ha":949,"x_min":82,"x_max":867,"o":"m 101 1125 l 306 1125 l 474 374 l 646 1125 l 846 1125 l 867 0 l 715 0 l 703 744 l 531 0 l 422 0 l 247 747 l 235 0 l 82 0 l 101 1125 z "},"Н":{"ha":804,"x_min":85,"x_max":718,"o":"m 85 1125 l 289 1125 l 289 656 l 514 656 l 514 1125 l 718 1125 l 718 0 l 514 0 l 514 508 l 289 508 l 289 0 l 85 0 l 85 1125 z "},"О":{"ha":781,"x_min":67,"x_max":715,"o":"m 390 -15 q 142 78 217 -15 q 67 353 67 172 l 67 775 q 142 1046 67 954 q 390 1138 217 1138 q 640 1046 564 1138 q 715 775 715 954 l 715 353 q 640 79 715 174 q 390 -15 564 -15 m 390 136 q 483 180 460 136 q 507 304 507 224 l 507 822 q 483 945 507 903 q 390 988 460 988 q 297 946 321 988 q 274 822 274 904 l 274 304 q 297 179 274 222 q 390 136 321 136 z "},"П":{"ha":818,"x_min":85,"x_max":733,"o":"m 85 1125 l 733 1125 l 733 0 l 531 0 l 531 979 l 288 979 l 288 0 l 85 0 l 85 1125 z "},"Р":{"ha":729,"x_min":85,"x_max":703,"o":"m 85 1125 l 415 1125 q 703 806 703 1125 q 401 500 703 500 l 289 500 l 289 0 l 85 0 l 85 1125 m 368 644 q 481 680 451 644 q 510 807 510 715 q 500 909 510 874 q 460 963 490 944 q 368 981 431 981 l 289 981 l 289 644 l 368 644 z "},"С":{"ha":749,"x_min":67,"x_max":692,"o":"m 386 -15 q 139 83 211 -15 q 67 360 67 181 l 67 761 q 138 1042 67 946 q 386 1138 210 1138 q 622 1054 551 1138 q 692 814 692 971 l 692 719 l 493 719 l 493 817 q 488 910 493 876 q 459 966 482 944 q 388 988 436 988 q 313 965 338 988 q 281 903 288 942 q 274 804 274 865 l 274 317 q 298 178 274 221 q 388 136 322 136 q 458 158 435 136 q 487 217 481 181 q 493 315 493 254 l 493 417 l 692 417 l 692 326 q 623 74 692 164 q 386 -15 554 -15 z "},"Т":{"ha":592,"x_min":11,"x_max":583,"o":"m 197 974 l 11 974 l 11 1125 l 583 1125 l 583 974 l 403 974 l 403 0 l 197 0 l 197 974 z "},"У":{"ha":700,"x_min":29,"x_max":685,"o":"m 74 -54 q 124 -56 92 -56 q 239 -30 204 -56 q 274 56 274 -4 q 267 119 274 81 l 29 1125 l 219 1125 l 315 654 l 367 326 l 408 654 l 492 1125 l 685 1125 l 467 99 q 412 -85 440 -26 q 321 -172 383 -144 q 133 -199 258 -199 q 74 -197 94 -199 l 74 -54 z "},"Ў":{"ha":700,"x_min":29,"x_max":685,"o":"m 74 -54 q 124 -56 92 -56 q 239 -30 204 -56 q 274 56 274 -4 q 267 119 274 81 l 29 1125 l 219 1125 l 315 654 l 367 326 l 408 654 l 492 1125 l 685 1125 l 467 99 q 412 -85 440 -26 q 321 -172 383 -144 q 133 -199 258 -199 q 74 -197 94 -199 l 74 -54 z "},"Ф":{"ha":989,"x_min":65,"x_max":922,"o":"m 404 133 q 336 129 346 129 q 137 199 208 129 q 65 415 65 269 l 65 726 q 138 940 65 867 q 339 1014 211 1014 q 404 1011 371 1014 l 404 1208 l 583 1208 l 583 1011 q 646 1014 617 1014 q 849 940 776 1014 q 922 726 922 867 l 922 415 q 854 200 922 271 q 675 129 786 129 q 583 133 629 129 l 583 -44 l 404 -44 l 404 133 m 371 254 q 404 257 388 254 l 404 889 q 364 892 379 892 q 276 853 303 892 q 249 728 249 815 l 249 414 q 274 290 249 325 q 371 254 299 254 m 622 254 q 715 290 689 254 q 740 413 740 325 l 740 728 q 715 855 740 818 q 626 892 690 892 q 583 889 608 892 l 583 257 q 622 254 603 254 z "},"Х":{"ha":689,"x_min":13,"x_max":679,"o":"m 239 597 l 19 1125 l 213 1125 l 358 775 l 488 1125 l 665 1125 l 447 558 l 679 0 l 489 0 l 329 379 l 190 0 l 13 0 l 239 597 z "},"Ч":{"ha":796,"x_min":64,"x_max":708,"o":"m 504 490 q 357 475 417 475 q 144 544 224 475 q 64 742 64 613 l 64 1125 l 260 1125 l 260 742 q 290 638 260 671 q 404 604 319 604 q 504 614 451 604 l 504 1125 l 708 1125 l 708 0 l 504 0 l 504 490 z "},"Ц":{"ha":910,"x_min":88,"x_max":879,"o":"m 704 0 l 88 0 l 88 1125 l 292 1125 l 292 140 l 544 140 l 544 1125 l 749 1125 l 749 140 l 879 140 l 879 -224 l 726 -224 l 704 0 z "},"Ш":{"ha":1096,"x_min":88,"x_max":1008,"o":"m 88 1125 l 285 1125 l 285 147 l 453 147 l 453 1125 l 650 1125 l 650 147 l 811 147 l 811 1125 l 1008 1125 l 1008 0 l 88 0 l 88 1125 z "},"Щ":{"ha":1188,"x_min":88,"x_max":1140,"o":"m 967 0 l 88 0 l 88 1125 l 285 1125 l 285 140 l 453 140 l 453 1125 l 650 1125 l 650 140 l 811 140 l 811 1125 l 1010 1125 l 1010 140 l 1140 140 l 1140 -224 l 988 -224 l 967 0 z "},"Џ":{"ha":797,"x_min":85,"x_max":711,"o":"m 317 0 l 85 0 l 85 1125 l 289 1125 l 289 151 l 507 151 l 507 1125 l 711 1125 l 711 0 l 486 0 l 476 -224 l 326 -224 l 317 0 z "},"Ь":{"ha":731,"x_min":88,"x_max":688,"o":"m 88 1125 l 292 1125 l 292 653 l 342 653 q 602 578 517 653 q 688 326 688 503 q 599 73 688 146 q 333 0 510 0 l 88 0 l 88 1125 m 333 139 q 460 179 422 139 q 497 325 497 219 q 461 465 497 419 q 331 510 425 510 l 292 510 l 292 139 l 333 139 z "},"Ъ":{"ha":835,"x_min":-6,"x_max":793,"o":"m 188 979 l -6 979 l -6 1125 l 392 1125 l 392 653 l 446 653 q 708 578 622 653 q 793 326 793 503 q 703 73 793 146 q 438 0 614 0 l 188 0 l 188 979 m 439 139 q 565 181 528 139 q 603 331 603 222 q 565 466 601 422 q 436 510 528 510 l 392 510 l 392 139 l 439 139 z "},"Ы":{"ha":1085,"x_min":88,"x_max":997,"o":"m 88 1125 l 292 1125 l 292 653 l 342 653 q 603 578 518 653 q 688 326 688 503 q 599 73 688 146 q 333 0 510 0 l 88 0 l 88 1125 m 793 1125 l 997 1125 l 997 0 l 793 0 l 793 1125 m 335 139 q 460 179 422 139 q 497 325 497 219 q 461 465 497 419 q 332 510 425 510 l 292 510 l 292 139 l 335 139 z "},"Љ":{"ha":1199,"x_min":17,"x_max":1161,"o":"m 17 0 l 17 147 q 111 167 78 144 q 163 255 144 190 q 190 447 181 319 l 233 1125 l 781 1125 l 781 653 l 815 653 q 1076 578 992 653 q 1161 326 1161 503 q 1072 73 1161 146 q 807 0 983 0 l 578 0 l 578 971 l 417 971 l 383 446 q 342 181 374 278 q 247 40 310 83 q 78 -1 183 -4 l 17 0 m 808 139 q 933 178 896 139 q 971 319 971 217 q 935 464 971 418 q 806 510 900 510 l 781 510 l 781 139 l 808 139 z "},"Њ":{"ha":1124,"x_min":88,"x_max":1083,"o":"m 88 1126 l 292 1126 l 292 660 l 500 660 l 500 1126 l 706 1126 l 706 653 l 738 653 q 999 578 914 653 q 1083 326 1083 503 q 994 73 1083 146 q 729 0 906 0 l 500 0 l 500 508 l 292 508 l 292 0 l 88 0 l 88 1126 m 729 139 q 824 156 789 139 q 876 213 860 172 q 893 326 893 254 q 857 467 893 425 q 728 510 821 510 l 706 510 l 706 139 l 729 139 z "},"Ѕ":{"ha":658,"x_min":42,"x_max":635,"o":"m 353 -15 q 125 71 201 -15 q 42 328 49 157 l 218 363 q 252 199 222 256 q 346 143 282 143 q 416 172 393 143 q 439 249 439 200 q 409 361 439 315 q 315 464 379 407 l 174 588 q 76 708 108 646 q 43 860 43 769 q 123 1065 43 992 q 339 1138 203 1138 q 544 1055 483 1138 q 615 832 606 972 l 440 801 q 415 940 435 893 q 338 986 394 986 q 262 957 289 986 q 235 881 235 928 q 257 790 235 826 q 326 711 279 754 l 467 588 q 590 440 546 517 q 635 261 635 364 q 599 118 635 181 q 500 20 564 56 q 353 -15 436 -15 z "},"Є":{"ha":735,"x_min":67,"x_max":692,"o":"m 388 -15 q 140 83 213 -15 q 67 360 67 181 l 67 761 q 139 1042 67 946 q 388 1138 211 1138 q 622 1054 553 1138 q 692 814 692 971 l 692 760 l 494 760 l 494 817 q 489 910 494 876 q 460 966 483 944 q 389 988 438 988 q 314 965 339 988 q 281 903 289 942 q 274 804 274 865 l 274 636 l 501 636 l 501 514 l 274 514 l 274 317 q 299 178 274 221 q 389 136 324 136 q 459 158 436 136 q 488 217 482 181 q 494 315 494 254 l 494 378 l 692 378 l 692 326 q 624 74 692 164 q 388 -15 556 -15 z "},"Э":{"ha":761,"x_min":68,"x_max":693,"o":"m 374 -6 q 138 78 208 -6 q 68 318 68 161 l 68 376 l 267 376 l 267 317 q 272 223 267 257 q 301 167 278 189 q 374 144 324 144 q 448 167 424 144 q 479 228 472 190 q 486 329 486 267 l 486 518 l 294 518 l 294 632 l 486 632 l 486 817 q 462 955 486 913 q 374 997 438 997 q 303 974 326 997 q 273 915 279 951 q 267 818 267 879 l 267 754 l 68 754 l 68 807 q 137 1058 68 969 q 374 1147 206 1147 q 622 1050 550 1147 q 693 772 693 953 l 693 372 q 622 90 693 186 q 374 -6 550 -6 z "},"І":{"ha":365,"x_min":85,"x_max":288,"o":"m 85 1125 l 288 1125 l 288 0 l 85 0 l 85 1125 z "},"Ї":{"ha":365,"x_min":85,"x_max":288,"o":"m 85 1125 l 288 1125 l 288 0 l 85 0 l 85 1125 z "},"Ј":{"ha":435,"x_min":7,"x_max":360,"o":"m 7 117 q 101 126 69 115 q 144 167 132 138 q 157 257 157 197 l 157 1125 l 360 1125 l 360 251 q 336 92 358 153 q 259 2 314 32 q 107 -28 204 -28 l 7 -28 l 7 117 z "},"Ћ":{"ha":760,"x_min":0,"x_max":689,"o":"m 158 974 l 0 974 l 0 1125 l 531 1125 l 531 974 l 360 974 l 360 619 q 434 649 399 638 q 519 661 469 661 q 642 622 596 661 q 689 517 689 582 l 689 0 l 500 0 l 500 488 q 449 547 500 547 q 360 518 413 547 l 360 0 l 158 0 l 158 974 z "},"Ю":{"ha":1075,"x_min":88,"x_max":1007,"o":"m 708 -15 q 478 82 546 -15 q 410 363 410 179 l 410 496 l 286 496 l 286 0 l 88 0 l 88 1125 l 286 1125 l 286 649 l 410 649 l 410 767 q 478 1043 410 949 q 708 1138 546 1138 q 939 1042 871 1138 q 1007 767 1007 947 l 1007 363 q 939 83 1007 181 q 708 -15 871 -15 m 708 136 q 797 180 774 136 q 819 304 819 224 l 819 822 q 797 946 819 904 q 708 988 775 988 q 619 946 642 988 q 597 822 597 904 l 597 304 q 620 180 597 224 q 708 136 643 136 z "},"Я":{"ha":801,"x_min":15,"x_max":713,"o":"m 240 503 q 127 616 168 539 q 86 801 86 693 q 176 1046 86 967 q 453 1125 265 1125 l 713 1125 l 713 0 l 508 0 l 508 456 l 443 456 l 418 456 l 239 0 l 15 0 l 240 503 m 508 600 l 508 982 l 458 982 q 322 938 367 982 q 276 801 276 893 q 319 651 276 701 q 463 600 363 600 l 508 600 z "},"Ђ":{"ha":818,"x_min":1,"x_max":761,"o":"m 161 979 l 1 979 l 1 1125 l 550 1125 l 550 979 l 363 979 l 363 615 q 440 656 397 642 q 528 669 483 669 q 642 645 589 669 q 728 572 694 621 q 761 456 761 524 l 761 285 q 695 67 761 133 q 481 0 629 0 l 442 0 l 442 128 q 542 168 513 128 q 572 285 572 208 l 572 440 q 547 514 572 482 q 471 546 521 546 q 363 510 425 546 l 363 0 l 161 0 l 161 979 z "},"Ү":{"ha":672,"x_min":11,"x_max":661,"o":"m 240 488 l 11 1125 l 203 1125 l 288 856 l 342 688 l 390 856 l 472 1125 l 661 1125 l 435 488 l 435 0 l 240 0 l 240 488 z "},"Ұ":{"ha":681,"x_min":17,"x_max":667,"o":"m 458 538 l 640 538 l 640 407 l 440 407 l 440 0 l 246 0 l 246 407 l 49 407 l 49 538 l 228 538 l 17 1125 l 208 1125 l 293 856 l 347 688 l 396 856 l 478 1125 l 667 1125 l 458 538 z "},"Ө":{"ha":783,"x_min":67,"x_max":715,"o":"m 392 1138 q 640 1046 565 1138 q 715 775 715 954 l 715 353 q 640 79 715 174 q 392 -15 564 -15 q 142 78 217 -15 q 67 353 67 172 l 67 775 q 142 1046 67 954 q 392 1138 217 1138 m 392 988 q 299 945 322 988 q 275 822 275 903 l 275 640 l 507 640 l 507 822 q 484 946 507 904 q 392 988 461 988 m 392 136 q 483 179 460 136 q 507 304 507 222 l 507 510 l 275 510 l 275 304 q 299 179 275 222 q 392 136 322 136 z "},"а":{"ha":628,"x_min":54,"x_max":575,"o":"m 228 -12 q 137 15 176 -12 q 76 87 97 43 q 54 178 54 131 q 94 326 54 268 q 193 416 135 383 q 346 486 251 449 l 378 499 l 378 568 q 365 649 378 624 q 314 675 351 675 q 247 586 250 675 l 244 538 l 65 544 l 67 572 q 141 756 75 697 q 329 815 207 815 q 504 751 447 815 q 561 568 561 686 l 561 197 q 575 0 561 115 l 406 0 q 386 115 392 75 q 330 24 369 61 q 228 -12 290 -12 m 297 128 q 343 144 321 128 q 378 181 365 161 l 378 406 q 232 224 232 326 q 249 153 232 179 q 297 128 267 128 z "},"б":{"ha":640,"x_min":67,"x_max":582,"o":"m 322 -12 q 126 62 186 -12 q 67 288 67 136 l 67 714 q 95 961 67 881 q 173 1070 124 1042 q 325 1122 222 1099 q 511 1178 436 1149 l 535 1031 q 447 998 486 1008 q 364 981 408 988 q 292 960 314 971 q 258 912 269 949 q 246 793 246 875 l 246 721 q 313 750 275 739 q 386 761 351 761 q 533 693 483 761 q 582 467 582 625 l 582 292 q 550 106 582 172 q 462 13 518 39 q 322 -12 406 -12 m 328 115 q 372 130 357 115 q 394 180 388 144 q 400 282 400 215 l 400 513 q 386 615 400 585 q 336 644 372 644 q 251 575 285 644 l 251 289 q 258 183 251 219 q 281 131 264 147 q 328 115 297 115 z "},"в":{"ha":640,"x_min":72,"x_max":600,"o":"m 72 803 l 328 803 q 526 750 472 803 q 581 601 581 697 q 553 494 581 535 q 465 436 525 454 q 570 367 540 419 q 600 233 600 315 q 539 58 600 115 q 326 0 478 0 l 72 0 l 72 803 m 324 483 q 385 508 365 483 q 406 588 406 533 q 383 665 406 640 q 308 690 360 690 l 260 690 l 260 483 l 324 483 m 304 119 q 388 142 360 119 q 415 239 415 165 q 402 325 415 297 q 367 360 389 353 q 308 368 346 368 l 260 368 l 260 119 l 304 119 z "},"г":{"ha":447,"x_min":72,"x_max":436,"o":"m 72 803 l 436 803 l 436 672 l 261 672 l 261 0 l 72 0 l 72 803 z "},"ѓ":{"ha":447,"x_min":72,"x_max":436,"o":"m 72 803 l 436 803 l 436 672 l 261 672 l 261 0 l 72 0 l 72 803 z "},"ґ":{"ha":453,"x_min":74,"x_max":440,"o":"m 74 803 l 340 803 l 340 953 l 440 953 l 440 672 l 263 672 l 263 0 l 74 0 l 74 803 z "},"д":{"ha":768,"x_min":25,"x_max":743,"o":"m 25 118 q 165 288 117 175 q 218 617 213 401 l 232 803 l 636 803 l 636 122 l 743 122 l 743 -211 l 607 -211 l 593 0 l 175 0 l 161 -211 l 25 -211 l 25 118 m 460 122 l 460 682 l 375 682 l 364 575 q 323 271 360 371 q 221 122 286 171 l 460 122 z "}}}
